<svg width="33" height="32" viewBox="0 0 33 32" fill="none" xmlns="http://www.w3.org/2000/svg">
<g clip-path="url(#clip0_311_2)">
<path d="M29.9712 24.716C29.9505 24.7318 29.9298 24.7486 29.908 24.7634C29.8873 24.7792 29.8656 24.794 29.8438 24.8098C29.8033 24.8385 29.7619 24.8661 29.7194 24.8928C29.7144 24.8957 29.7095 24.8987 29.7046 24.9027C29.67 24.9244 29.6354 24.9461 29.5999 24.9669C29.5475 24.9985 29.4962 25.0281 29.4428 25.0577C29.0814 25.2592 28.7011 25.4212 28.313 25.5644C27.9465 25.6987 27.5752 25.8162 27.2009 25.9209C26.6646 26.0711 26.1214 26.1955 25.5732 26.3041C25.0409 26.4108 24.5065 26.5007 23.9703 26.5787C23.434 26.6567 22.8957 26.7219 22.3564 26.7782C22.1796 26.797 22.0028 26.8138 21.8261 26.8306C21.4715 26.8632 21.1169 26.8908 20.7624 26.9145C20.5846 26.9264 20.4068 26.9372 20.23 26.9471C19.832 26.9698 19.434 26.9866 19.0359 26.9994C18.9638 27.0014 18.8917 27.0044 18.8186 27.0064C18.7525 27.0083 18.6863 27.0103 18.6191 27.0123C18.7821 26.8108 18.9451 26.6103 19.0942 26.398C19.1159 26.3713 19.1377 26.3446 19.1584 26.317C19.4952 25.8646 19.8172 25.4024 20.1253 24.9313C20.1569 24.9293 20.1885 24.9283 20.2191 24.9264C20.4147 24.9155 20.6103 24.9027 20.8058 24.8898C20.954 24.8799 21.1021 24.8691 21.2503 24.8572C22.2863 24.7772 23.3184 24.6627 24.3456 24.5017C24.6448 24.4553 24.9421 24.4039 25.2384 24.3496C25.9317 24.2212 26.6191 24.0671 27.2967 23.8735C27.4458 23.8311 27.594 23.7866 27.7421 23.7402C27.8162 23.7165 27.8903 23.6928 27.9643 23.6681C28.0759 23.6878 28.1777 23.7343 28.2823 23.7728C28.3742 23.8064 28.4661 23.8419 28.5579 23.8785C28.8177 23.9812 29.0725 24.0948 29.3194 24.2261C29.4172 24.2775 29.513 24.3318 29.6078 24.3891C29.7332 24.4651 29.8557 24.5451 29.9703 24.637C30.0038 24.6636 30.0137 24.6745 30.0009 24.6903C29.9949 24.6982 29.9851 24.7061 29.9693 24.718L29.9712 24.716Z" fill="#F1ECE2"/>
<path d="M20.3694 29.4874C20.3486 29.5002 20.3259 29.5002 20.3042 29.4923C20.3101 29.4884 20.3151 29.4864 20.32 29.4844C20.3289 29.4814 20.3368 29.4814 20.3457 29.4814C20.3536 29.4814 20.3625 29.4834 20.3704 29.4874H20.3694Z" fill="#5E93FF"/>
<path d="M20.2817 29.4923C20.255 29.5041 20.2283 29.5051 20.1997 29.4972C20.2264 29.4814 20.254 29.4834 20.2817 29.4923Z" fill="#5E93FF"/>
<path d="M20.1767 29.4973C20.15 29.5092 20.1234 29.5101 20.0947 29.5022C20.1214 29.4855 20.1481 29.4874 20.1767 29.4973Z" fill="#5E93FF"/>
<path d="M20.0722 29.5022C20.0455 29.515 20.0189 29.515 19.9912 29.5061C19.9912 29.5061 19.9932 29.5061 19.9942 29.5052C20.0199 29.4923 20.0465 29.4923 20.0722 29.5022Z" fill="#5E93FF"/>
<path d="M19.9119 29.5013C19.9297 29.4973 19.9485 29.4993 19.9672 29.5062C19.9406 29.5191 19.9129 29.5191 19.8853 29.5112C19.8941 29.5062 19.903 29.5033 19.9119 29.5013Z" fill="#5E93FF"/>
<path d="M19.8203 29.5032C19.8341 29.5032 19.8479 29.5061 19.8627 29.5101C19.8361 29.522 19.8094 29.5229 19.7817 29.514C19.7946 29.5061 19.8074 29.5032 19.8203 29.5022V29.5032Z" fill="#5E93FF"/>
<path d="M19.7385 29.5101C19.7454 29.5111 19.7513 29.5131 19.7573 29.5151C19.7316 29.5269 19.7039 29.5279 19.6763 29.52C19.695 29.5082 19.7148 29.5062 19.7345 29.5101C19.7345 29.5101 19.7355 29.5101 19.7365 29.5101H19.7375H19.7385Z" fill="#5E93FF"/>
<path d="M19.6525 29.52C19.6208 29.5338 19.5883 29.5329 19.5557 29.524C19.5873 29.5091 19.6199 29.5101 19.6525 29.52Z" fill="#5E93FF"/>
<path d="M19.5317 29.5239C19.505 29.5378 19.4783 29.5358 19.4507 29.5279C19.4764 29.5131 19.504 29.5131 19.5317 29.5239Z" fill="#5E93FF"/>
<path d="M26.4611 23.2198C26.4739 23.2217 26.4887 23.2217 26.5026 23.2237C26.5203 23.2257 26.5381 23.2306 26.5519 23.2454C26.5154 23.2425 26.4798 23.2346 26.4482 23.2168C26.4502 23.2168 26.4532 23.2168 26.4552 23.2178C26.4571 23.2178 26.4591 23.2178 26.4621 23.2188L26.4611 23.2198Z" fill="#5E93FF"/>
<path d="M11.4192 31.9309C11.4221 31.9368 11.4251 31.9428 11.4271 31.9477L10.876 31.9497C10.8789 31.9437 10.8819 31.9378 10.8849 31.9319C10.9293 31.9319 10.9738 31.9319 11.0182 31.9319C11.1515 31.9319 11.2849 31.9319 11.4182 31.9319L11.4192 31.9309Z" fill="#3180F4"/>
<path d="M27.9674 23.6672C27.8934 23.6919 27.8203 23.7156 27.7452 23.7393C27.5971 23.7857 27.4489 23.8301 27.2998 23.8726C26.6213 24.0662 25.9348 24.2203 25.2415 24.3487C24.9452 24.404 24.6469 24.4543 24.3487 24.5008C23.3215 24.6618 22.2894 24.7763 21.2534 24.8563C21.1052 24.8682 20.9571 24.879 20.8089 24.8889C20.6134 24.9018 20.4178 24.9146 20.2222 24.9255C20.1906 24.9274 20.16 24.9284 20.1284 24.9304C20.3408 24.6055 20.5472 24.2766 20.7467 23.9427C21.0351 23.4608 21.3106 22.9719 21.5724 22.4761C22.0721 22.5195 22.5709 22.5699 23.0697 22.6311C23.1062 22.6351 23.1427 22.643 23.1803 22.6489C23.4035 22.6647 23.6247 22.6983 23.845 22.7309C24.1284 22.7724 24.4119 22.8178 24.6943 22.8652C25.0756 22.9294 25.4568 23.0005 25.8351 23.0825C26.0395 23.1269 26.243 23.1724 26.4474 23.2168C26.48 23.2346 26.5146 23.2415 26.5511 23.2455C26.9877 23.3571 27.4232 23.4746 27.8509 23.6158C27.8904 23.6287 27.9358 23.6326 27.9664 23.6662L27.9674 23.6672Z" fill="#FDBF41"/>
<path d="M13.4448 26.8829C13.6206 26.8968 13.7974 26.9106 13.9732 26.9224C13.7964 26.9106 13.6206 26.8968 13.4448 26.8829Z" fill="#F1ECE2"/>
<path d="M7.80654 30.8188C7.79271 30.8188 7.78086 30.8148 7.77197 30.804C7.77197 30.804 7.77395 30.804 7.77494 30.804C7.77691 30.804 7.77889 30.804 7.78086 30.804C7.78284 30.804 7.78382 30.8049 7.7858 30.8049C7.78679 30.8049 7.78876 30.8049 7.78975 30.8059C7.79173 30.8059 7.7937 30.8079 7.79568 30.8089C7.79568 30.8089 7.79765 30.8089 7.79864 30.8099C7.80061 30.8119 7.80259 30.8138 7.80456 30.8158C7.80456 30.8158 7.80456 30.8158 7.80555 30.8158L7.80654 30.8188Z" fill="#404A5A"/>
<path d="M7.77187 30.804C7.75805 30.804 7.74521 30.801 7.7373 30.7882C7.7373 30.7882 7.74422 30.7882 7.74718 30.7882H7.74817C7.75706 30.7902 7.76496 30.7941 7.77089 30.803C7.77089 30.803 7.77089 30.803 7.77089 30.804H7.77187Z" fill="#404A5A"/>
<path d="M7.73721 30.7882C7.72239 30.7882 7.70856 30.7872 7.70264 30.7714C7.70264 30.7714 7.70264 30.7714 7.70264 30.7704H7.70362C7.71745 30.7704 7.73029 30.7734 7.73721 30.7872V30.7882Z" fill="#404A5A"/>
<path d="M7.70253 30.7694V30.7714C7.6887 30.7714 7.67388 30.7734 7.66895 30.7546V30.7526C7.68376 30.7506 7.6966 30.7536 7.70351 30.7694H7.70253Z" fill="#404A5A"/>
<path d="M7.56763 30.6835C7.5775 30.6904 7.58935 30.6953 7.60022 30.7003C7.60812 30.7042 7.61602 30.7072 7.62392 30.7111C7.63775 30.718 7.65059 30.7269 7.65948 30.7398C7.66244 30.7437 7.6654 30.7496 7.66837 30.7556C7.62195 30.7516 7.58145 30.7329 7.5459 30.7032L7.56763 30.6835Z" fill="#404A5A"/>
<path d="M10.735 29.195C10.6965 29.201 10.658 29.2069 10.6204 29.2128C10.4723 29.2326 10.3241 29.2444 10.175 29.2484C10.1256 29.2494 10.0752 29.2503 10.0259 29.2494C9.97549 29.2494 9.92611 29.2474 9.87572 29.2454C9.85399 29.2444 9.83325 29.2415 9.81152 29.2395C9.79078 29.2375 9.76905 29.2345 9.74732 29.2326C9.71967 29.2306 9.69893 29.2187 9.67819 29.201C9.61893 29.1476 9.56263 29.0923 9.50732 29.035C9.91623 29.0943 10.3251 29.1476 10.735 29.196V29.195Z" fill="#F1ECE2"/>
<path d="M17.1682 22.2904C16.8739 22.2904 16.5796 22.2944 16.2853 22.2993C15.7954 23.0588 15.267 23.7916 14.6902 24.4879C14.5687 24.6341 14.4462 24.7783 14.3208 24.9205C14.0048 25.281 13.6749 25.6287 13.3292 25.9605C13.026 26.2509 12.7129 26.5284 12.386 26.7892C12.1312 26.9936 11.8675 27.1882 11.5939 27.3689C11.0902 27.7027 10.5618 27.9902 9.99292 28.1995C9.70454 28.3052 9.41022 28.3911 9.10602 28.4415C9.08923 28.4445 9.07343 28.4514 9.05664 28.4563C9.05763 28.4613 9.0596 28.4672 9.06059 28.4721C9.06158 28.4751 9.06257 28.4781 9.06454 28.481C9.08627 28.5146 9.108 28.5472 9.13071 28.5788C9.17615 28.644 9.22355 28.7072 9.27195 28.7684C9.34504 28.8603 9.42306 28.9492 9.50503 29.0341C9.9139 29.0934 10.3228 29.1467 10.7327 29.1951C10.8423 29.1783 10.9509 29.1566 11.0586 29.1309C11.3085 29.0716 11.5514 28.9936 11.7895 28.9018C11.908 28.8553 12.0255 28.806 12.1411 28.7526C12.2566 28.6993 12.3712 28.643 12.4848 28.5828C12.5342 28.5571 12.5825 28.5304 12.6319 28.5037C12.9717 28.3171 13.2976 28.1077 13.6097 27.8825C13.9228 27.6563 14.223 27.4134 14.5144 27.1586C14.5559 27.122 14.5974 27.0855 14.6388 27.0479C14.6695 27.0203 14.6991 26.9926 14.7307 26.964C14.9174 26.7931 15.1011 26.6173 15.2798 26.4376C15.349 26.3674 15.4171 26.2973 15.4853 26.2252C15.7095 25.9902 15.9277 25.7502 16.1401 25.5042C16.2675 25.3571 16.3919 25.2069 16.5144 25.0558C16.5292 25.0381 16.544 25.0193 16.5588 25.0005C16.6428 24.8958 16.7258 24.7902 16.8087 24.6835C17.0685 24.3477 17.3183 24.005 17.5593 23.6553C17.6897 23.4657 17.8171 23.2751 17.9425 23.0825C18.0127 22.9739 18.0818 22.8652 18.15 22.7566C18.2438 22.6074 18.3356 22.4563 18.4265 22.3052C18.0067 22.2953 17.588 22.2904 17.1682 22.2904Z" fill="#F1ECE2"/>
<path d="M5.9642 29.997C5.95037 30 5.93951 29.9961 5.93457 29.9812C5.94939 29.9783 5.96025 29.9812 5.9642 29.997Z" fill="#C18B00"/>
<path d="M14.6736 22.3517C14.4632 22.3615 14.2528 22.3734 14.0434 22.3862C13.8133 22.7121 13.5753 23.0331 13.3264 23.3462C13.0825 23.6544 12.8326 23.9566 12.5699 24.2499C12.4207 24.4158 12.2706 24.5808 12.1165 24.7428C12.0079 24.8573 11.8973 24.9709 11.7837 25.0815C11.3323 25.523 10.8593 25.9398 10.3506 26.3161C10.2657 26.3783 10.1807 26.4396 10.0938 26.4998C9.80839 26.6983 9.51309 26.882 9.20593 27.047C8.98371 27.1675 8.75456 27.2741 8.52246 27.3719C8.52444 27.3828 8.52246 27.3946 8.5274 27.4055C8.55999 27.4954 8.59456 27.5833 8.63209 27.6712C8.66863 27.7591 8.70814 27.845 8.74962 27.9299C8.83258 28.0998 8.92542 28.2657 9.02616 28.4277L9.02814 28.4297C9.03505 28.4396 9.04691 28.4484 9.05579 28.4573C9.07258 28.4524 9.08839 28.4455 9.10518 28.4425C9.40839 28.3921 9.70271 28.3062 9.99209 28.2005C10.561 27.9921 11.0894 27.7037 11.5931 27.3699C11.8667 27.1892 12.1304 26.9946 12.3852 26.7902C12.7121 26.5284 13.0252 26.2509 13.3284 25.9615C13.6751 25.6297 14.0039 25.282 14.32 24.9215C14.4454 24.7793 14.5679 24.6351 14.6894 24.4889C15.2662 23.7926 15.7946 23.0598 16.2844 22.3003C15.7472 22.3102 15.2089 22.326 14.6726 22.3526L14.6736 22.3517Z" fill="#FDBF41"/>
<path d="M25.296 14.2439C25.296 14.2439 25.2891 14.2429 25.2861 14.2429C25.2891 14.2429 25.2921 14.2429 25.296 14.2439Z" fill="#E7AA24"/>
<path d="M25.2375 14.2667C25.2543 14.2667 25.273 14.2667 25.2622 14.24C25.2701 14.24 25.278 14.242 25.2869 14.243C25.2819 14.243 25.278 14.2439 25.275 14.2459C25.2681 14.2509 25.2681 14.2617 25.2701 14.2746C25.2592 14.2746 25.2484 14.2736 25.2375 14.2726C25.2316 14.2726 25.2247 14.2716 25.2187 14.2706C25.2059 14.2696 25.1921 14.2676 25.1792 14.2667C25.1496 14.2627 25.119 14.2568 25.0903 14.2499C25.1407 14.2469 25.1891 14.2647 25.2385 14.2676L25.2375 14.2667Z" fill="#E7AA24"/>
<path d="M9.91399 24.4474C9.93572 24.4514 9.95646 24.4543 9.9772 24.4583C9.56534 24.8563 9.13275 25.2296 8.67151 25.5714C8.50361 25.6958 8.3357 25.8203 8.15397 25.9259C8.12039 25.7808 8.10558 25.6326 8.08879 25.4845C8.03151 25.0124 8.00978 24.5383 8.00879 24.0642C8.12336 24.0919 8.23793 24.1185 8.35348 24.1452C8.69027 24.2222 9.02805 24.2904 9.36681 24.3526C9.54953 24.3862 9.73225 24.4178 9.91498 24.4484L9.91399 24.4474Z" fill="#F1ECE2"/>
<path d="M11.7997 22.5778C11.7513 22.5837 11.7019 22.5877 11.6526 22.5926C11.1666 23.2109 10.6481 23.8005 10.0852 24.3526C10.0496 24.3882 10.0131 24.4228 9.9775 24.4573C9.99429 24.4603 10.0111 24.4632 10.0269 24.4662C10.0101 24.4632 9.99429 24.4603 9.9775 24.4583C9.56565 24.8563 9.13306 25.2297 8.67183 25.5714C8.50393 25.6958 8.33603 25.8203 8.1543 25.926C8.15627 25.9457 8.15726 25.9665 8.15924 25.9862C8.15924 25.9921 8.15924 25.9971 8.16121 26.003C8.16516 26.0257 8.1701 26.0484 8.17405 26.0711C8.17701 26.0899 8.17998 26.1077 8.18393 26.1265C8.19282 26.1719 8.2017 26.2183 8.21059 26.2647C8.26294 26.5255 8.32516 26.7832 8.40319 27.0371C8.43874 27.1507 8.46738 27.2672 8.52467 27.3739C8.75677 27.2761 8.9859 27.1694 9.20812 27.0489C9.51528 26.883 9.81059 26.6993 10.096 26.5018C10.1829 26.4425 10.2679 26.3813 10.3528 26.3181C10.8614 25.9428 11.3345 25.525 11.7859 25.0835C11.8995 24.9729 12.0091 24.8593 12.1187 24.7447C12.2728 24.5828 12.4229 24.4178 12.5721 24.2519C12.8338 23.9586 13.0847 23.6563 13.3286 23.3482C13.5765 23.0341 13.8155 22.7141 14.0456 22.3882C13.297 22.4336 12.5493 22.4968 11.8027 22.5798L11.7997 22.5778Z" fill="#FF1100"/>
<path d="M10.0264 24.4662C10.0096 24.4632 9.99384 24.4602 9.97705 24.4583C9.99384 24.4612 10.0106 24.4642 10.0264 24.4662Z" fill="#F1ECE2"/>
<path d="M9.97727 24.4573C9.95653 24.4543 9.9348 24.4504 9.91406 24.4464L9.97727 24.4563V24.4573Z" fill="#FF1100"/>
<path d="M9.36572 24.3516C9.54844 24.3851 9.73115 24.4167 9.91386 24.4474C9.73115 24.4167 9.54745 24.3851 9.36572 24.3516Z" fill="#FF1100"/>
<path d="M11.3313 22.6391C11.4369 22.6163 11.5446 22.6045 11.6522 22.5936C11.1663 23.2119 10.6478 23.8015 10.0848 24.3536C10.0493 24.3892 10.0127 24.4238 9.97718 24.4583L9.91398 24.4484C9.73127 24.4178 9.54855 24.3862 9.36584 24.3526C9.02707 24.2904 8.68831 24.2223 8.3525 24.1452C8.23794 24.1186 8.12238 24.0919 8.00781 24.0642C8.00781 23.8855 8.00979 23.7057 8.01473 23.526C8.01769 23.4193 8.02263 23.3136 8.02855 23.2079C8.41868 23.1151 8.81176 23.0331 9.20584 22.9581C9.87941 22.8307 10.5569 22.727 11.2364 22.643C11.2473 22.642 11.2582 22.64 11.269 22.6391C11.2819 22.6371 11.2947 22.6361 11.3076 22.6371C11.3155 22.6371 11.3234 22.6391 11.3313 22.641V22.6391Z" fill="#FDBF41"/>
<path d="M23.3462 14.007C23.7393 14.0554 24.1334 14.1028 24.5264 14.1512C24.5245 14.1551 24.5215 14.1591 24.5175 14.163C24.2736 14.1334 24.0287 14.1047 23.7847 14.0731C23.7136 14.0642 23.6425 14.0583 23.5714 14.0504C23.5003 14.0425 23.4292 14.0346 23.359 14.0208C23.3551 14.0158 23.3511 14.0119 23.3462 14.0079V14.007Z" fill="#007FFF"/>
<path d="M21.4204 15.2287C21.4352 15.1734 21.4491 15.1161 21.4639 15.0608C21.45 15.1171 21.4352 15.1734 21.4204 15.2287Z" fill="#F1ECE2"/>
<path d="M32.719 23.1289C32.719 22.5877 32.719 22.0474 32.719 21.5062C32.6844 21.3551 32.637 21.2079 32.5531 21.0756C32.4178 20.8622 32.2568 20.6716 32.0553 20.5156C31.8449 20.3526 31.6296 20.1995 31.3975 20.0691C31.0785 19.8904 30.7467 19.7393 30.4138 19.5901C30.3546 19.5635 30.2933 19.5506 30.2341 19.5269C29.4815 19.2326 28.7072 19.0114 27.923 18.8207C27.4212 18.6983 26.9155 18.5936 26.4079 18.4988C25.838 18.3921 25.2652 18.3002 24.6914 18.2212C24.2953 18.1669 23.8993 18.1175 23.5022 18.0731C23.3254 18.0533 23.1486 18.0346 22.9718 18.0168C22.4721 17.9684 21.9713 17.923 21.4706 17.8874C21.1753 17.8657 20.879 17.8469 20.5837 17.8301C20.3328 17.8163 20.081 17.8035 19.8291 17.7916C19.4331 17.7738 19.038 17.76 18.642 17.7511C18.6133 17.7511 18.5847 17.7491 18.556 17.7491C17.9309 17.7353 17.3047 17.7314 16.6795 17.7373C16.6696 17.7373 16.6597 17.7373 16.6489 17.7373C16.0049 17.7432 15.361 17.758 14.718 17.7847C14.6795 17.7857 14.641 17.7886 14.6025 17.7896C13.841 17.8222 13.0815 17.8696 12.322 17.9338C11.2069 18.0277 10.0958 18.1551 8.99063 18.3289C8.96396 18.3328 8.93828 18.3378 8.91162 18.3417C8.86915 18.4919 8.83063 18.644 8.7773 18.7911C8.73977 18.9412 8.70224 19.0914 8.66372 19.2405C8.56199 19.6385 8.47014 20.0385 8.39014 20.4415C8.44643 20.4316 8.50273 20.4227 8.55903 20.4128C8.6331 20.4 8.70717 20.3882 8.78026 20.3753C8.88989 20.3575 8.99952 20.3398 9.10915 20.322C9.5052 20.2607 9.9032 20.2054 10.3002 20.1551C10.6983 20.1047 11.0963 20.0602 11.4953 20.0207C11.761 19.9941 12.0276 19.9694 12.2943 19.9467C12.6973 19.9131 13.1012 19.8844 13.5052 19.8588C13.8854 19.8351 14.2657 19.8163 14.6459 19.8005C14.7437 19.7965 14.8415 19.7916 14.9393 19.7877C15.0844 19.7817 15.2306 19.7778 15.3758 19.7728C15.4696 19.7699 15.5634 19.7679 15.6583 19.7659C16.001 19.757 16.3437 19.7521 16.6864 19.7491C16.8158 19.7491 16.9442 19.7472 17.0736 19.7472C17.2948 19.7472 17.516 19.7472 17.7363 19.7491C17.8163 19.7491 17.8963 19.7501 17.9763 19.7521C18.0622 19.7531 18.1481 19.7541 18.2341 19.7551C18.4681 19.759 18.7012 19.7649 18.9353 19.7719C19.1694 19.7788 19.4025 19.7877 19.6365 19.7965C19.6751 19.7975 19.7136 19.8005 19.7521 19.8015C20.003 19.8123 20.2538 19.8252 20.5037 19.838C20.6963 19.8489 20.8889 19.8607 21.0815 19.8726C21.3699 19.8914 21.6593 19.9121 21.9476 19.9358C22.2133 19.9575 22.479 19.9822 22.7457 20.0089C22.7546 20.0089 22.7644 20.0109 22.7733 20.0119C22.9639 20.0306 23.1546 20.0494 23.3452 20.0691C23.6504 20.0998 23.9555 20.1363 24.2607 20.1768C24.5649 20.2173 24.8691 20.2607 25.1733 20.3062C25.2997 20.3249 25.4262 20.3447 25.5516 20.3644C25.9299 20.4257 26.3072 20.4928 26.6825 20.5669C26.9037 20.6104 27.1239 20.6558 27.3442 20.7032C27.5644 20.7506 27.7837 20.802 28.003 20.8553C28.3358 20.9373 28.6667 21.0252 28.9936 21.121C29.4301 21.2494 29.8627 21.3936 30.2864 21.5625C30.3931 21.604 30.4978 21.6484 30.6034 21.6928C30.7634 21.762 30.9205 21.838 31.0765 21.9151C31.1151 21.9338 31.1536 21.9526 31.1921 21.9723C31.2217 21.9872 31.2523 22.002 31.282 22.0168C31.3215 22.0365 31.361 22.0563 31.3995 22.078C31.4489 22.1047 31.4973 22.1333 31.5427 22.1649C31.7185 22.2864 31.8993 22.401 32.0622 22.5393C32.0997 22.5719 32.1363 22.6044 32.1718 22.639C32.2143 22.6746 32.2548 22.7131 32.2933 22.7516C32.3575 22.8158 32.4168 22.8849 32.4691 22.957C32.4948 22.9926 32.5185 23.0291 32.5412 23.0667C32.561 23.0993 32.5788 23.1319 32.5955 23.1654C32.6123 23.199 32.6281 23.2336 32.642 23.2701C32.6568 23.3057 32.6696 23.3422 32.6815 23.3788C32.6894 23.4044 32.6983 23.4311 32.7062 23.4568C32.7062 23.4568 32.7062 23.4588 32.7072 23.4598V23.4568C32.7279 23.3472 32.7151 23.2365 32.716 23.1259L32.719 23.1289Z" fill="#F1ECE2"/>
<path d="M32.726 21.2919C32.727 20.882 32.727 20.4731 32.726 20.0633C32.726 19.8746 32.724 19.685 32.723 19.4963C32.6904 19.3897 32.6677 19.28 32.6193 19.1783C32.4958 18.9225 32.3111 18.7171 32.0978 18.5334C31.8647 18.3319 31.607 18.165 31.3363 18.0178C30.9442 17.8025 30.5373 17.6188 30.1176 17.4637C29.6316 17.284 29.1388 17.125 28.6391 16.9887C28.2568 16.885 27.8726 16.7892 27.4874 16.7013C27.0479 16.6015 26.6065 16.5136 26.163 16.4356C25.7028 16.3556 25.2405 16.2786 24.7773 16.2144C24.5581 16.1837 24.3378 16.1551 24.1176 16.1274C23.6257 16.0642 23.1329 16.0089 22.6391 15.9655C22.5472 15.9566 22.4563 15.9437 22.3645 15.9368C21.9912 15.9082 21.6178 15.8805 21.2455 15.8539C21.1921 15.8499 21.1388 15.846 21.0855 15.842C20.8366 15.8242 20.5877 15.8065 20.3388 15.7936C20.0149 15.7778 19.6909 15.766 19.367 15.7541C19.364 15.7541 19.361 15.7541 19.3581 15.7541C19.0193 15.7423 18.6815 15.7294 18.3428 15.7235C18.0445 15.7186 17.7462 15.7156 17.447 15.7146C17.3156 15.7146 17.1842 15.7136 17.0519 15.7136C16.5284 15.7136 16.006 15.7215 15.4835 15.7363C15.4756 15.7363 15.4687 15.7363 15.4608 15.7363C14.8474 15.7541 14.2331 15.7788 13.6208 15.8183C13.1497 15.8479 12.6786 15.8746 12.2084 15.9141C12.0178 15.9299 11.8282 15.9536 11.6386 15.9724C10.9758 16.0386 10.3151 16.1156 9.65633 16.2084C9.64843 16.2094 9.64151 16.2104 9.63361 16.2114C9.36991 16.8939 9.13288 17.5852 8.92448 18.2874C8.91954 18.3052 8.91461 18.322 8.90967 18.3398C8.93535 18.3358 8.962 18.3309 8.98867 18.327C10.0939 18.1531 11.205 18.0247 12.32 17.9319C13.0795 17.8687 13.8391 17.8203 14.6005 17.7877C14.6391 17.7857 14.6776 17.7837 14.7161 17.7828C15.3591 17.7561 16.003 17.7413 16.647 17.7354C16.6568 17.7354 16.6677 17.7354 16.6776 17.7354C17.3037 17.7304 17.9289 17.7344 18.5541 17.7472C18.5828 17.7472 18.6114 17.7492 18.64 17.7492C19.0361 17.7581 19.4311 17.7719 19.8272 17.7897C20.0791 17.8015 20.3299 17.8144 20.5818 17.8282C20.8771 17.845 21.1734 17.8637 21.4687 17.8855C21.9694 17.922 22.4702 17.9665 22.9699 18.0149C23.1467 18.0326 23.3235 18.0514 23.5003 18.0712C23.8973 18.1156 24.2934 18.165 24.6894 18.2193C25.2632 18.2983 25.8361 18.3902 26.406 18.4968C26.9136 18.5916 27.4193 18.6963 27.921 18.8188C28.7052 19.0094 29.4795 19.2307 30.2321 19.525C30.2914 19.5487 30.3526 19.5615 30.4119 19.5882C30.7447 19.7383 31.0766 19.8884 31.3956 20.0672C31.6277 20.1976 31.843 20.3507 32.0534 20.5136C32.2549 20.6697 32.4158 20.8603 32.5511 21.0736C32.6351 21.206 32.6815 21.3531 32.7171 21.5042C32.7309 21.4331 32.723 21.361 32.723 21.2899L32.726 21.2919Z" fill="#FDBF41"/>
<path d="M21.1141 5.80844C21.3867 6.23412 21.5843 6.69437 21.7334 7.17634C21.7798 7.32548 21.8213 7.4756 21.8588 7.62671C21.9211 7.87857 21.9695 8.13437 22.008 8.39116C22.0188 8.46622 22.0297 8.54128 22.0396 8.61733C22.0583 8.76844 22.0751 8.91955 22.089 9.07066C22.0949 9.14671 22.1008 9.22178 22.1067 9.29782C22.1344 9.71066 22.1462 10.1235 22.1354 10.5373C22.1235 10.9699 22.0979 11.4025 22.0544 11.8341C22.0109 12.2627 21.9517 12.6894 21.8806 13.1131C21.8381 13.3679 21.7907 13.6218 21.7393 13.8736C21.3304 13.841 20.9216 13.8134 20.5117 13.7936C20.3151 13.7847 20.1176 13.7739 19.9201 13.764C20.0534 13.1911 20.166 12.6143 20.2539 12.0316C20.3507 11.3867 20.4198 10.7398 20.4455 10.0889C20.4662 9.53585 20.4633 8.98178 20.4188 8.42869C20.3813 7.96745 20.3191 7.51116 20.2203 7.05881C20.1087 6.55017 19.9517 6.05634 19.7265 5.58523C19.6376 5.39857 19.5329 5.2198 19.4282 5.04202C19.5141 5.01437 19.604 5.0114 19.6919 5.00252C19.7383 4.99758 19.7848 4.99363 19.8302 4.99066C19.8697 4.98869 19.9092 4.98671 19.9487 4.98573C20.0129 4.98474 20.0771 4.98474 20.1413 4.98573C20.1858 4.98671 20.2312 4.98869 20.2756 4.99066C20.3102 4.99264 20.3448 4.99461 20.3793 4.99758C20.3853 4.99758 20.3912 4.99857 20.3961 4.99955C20.407 5.00153 20.4169 5.00449 20.4267 5.00844C20.4366 5.01239 20.4455 5.01733 20.4544 5.02326C20.4672 5.03116 20.4801 5.04202 20.4919 5.05289C20.5225 5.08054 20.5522 5.10918 20.5808 5.13782C20.6391 5.19511 20.6954 5.25536 20.7487 5.31659C20.884 5.46968 21.0055 5.63264 21.1171 5.80647L21.1141 5.80844Z" fill="#F1ECE2"/>
<path d="M20.2171 7.0588C20.3158 7.51016 20.3781 7.96745 20.4156 8.42868C20.461 8.98177 20.464 9.53584 20.4422 10.0889C20.4176 10.7398 20.3484 11.3867 20.2506 12.0317C20.1627 12.6144 20.0501 13.1922 19.9168 13.764C19.7677 13.7571 19.6176 13.7492 19.4684 13.7433C19.1267 13.7304 18.786 13.7225 18.4442 13.7156C18.3168 13.7127 18.1894 13.7107 18.063 13.7087C18.1874 13.2396 18.2971 12.7665 18.3909 12.2904C18.462 11.9339 18.5232 11.5754 18.5776 11.2159C18.6131 10.9749 18.6447 10.7339 18.6724 10.4919C18.701 10.2391 18.7237 9.98524 18.7395 9.73041C18.7563 9.4588 18.7672 9.18621 18.7731 8.91461C18.78 8.55016 18.7682 8.18671 18.7415 7.82325C18.7237 7.58325 18.701 7.34424 18.6704 7.10522C18.6289 6.77831 18.5697 6.45535 18.4916 6.13535C18.4294 5.87955 18.3583 5.62473 18.2635 5.37782C18.3287 5.33634 18.4037 5.31559 18.4758 5.28893C18.622 5.23461 18.7692 5.1872 18.9193 5.14572C19.0694 5.10522 19.2205 5.07066 19.3746 5.04498C19.3855 5.043 19.3953 5.04004 19.4062 5.04004C19.4131 5.04004 19.419 5.04004 19.425 5.04201C19.5297 5.21979 19.6343 5.39757 19.7232 5.58522C19.9484 6.05634 20.1055 6.55016 20.2171 7.0588Z" fill="#FDBF41"/>
<path d="M24.5108 6.22117C24.5108 6.22117 24.5068 6.21821 24.5068 6.21623C24.5068 6.21524 24.5068 6.21426 24.5068 6.21228L24.5118 6.21524L24.5098 6.22018L24.5108 6.22117Z" fill="#3180F4"/>
<path d="M32.7169 25.4064C32.7179 25.3807 32.7199 25.355 32.7199 25.3293C32.7199 24.9066 32.7208 24.4829 32.7208 24.0602C32.7208 23.8775 32.7179 23.6948 32.7169 23.5121C32.7169 23.5012 32.7218 23.4893 32.7208 23.4785C32.7179 23.4716 32.7139 23.4666 32.711 23.4607C32.711 23.4607 32.711 23.4617 32.711 23.4627C32.711 23.4617 32.711 23.4607 32.71 23.4597C32.7021 23.433 32.6932 23.4074 32.6853 23.3807C32.6734 23.3432 32.6596 23.3066 32.6458 23.2721C32.632 23.2365 32.6162 23.2019 32.5994 23.1674C32.5826 23.1338 32.5638 23.1002 32.545 23.0686C32.5223 23.0311 32.4986 22.9945 32.4729 22.959C32.4206 22.8859 32.3623 22.8177 32.2971 22.7535C32.2586 22.715 32.2181 22.6775 32.1757 22.6409C32.1401 22.6054 32.1036 22.5728 32.066 22.5412C31.9031 22.4029 31.7223 22.2884 31.5465 22.1669C31.5001 22.1353 31.4517 22.1066 31.4033 22.08C31.3648 22.0592 31.3253 22.0385 31.2858 22.0187C31.2562 22.0039 31.2255 21.9891 31.1959 21.9743C31.1574 21.9545 31.1189 21.9358 31.0803 21.917C30.9243 21.84 30.7673 21.7639 30.6073 21.6948C30.5016 21.6503 30.3969 21.6059 30.2902 21.5644C29.8655 21.3965 29.4339 21.2513 28.9974 21.1229C28.6695 21.0261 28.3386 20.9382 28.0068 20.8572C27.7875 20.8039 27.5682 20.7526 27.348 20.7051C27.1278 20.6577 26.9075 20.6123 26.6863 20.5688C26.31 20.4948 25.9327 20.4266 25.5554 20.3664C25.429 20.3466 25.3036 20.3269 25.1771 20.3081C24.8729 20.2627 24.5697 20.2192 24.2645 20.1787C23.9603 20.1382 23.6552 20.1017 23.349 20.0711C23.1584 20.0523 22.9678 20.0326 22.7771 20.0138C22.7682 20.0138 22.7584 20.0118 22.7495 20.0108C22.4838 19.9842 22.2181 19.9595 21.9515 19.9377C21.6631 19.914 21.3737 19.8943 21.0853 19.8745C20.8927 19.8617 20.7001 19.8498 20.5075 19.84C20.2566 19.8261 20.0058 19.8133 19.7559 19.8034C19.7174 19.8014 19.6789 19.7995 19.6403 19.7985C19.4063 19.7886 19.1732 19.7807 18.9391 19.7738C18.705 19.7669 18.472 19.7609 18.2379 19.757C18.152 19.756 18.066 19.755 17.9801 19.754C17.9001 19.753 17.8201 19.7521 17.7401 19.7511C17.5189 19.7491 17.2976 19.7481 17.0774 19.7491C16.948 19.7491 16.8186 19.7501 16.6902 19.7511C16.3475 19.754 16.0048 19.759 15.6621 19.7679C15.5682 19.7698 15.4744 19.7728 15.3796 19.7748C15.2344 19.7787 15.0882 19.7837 14.9431 19.7896C14.8453 19.7935 14.7475 19.7985 14.6497 19.8024C14.2695 19.8182 13.8892 19.838 13.509 19.8607C13.105 19.8864 12.7011 19.914 12.2981 19.9486C12.0315 19.9713 11.7648 19.996 11.4991 20.0227C11.1001 20.0622 10.7021 20.1066 10.3041 20.157C9.90603 20.2074 9.509 20.2627 9.11295 20.3239C9.00332 20.3407 8.89369 20.3585 8.78406 20.3772C8.70999 20.3891 8.6369 20.4019 8.56283 20.4148C8.50653 20.4247 8.45024 20.4335 8.39395 20.4434C8.47395 20.0405 8.56579 19.6405 8.66752 19.2424C8.70604 19.0923 8.74357 18.9432 8.7811 18.793C8.83443 18.6459 8.87295 18.4938 8.91542 18.3437C8.92036 18.3259 8.9253 18.3091 8.93023 18.2913C9.13863 17.5891 9.37568 16.8967 9.63938 16.2153C9.80629 15.7827 9.98405 15.354 10.1727 14.9293C10.2991 14.6449 10.4305 14.3614 10.5658 14.0819C11.0132 13.1565 11.51 12.2567 12.0611 11.3866C12.5757 10.5708 13.1357 9.7886 13.749 9.04391C13.7618 9.0291 13.7717 9.01132 13.7836 8.99552C13.9682 8.78416 14.15 8.57082 14.3386 8.36243C14.9529 7.68193 15.6147 7.05181 16.3475 6.49971C16.5282 6.36342 16.7149 6.23502 16.8996 6.10366C16.9164 6.09181 16.9371 6.08984 16.9569 6.08885C16.9658 6.06218 16.9905 6.05033 17.0112 6.03749C17.3895 5.79551 17.7826 5.58021 18.1964 5.40638C18.2112 5.40045 18.225 5.39255 18.2408 5.38761C18.2448 5.38663 18.2497 5.38564 18.2547 5.38465C18.2596 5.38465 18.2645 5.38268 18.2695 5.38268C18.3347 5.34119 18.4097 5.32045 18.4818 5.29379C18.628 5.23947 18.7752 5.19206 18.9253 5.15058C19.0754 5.11008 19.2265 5.07551 19.3806 5.04984C19.3915 5.04786 19.4013 5.0449 19.4122 5.0449C19.4191 5.0449 19.425 5.0449 19.431 5.04687C19.5169 5.01922 19.6068 5.01626 19.6947 5.00737C19.7411 5.00243 19.7875 4.99848 19.8329 4.99552C19.8724 4.99354 19.912 4.99156 19.9515 4.99058C20.0157 4.98959 20.0799 4.98959 20.1441 4.99058C20.1885 4.99156 20.2339 4.99354 20.2784 4.99552C20.3129 4.99749 20.3475 4.99947 20.3821 5.00243C20.388 5.00243 20.3939 5.00342 20.3989 5.0044C20.4097 5.00638 20.4196 5.00934 20.4295 5.01329C20.4394 5.01724 20.4482 5.02218 20.4571 5.02811C20.47 5.03601 20.4828 5.04687 20.4947 5.05774C20.5253 5.08539 20.5549 5.11403 20.5836 5.14268C20.6418 5.19996 20.6981 5.26021 20.7515 5.32144C20.8868 5.47453 21.0082 5.63749 21.1199 5.81132C21.3924 6.237 21.59 6.69724 21.7391 7.17922C21.7855 7.32835 21.827 7.47848 21.8645 7.62959C21.9268 7.88144 21.9752 8.13724 22.0137 8.39403C22.0245 8.46909 22.0354 8.54416 22.0453 8.62021C22.0641 8.77132 22.0808 8.92243 22.0947 9.07354C22.1006 9.14959 22.1065 9.22465 22.1124 9.3007C22.1401 9.71354 22.152 10.1264 22.1411 10.5402C22.1292 10.9728 22.1036 11.4054 22.0601 11.837C22.0166 12.2656 21.9574 12.6923 21.8863 13.116C21.8438 13.3708 21.7964 13.6247 21.745 13.8765C21.8112 13.8814 21.8774 13.8864 21.9436 13.8923C22.4186 13.9318 22.8927 13.9792 23.3668 14.0227C23.3628 14.0177 23.3589 14.0138 23.3539 14.0098C23.747 14.0582 24.1411 14.1056 24.5342 14.154C24.5322 14.158 24.5292 14.1619 24.5253 14.1659C24.549 14.1688 24.5727 14.1728 24.5964 14.1758C24.6754 13.7866 24.7465 13.3975 24.8068 13.0054C24.8601 12.6538 24.9075 12.3012 24.9441 11.9476C24.9786 11.6167 25.0092 11.2859 25.025 10.953C25.0329 10.793 25.0418 10.6321 25.0517 10.4721C25.0527 10.4513 25.0418 10.4237 25.0744 10.4148C25.0744 10.1165 25.0724 9.81724 25.0715 9.51897C25.0557 9.51206 25.0547 9.49823 25.0527 9.48342C25.0487 9.42317 25.0418 9.36391 25.0399 9.30366C25.028 8.87008 24.9885 8.43947 24.9302 8.01082C24.866 7.53576 24.7712 7.06761 24.6399 6.60638C24.6073 6.49082 24.5796 6.37428 24.5282 6.26465L24.5174 6.22514C24.5174 6.22514 24.5134 6.22218 24.5134 6.22021C24.5134 6.21922 24.5134 6.21823 24.5134 6.21626C24.5105 6.20243 24.5085 6.1886 24.5036 6.17477C24.3129 5.62465 24.0641 5.10317 23.7213 4.6291C23.3915 4.17181 22.9934 3.78959 22.5026 3.50514C22.3189 3.39848 22.1194 3.32342 21.9307 3.22761C21.9139 3.21872 21.8922 3.2207 21.8724 3.21675C21.8557 3.19502 21.829 3.1891 21.8063 3.17823C21.3608 2.9807 20.9164 2.78317 20.47 2.58761C20.4127 2.56193 20.3603 2.5244 20.2962 2.5165C20.2853 2.51255 20.2744 2.50959 20.2636 2.50564C20.1875 2.48095 20.1095 2.46317 20.0364 2.4286C20.0295 2.42663 20.0236 2.42465 20.0166 2.42169C20.0137 2.4207 20.0097 2.41971 20.0068 2.41872C20.0068 2.41872 20.0058 2.41872 20.0048 2.41872C19.9969 2.42366 19.992 2.41971 19.987 2.4128C19.8438 2.37626 19.7006 2.3486 19.5554 2.32885C19.4507 2.31403 19.346 2.30317 19.2403 2.29724C19.2048 2.29527 19.1702 2.29428 19.1347 2.29329C19.029 2.29033 18.9243 2.29132 18.8196 2.29626C18.6803 2.30218 18.5421 2.31502 18.4038 2.33379C18.1628 2.36737 17.9238 2.41774 17.6868 2.48292C17.6532 2.4928 17.6186 2.50169 17.585 2.51255C17.1396 2.6449 16.7149 2.82366 16.305 3.03502C16.1687 3.10514 16.0334 3.17922 15.8991 3.25724C15.7766 3.32737 15.6561 3.39947 15.5366 3.47551C15.4971 3.50021 15.4576 3.52589 15.4181 3.55156C15.3786 3.57724 15.3391 3.60292 15.3006 3.62959C15.2226 3.68193 15.1455 3.73527 15.0695 3.79058C15.032 3.81823 14.9934 3.84589 14.9559 3.87354C14.9559 3.8765 14.9559 3.87848 14.9559 3.88144C14.9559 3.88342 14.9539 3.88539 14.9529 3.88737C14.95 3.89033 14.946 3.89132 14.9401 3.89132H14.9391C14.9391 3.89132 14.9391 3.89527 14.9391 3.89626C14.9391 3.90021 14.9371 3.90218 14.9352 3.90317C14.9332 3.90416 14.9312 3.90416 14.9273 3.90317C14.9263 3.90317 14.9243 3.90317 14.9233 3.90119C14.7554 4.01872 14.5924 4.14119 14.4334 4.2686C14.3623 4.3249 14.2922 4.38317 14.2231 4.44144C14.2122 4.45033 14.2013 4.46021 14.1905 4.4691C14.1194 4.52934 14.0482 4.59058 13.9781 4.6528C13.9781 4.65477 13.9781 4.65576 13.9781 4.65774C13.9781 4.66268 13.9761 4.66564 13.9732 4.6686C13.9732 4.6686 13.9712 4.66959 13.9702 4.67058C13.9682 4.67156 13.9653 4.67255 13.9623 4.67255C13.9603 4.6765 13.9574 4.68045 13.9544 4.68342C13.9505 4.68737 13.9475 4.69132 13.9426 4.69428C13.9366 4.69823 13.9297 4.70218 13.9218 4.70317C13.9218 4.71206 13.9199 4.717 13.9159 4.71897C13.91 4.72292 13.8991 4.71996 13.8912 4.72095C13.8645 4.7486 13.8369 4.77626 13.8102 4.80292C13.8082 4.8049 13.8073 4.80687 13.8053 4.80786C13.8053 4.80885 13.8053 4.81082 13.8053 4.81181C13.8053 4.81576 13.8033 4.81774 13.8013 4.8207H13.8003C13.8003 4.8207 13.7944 4.82366 13.7885 4.82366C13.7648 4.84342 13.7391 4.86119 13.7164 4.88193C13.7144 4.88391 13.7124 4.8849 13.7105 4.88687C13.6236 4.96885 13.5357 5.05082 13.4497 5.13477C13.4438 5.1407 13.4379 5.14564 13.4329 5.15058C13.4063 5.17724 13.3786 5.20193 13.351 5.22761C13.2818 5.29181 13.2107 5.35403 13.1445 5.42119C13.109 5.45774 13.0724 5.49428 13.0369 5.52984C12.8315 5.73823 12.628 5.9486 12.4315 6.16589C12.1806 6.44342 11.9366 6.72588 11.6996 7.01428C11.666 7.05576 11.6315 7.09626 11.5979 7.13774C11.5929 7.14366 11.587 7.15058 11.5831 7.15749C11.5762 7.16737 11.5692 7.17724 11.5623 7.18811C11.5534 7.20193 11.5445 7.21576 11.5357 7.2286C11.5287 7.23848 11.5218 7.24737 11.5139 7.25724C11.511 7.26021 11.509 7.26317 11.507 7.26514C11.4962 7.277 11.4853 7.28786 11.4724 7.29675C11.4724 7.29971 11.4715 7.3007 11.4705 7.30268C11.4705 7.30465 11.4705 7.30663 11.4685 7.3086C11.4685 7.30959 11.4665 7.31058 11.4655 7.31156C11.4636 7.31255 11.4606 7.31354 11.4586 7.31453C11.4527 7.34218 11.43 7.35601 11.4112 7.37379C11.4102 7.37379 11.4092 7.37576 11.4082 7.37675C11.4023 7.38169 11.3984 7.38761 11.3944 7.39354C11.3924 7.3965 11.3905 7.39947 11.3895 7.40342C11.3885 7.40737 11.3865 7.41033 11.3855 7.41428C11.3855 7.41626 11.3855 7.41724 11.3855 7.41922C11.3855 7.42416 11.3836 7.42712 11.3796 7.43008C11.3796 7.43008 11.3776 7.43008 11.3776 7.43107C11.3766 7.43107 11.3747 7.43107 11.3737 7.43107C11.3727 7.43107 11.3717 7.43107 11.3697 7.43107C11.3263 7.48539 11.2818 7.53971 11.2384 7.59403C11.2364 7.597 11.2334 7.59996 11.2315 7.60292C11.2324 7.60984 11.2324 7.61576 11.2315 7.62169C11.2315 7.62663 11.2285 7.62959 11.2265 7.63354C11.2265 7.63453 11.2245 7.6365 11.2245 7.63749C11.2216 7.64045 11.2176 7.6444 11.2137 7.64638C11.2087 7.64934 11.2028 7.65132 11.1969 7.65329C11.19 7.66119 11.1831 7.66811 11.1762 7.67601C11.1732 7.67897 11.1712 7.68193 11.1692 7.68391C11.1633 7.68984 11.1584 7.69675 11.1534 7.70268C11.0418 7.8528 10.9302 8.00391 10.8186 8.15403C10.8186 8.15897 10.8166 8.16193 10.8137 8.1649C10.8137 8.1649 10.8127 8.16589 10.8117 8.16687C10.8097 8.16885 10.8068 8.16984 10.8038 8.16984C10.7268 8.27848 10.6478 8.38613 10.5717 8.49576C10.5569 8.51749 10.5421 8.53922 10.5273 8.56095C10.4137 8.72786 10.307 8.89971 10.1924 9.06564C10.1352 9.1486 10.0808 9.23354 10.0265 9.31749C9.97121 9.40144 9.9159 9.48539 9.85567 9.56737C9.75986 9.69873 9.67789 9.84193 9.59394 9.98119C9.55739 10.0414 9.52085 10.1017 9.4853 10.1619C9.07937 10.8355 8.6853 11.516 8.34949 12.2281C8.32974 12.2696 8.30702 12.3081 8.28431 12.3476C8.26159 12.3861 8.2379 12.4256 8.21814 12.4651C8.10358 12.6953 7.99197 12.9264 7.88333 13.1595C7.84284 13.2464 7.80333 13.3333 7.76284 13.4212C7.71049 13.5348 7.65912 13.6493 7.60875 13.7639C7.54456 13.9091 7.48037 14.0553 7.41716 14.2024C7.39049 14.2637 7.3648 14.3259 7.33912 14.3881C7.30653 14.4651 7.27394 14.5422 7.24233 14.6202C7.12974 14.8938 7.0211 15.1703 6.91542 15.4469C6.8848 15.5279 6.85419 15.6088 6.82456 15.6908C6.75247 15.8884 6.68233 16.0859 6.61221 16.2844C6.59542 16.3318 6.57863 16.3792 6.56184 16.4266C6.549 16.4632 6.53616 16.5007 6.52431 16.5382C6.49172 16.6321 6.4611 16.7269 6.43147 16.8217C6.39493 16.9372 6.35937 17.0528 6.32381 17.1684C6.29814 17.2513 6.27247 17.3333 6.2458 17.4163C6.18555 17.6009 6.11542 17.7837 6.09172 17.9782C6.09073 17.9881 6.07889 17.997 6.07296 18.0059C6.04333 18.0869 6.02554 18.1698 6.00579 18.2528C5.99591 18.2923 5.98406 18.3318 5.97221 18.3713C5.96036 18.4108 5.94851 18.4503 5.93764 18.4898C5.89221 18.6597 5.84776 18.8306 5.80628 19.0014C5.76776 19.1555 5.73122 19.3116 5.69567 19.4666C5.65616 19.6414 5.61863 19.8163 5.58209 19.9911C5.55048 20.1442 5.51987 20.2982 5.49123 20.4523C5.46852 20.5748 5.44579 20.6963 5.42505 20.8187C5.40628 20.9264 5.38949 21.034 5.37172 21.1417C5.34999 21.279 5.32925 21.4153 5.31048 21.5526C5.29369 21.676 5.27789 21.7985 5.26209 21.9219C5.2206 22.2607 5.18702 22.5995 5.16036 22.9402C5.15344 23.038 5.14653 23.1348 5.14159 23.2326C5.13567 23.3303 5.13073 23.4271 5.12678 23.5249C5.11888 23.7195 5.11296 23.915 5.10703 24.1096C5.10605 24.154 5.10604 24.1985 5.10505 24.2429C5.10505 24.2568 5.10505 24.2696 5.10505 24.2834C5.10406 24.5333 5.11394 24.7822 5.12184 25.0301C5.12184 25.0409 5.12382 25.0528 5.12382 25.0637C5.1258 25.1081 5.12776 25.1526 5.13073 25.197C5.13962 25.3767 5.15444 25.5565 5.17321 25.7363C5.18605 25.8577 5.19986 25.9802 5.21567 26.1017C5.21764 26.1195 5.22061 26.1363 5.22259 26.154C5.25617 26.4009 5.29469 26.6469 5.34308 26.8908C5.43296 27.3471 5.55247 27.7955 5.71642 28.2311C5.71938 28.238 5.72233 28.2459 5.7253 28.2538C5.84777 28.5758 5.98999 28.8888 6.1648 29.1871C6.45221 29.678 6.80283 30.1126 7.25023 30.4592C7.30357 30.5007 7.35789 30.5402 7.4132 30.5797C7.46653 30.6163 7.52382 30.6498 7.57913 30.6834C7.58901 30.6903 7.60086 30.6953 7.61173 30.7002C7.61963 30.7042 7.62752 30.7071 7.63542 30.7111C7.64925 30.718 7.66209 30.7269 7.67097 30.7397C7.67394 30.7437 7.6769 30.7496 7.67986 30.7555V30.7535C7.69468 30.7516 7.70752 30.7545 7.71443 30.7703H7.71542C7.72925 30.7703 7.7421 30.7743 7.74901 30.7871C7.75296 30.7871 7.75591 30.7871 7.75888 30.7881H7.75987C7.76876 30.7901 7.77665 30.794 7.78258 30.8029C7.78258 30.8029 7.78258 30.8029 7.78258 30.8039C7.78258 30.8039 7.78456 30.8039 7.78554 30.8039C7.78752 30.8039 7.78949 30.8039 7.79147 30.8039C7.79344 30.8039 7.79443 30.8049 7.79739 30.8049C7.79838 30.8049 7.80037 30.8049 7.80135 30.8059C7.80333 30.8059 7.8053 30.8079 7.80727 30.8088C7.80727 30.8088 7.80925 30.8088 7.81023 30.8098C7.81221 30.8118 7.81418 30.8138 7.81616 30.8158C7.81616 30.8158 7.81616 30.8158 7.81715 30.8158C7.83591 30.8355 7.86159 30.8405 7.8853 30.8513C8.37814 31.0696 8.87197 31.2879 9.36481 31.5061C9.60876 31.6138 9.85074 31.7274 10.1085 31.7985C10.3663 31.8696 10.628 31.918 10.8957 31.9288C10.9401 31.9288 10.9845 31.9288 11.029 31.9288C11.1623 31.9288 11.2957 31.9288 11.429 31.9288C11.5584 31.9249 11.6868 31.9081 11.8142 31.8884C12.3327 31.8103 12.8305 31.6572 13.3115 31.4508C14.1924 31.0726 14.9875 30.556 15.7332 29.9585C15.8971 29.8271 16.0571 29.6918 16.2162 29.5545C16.7702 29.5644 17.3233 29.5674 17.8774 29.5614C18.4048 29.5555 18.9332 29.5466 19.4606 29.5259C19.4863 29.5111 19.5139 29.5111 19.5416 29.5219C19.5495 29.5219 19.5574 29.5219 19.5653 29.5219C19.5969 29.5071 19.6295 29.5081 19.6621 29.518H19.6858C19.7045 29.5061 19.7243 29.5042 19.7441 29.5081C19.7441 29.5081 19.745 29.5081 19.746 29.5081H19.747C19.7539 29.5101 19.7599 29.5121 19.7658 29.514H19.7895C19.8023 29.5061 19.8152 29.5032 19.828 29.5022C19.8418 29.5022 19.8557 29.5051 19.8705 29.5091C19.8784 29.5091 19.8863 29.5091 19.8942 29.5091C19.9031 29.5042 19.912 29.5012 19.9208 29.4992C19.9386 29.4953 19.9574 29.4972 19.9761 29.5042C19.9841 29.5042 19.991 29.5042 19.9989 29.5042C19.9989 29.5042 20.0008 29.5042 20.0018 29.5032C20.0275 29.4903 20.0542 29.4903 20.0799 29.5002C20.0878 29.5002 20.0957 29.5002 20.1026 29.5002C20.1292 29.4834 20.1559 29.4854 20.1845 29.4953C20.1924 29.4953 20.2003 29.4953 20.2073 29.4953C20.2339 29.4795 20.2616 29.4814 20.2892 29.4903C20.2971 29.4903 20.305 29.4903 20.312 29.4903C20.3179 29.4864 20.3228 29.4844 20.3278 29.4824C20.3366 29.4795 20.3445 29.4795 20.3534 29.4795C20.3613 29.4795 20.3702 29.4814 20.3781 29.4854C20.4986 29.4795 20.6181 29.4755 20.7386 29.4686C21.6611 29.4143 22.5806 29.3412 23.4991 29.2395C24.8937 29.0844 26.2794 28.876 27.6482 28.5639C28.5806 28.3516 29.5001 28.0968 30.389 27.7382C30.866 27.5456 31.3292 27.3254 31.7579 27.037C32.0157 26.8632 32.2547 26.6676 32.4463 26.4177C32.5668 26.2587 32.6645 26.0879 32.7021 25.8884C32.7169 25.8726 32.7228 25.8538 32.7238 25.834C32.7327 25.6908 32.7376 25.5486 32.7248 25.4054L32.7169 25.4064ZM20.3366 22.3851C20.0799 22.3693 19.8241 22.3555 19.5673 22.3447C19.8241 22.3565 20.0799 22.3703 20.3366 22.3851ZM14.6408 27.0479C14.5994 27.0844 14.5579 27.1219 14.5164 27.1585C14.225 27.4143 13.9248 27.6563 13.6117 27.8824C13.2986 28.1076 12.9737 28.317 12.6339 28.5037C12.5855 28.5303 12.5362 28.557 12.4868 28.5827C12.3732 28.6419 12.2586 28.6982 12.1431 28.7526C12.0275 28.8059 11.91 28.8553 11.7915 28.9017C11.5544 28.9945 11.3115 29.0716 11.0606 29.1308C10.952 29.1565 10.8433 29.1782 10.7347 29.195C10.6962 29.2009 10.6576 29.2069 10.6201 29.2128C10.472 29.2326 10.3238 29.2444 10.1747 29.2484C10.1253 29.2493 10.0749 29.2503 10.0255 29.2493C9.97516 29.2493 9.92578 29.2474 9.87543 29.2454C9.8537 29.2444 9.83295 29.2414 9.81122 29.2395C9.79048 29.2375 9.76875 29.2345 9.74702 29.2326C9.71937 29.2306 9.69864 29.2187 9.6779 29.2009C9.61864 29.1476 9.56233 29.0923 9.50702 29.035C9.42505 28.9501 9.34702 28.8612 9.27394 28.7693C9.22554 28.7081 9.17814 28.6449 9.1327 28.5797C9.10999 28.5471 9.08826 28.5145 9.06653 28.4819C9.06456 28.479 9.06357 28.476 9.06258 28.473C9.06159 28.4681 9.05962 28.4622 9.05863 28.4572C9.04974 28.4484 9.03789 28.4395 9.03097 28.4296L9.029 28.4276C8.92727 28.2666 8.83542 28.1007 8.75246 27.9298C8.71098 27.8439 8.67147 27.759 8.63493 27.6711C8.59739 27.5842 8.56283 27.4953 8.53023 27.4054C8.52628 27.3945 8.52728 27.3837 8.52531 27.3718C8.46802 27.2651 8.43937 27.1486 8.40381 27.035C8.3248 26.7812 8.26258 26.5234 8.21122 26.2627C8.20233 26.2163 8.19344 26.1708 8.18456 26.1244C8.1806 26.1056 8.17863 26.0879 8.17468 26.0691C8.17073 26.0464 8.16579 26.0237 8.16184 26.0009C8.16184 25.995 8.16184 25.9901 8.15986 25.9842C8.15789 25.9644 8.15691 25.9437 8.15494 25.9239C8.12135 25.7787 8.10653 25.6306 8.08974 25.4824C8.03246 25.0103 8.01074 24.5363 8.00975 24.0622C8.00975 23.8834 8.01172 23.7037 8.01665 23.5239C8.01962 23.4172 8.02455 23.3116 8.03048 23.2059C8.4206 23.113 8.81369 23.0311 9.20777 22.956C9.88134 22.8286 10.5589 22.7249 11.2384 22.6409C11.2492 22.64 11.2601 22.638 11.271 22.637C11.2838 22.635 11.2966 22.634 11.3095 22.635C11.3174 22.635 11.3253 22.637 11.3332 22.639C11.4389 22.6163 11.5465 22.6044 11.6542 22.5935C11.7036 22.5886 11.7529 22.5837 11.8013 22.5787C12.548 22.4958 13.2957 22.4326 14.0443 22.3871C14.2547 22.3743 14.465 22.3624 14.6744 22.3526C15.2117 22.3269 15.749 22.3101 16.2863 22.3002C16.5806 22.2943 16.8749 22.2913 17.1692 22.2913C17.589 22.2913 18.0087 22.2963 18.4275 22.3061C18.3366 22.4572 18.2448 22.6084 18.151 22.7575C18.0828 22.8671 18.0137 22.9758 17.9436 23.0834C17.8181 23.276 17.6907 23.4666 17.5603 23.6563C17.3194 24.0059 17.0695 24.3486 16.8097 24.6844C16.7278 24.7911 16.6448 24.8967 16.5599 25.0014C16.545 25.0202 16.5302 25.039 16.5154 25.0567C16.3929 25.2088 16.2685 25.358 16.1411 25.5051C15.9287 25.7511 15.7105 25.9911 15.4863 26.2261C15.4181 26.2972 15.35 26.3684 15.2808 26.4385C15.1031 26.6182 14.9194 26.794 14.7317 26.9649C14.789 26.9679 14.8463 26.9698 14.9036 26.9728C14.8463 26.9698 14.789 26.9679 14.7317 26.9649C14.7011 26.9926 14.6705 27.0212 14.6399 27.0488L14.6408 27.0479ZM15.6403 27.0005C15.8576 27.0074 16.0759 27.0133 16.2932 27.0172C16.0749 27.0133 15.8576 27.0074 15.6403 27.0005ZM30.0028 24.6874C29.9969 24.6953 29.987 24.7032 29.9712 24.715C29.9505 24.7308 29.9297 24.7476 29.908 24.7624C29.8873 24.7782 29.8655 24.793 29.8438 24.8088C29.8033 24.8375 29.7618 24.8651 29.7194 24.8918C29.7144 24.8948 29.7095 24.8977 29.7045 24.9017C29.67 24.9234 29.6354 24.9451 29.5999 24.9659C29.5475 24.9975 29.4961 25.0271 29.4428 25.0567C29.0813 25.2582 28.7011 25.4202 28.3129 25.5634C27.9465 25.6977 27.5752 25.8153 27.2008 25.92C26.6645 26.0701 26.1213 26.1945 25.5732 26.3032C25.0408 26.4098 24.5065 26.4997 23.9702 26.5777C23.4339 26.6558 22.8957 26.7209 22.3564 26.7772C22.1796 26.796 22.0028 26.8128 21.826 26.8296C21.4715 26.8622 21.1169 26.8898 20.7623 26.9135C20.5845 26.9254 20.4068 26.9363 20.23 26.9461C19.832 26.9688 19.4339 26.9856 19.0359 26.9985C18.9638 27.0005 18.8917 27.0034 18.8186 27.0054C18.7524 27.0074 18.6863 27.0093 18.6191 27.0113C18.7821 26.8098 18.945 26.6093 19.0942 26.397C19.1159 26.3703 19.1376 26.3437 19.1584 26.316C19.4774 25.8864 19.7836 25.4488 20.0779 25.0034C20.0937 24.9787 20.1757 24.8543 20.2003 24.8158C20.387 24.5284 20.5678 24.238 20.7445 23.9437C21.0329 23.4617 21.3085 22.9728 21.5702 22.477C22.07 22.5205 22.5687 22.5708 23.0675 22.6321C23.1041 22.636 23.1406 22.6439 23.1781 22.6498C23.4013 22.6656 23.6226 22.6992 23.8428 22.7318C24.1263 22.7733 24.4097 22.8187 24.6922 22.8661C25.0734 22.9303 25.4547 23.0014 25.8329 23.0834C26.0374 23.1279 26.2408 23.1733 26.4453 23.2177C26.4473 23.2177 26.4502 23.2177 26.4522 23.2187C26.4542 23.2187 26.4561 23.2187 26.4591 23.2197C26.472 23.2217 26.4868 23.2217 26.5006 23.2237C26.5184 23.2256 26.5362 23.2306 26.55 23.2454C26.9865 23.357 27.4221 23.4745 27.8497 23.6158C27.8892 23.6286 27.9347 23.6326 27.9653 23.6661C28.0769 23.6859 28.1786 23.7323 28.2833 23.7708C28.3752 23.8044 28.467 23.84 28.5579 23.8765C28.8176 23.9792 29.0724 24.0928 29.3194 24.2242C29.4171 24.2755 29.5129 24.3298 29.6078 24.3871C29.7332 24.4632 29.8557 24.5432 29.9702 24.635C30.0038 24.6617 30.0137 24.6726 30.0008 24.6884L30.0028 24.6874Z" fill="#007FFF"/>
<path d="M32.7261 17.5694C32.7142 17.3333 32.6244 17.1249 32.4871 16.9353C32.2935 16.6657 32.0436 16.4553 31.773 16.2696C31.3118 15.9536 30.8071 15.7215 30.2905 15.5141C30.0031 15.3985 29.7118 15.2958 29.4174 15.201C28.969 15.0568 28.5137 14.9333 28.0565 14.8207C27.4846 14.6805 26.9098 14.559 26.331 14.4533C25.9784 14.3891 25.6248 14.3269 25.2703 14.2755C25.2594 14.2755 25.2485 14.2746 25.2377 14.2736C25.2318 14.2736 25.2248 14.2726 25.2189 14.2716C25.2061 14.2706 25.1923 14.2686 25.1794 14.2676C25.1498 14.2637 25.1192 14.2578 25.0905 14.2509C24.9848 14.2341 24.8802 14.2173 24.7745 14.1995C24.7132 14.1906 24.652 14.1817 24.5908 14.1738C24.5671 14.1699 24.5434 14.1669 24.5197 14.1639C24.2757 14.1343 24.0308 14.1057 23.7868 14.0741C23.7157 14.0652 23.6446 14.0592 23.5735 14.0513C23.5024 14.0444 23.4313 14.0355 23.3611 14.0217C22.8871 13.9773 22.413 13.9299 21.9379 13.8913C21.8718 13.8864 21.8056 13.8805 21.7394 13.8755C21.3305 13.843 20.9216 13.8153 20.5118 13.7955C20.3152 13.7867 20.1177 13.7758 19.9202 13.7659C19.771 13.759 19.6209 13.7511 19.4718 13.7452C19.13 13.7323 18.7893 13.7244 18.4476 13.7175C18.3202 13.7146 18.1927 13.7126 18.0663 13.7106C17.852 13.7067 18.0663 13.7106 18.0663 13.7106C18.0663 13.7106 18.3004 12.7684 18.3942 12.2923C18.4653 11.9358 18.5266 11.5773 18.5809 11.2178C18.6165 10.9768 18.6481 10.7358 18.6757 10.4938C18.7044 10.241 18.7271 9.98715 18.7429 9.73235C18.7597 9.46075 18.7705 9.18816 18.7765 8.91655C18.7834 8.55211 18.7715 8.18865 18.7448 7.82519C18.7271 7.58519 18.7044 7.34618 18.6737 7.10717C18.6323 6.78025 18.573 6.45729 18.495 6.13729C18.4327 5.88149 18.3616 5.62667 18.2668 5.37976C18.2619 5.37976 18.2569 5.37976 18.252 5.38174C18.2471 5.38174 18.2421 5.38371 18.2382 5.3847C18.2224 5.38964 18.2086 5.39754 18.1937 5.40346C17.7789 5.57729 17.3868 5.79359 17.0086 6.03458C16.9868 6.0484 16.9631 6.05927 16.9542 6.08593C17.0451 6.65976 17.0876 7.23655 17.0925 7.81729C17.1004 8.64791 17.0392 9.47359 16.9256 10.2963C16.8397 10.9155 16.7261 11.5299 16.5878 12.1402C16.4683 12.6696 16.33 13.1941 16.176 13.7136C15.8036 13.7175 15.4303 13.7294 15.0579 13.7412C14.5621 13.758 14.0663 13.7807 13.5715 13.8123C13.135 13.84 12.6974 13.8686 12.2609 13.9062C11.694 13.9555 11.1281 14.0109 10.5641 14.08C10.4288 14.3605 10.2974 14.643 10.171 14.9274C9.98238 15.3521 9.80461 15.7807 9.6377 16.2133C9.6456 16.2123 9.65251 16.2113 9.66041 16.2104C10.3192 16.1175 10.9809 16.0405 11.6426 15.9743C11.8323 15.9555 12.0219 15.9328 12.2125 15.916C12.6826 15.8765 13.1537 15.8499 13.6248 15.8202C14.2372 15.7807 14.8505 15.756 15.4648 15.7383C15.4727 15.7383 15.4797 15.7383 15.4876 15.7383C16.01 15.7234 16.5325 15.7165 17.056 15.7155C17.1873 15.7155 17.3187 15.7155 17.451 15.7165C17.7493 15.7175 18.0485 15.7205 18.3468 15.7254C18.6856 15.7313 19.0234 15.7442 19.3621 15.756C19.3651 15.756 19.3681 15.756 19.371 15.756C19.695 15.7679 20.0189 15.7797 20.3429 15.7955C20.5918 15.8074 20.8406 15.8252 21.0895 15.8439C21.1429 15.8479 21.1962 15.8518 21.2495 15.8558C21.6229 15.8825 21.9952 15.9101 22.3685 15.9388C22.4604 15.9457 22.5513 15.9585 22.6431 15.9674C23.1369 16.0109 23.6298 16.0662 24.1216 16.1294C24.3419 16.157 24.5611 16.1867 24.7814 16.2163C25.2446 16.2805 25.7068 16.3575 26.1671 16.4375C26.6105 16.5155 27.053 16.6034 27.4915 16.7032C27.8777 16.7911 28.2619 16.8869 28.6431 16.9906C29.1439 17.1269 29.6357 17.2859 30.1216 17.4657C30.5414 17.6217 30.9473 17.8054 31.3404 18.0197C31.611 18.1679 31.8678 18.3338 32.1019 18.5353C32.3142 18.718 32.4999 18.9234 32.6234 19.1802C32.6727 19.282 32.6955 19.3916 32.7271 19.4983C32.7281 19.2859 32.73 19.0736 32.731 18.8612C32.731 18.5462 32.731 18.2301 32.731 17.915C32.731 17.8005 32.735 17.6849 32.729 17.5713L32.7261 17.5694Z" fill="#FF1100"/>
<path d="M20.2589 2.50266C20.1828 2.47797 20.1048 2.46019 20.0317 2.42563C20.0317 2.41575 20.0327 2.40587 20.0337 2.396C20.1246 2.42365 20.2105 2.46217 20.2905 2.51353C20.2796 2.50958 20.2688 2.50661 20.2579 2.50266H20.2589Z" fill="#404A5A"/>
<path d="M19.9933 2.40995C19.9933 2.40995 20.0002 2.41292 20.0022 2.41588C20.0022 2.41588 20.0012 2.41588 20.0002 2.41588C19.9923 2.42082 19.9874 2.41687 19.9824 2.40995C19.9864 2.40897 19.9893 2.40798 19.9933 2.40995Z" fill="#404A5A"/>
<path d="M10.8107 8.15503C10.8107 8.15503 10.8087 8.16293 10.8058 8.16589C10.8058 8.16589 10.8048 8.16688 10.8038 8.16787C10.8018 8.16984 10.7989 8.17083 10.7959 8.17083C10.7959 8.16984 10.7959 8.16886 10.7959 8.16787V8.16491C10.7959 8.16491 10.8018 8.15898 10.8048 8.15701C10.8068 8.15701 10.8087 8.15503 10.8107 8.15503Z" fill="#404A5A"/>
<path d="M11.2176 7.63651C11.2176 7.63651 11.2107 7.64342 11.2067 7.6454C11.2018 7.64836 11.1969 7.65032 11.1899 7.6523C11.1899 7.64835 11.1899 7.6454 11.1899 7.64243C11.1899 7.63947 11.1899 7.63651 11.1909 7.63453C11.1929 7.62959 11.1949 7.62466 11.1978 7.62071C11.2008 7.61676 11.2057 7.61379 11.2097 7.60984C11.2146 7.60688 11.2196 7.60392 11.2245 7.60095C11.2255 7.60787 11.2255 7.61378 11.2245 7.61971C11.2245 7.62465 11.2215 7.62762 11.2196 7.63157C11.2196 7.63256 11.2176 7.63453 11.2176 7.63552V7.63651Z" fill="#404A5A"/>
<path d="M11.3727 7.42818C11.3727 7.42818 11.3707 7.42818 11.3707 7.42917C11.3697 7.42917 11.3677 7.42917 11.3667 7.42917C11.3658 7.42917 11.3648 7.42917 11.3628 7.42917C11.3677 7.42324 11.3727 7.41633 11.3776 7.4104C11.3776 7.41238 11.3776 7.41336 11.3776 7.41534C11.3776 7.42028 11.3756 7.42324 11.3717 7.4262L11.3727 7.42818Z" fill="#215CB5"/>
<path d="M11.4526 7.30666C11.4526 7.30172 11.4566 7.29777 11.4605 7.2958C11.4625 7.2958 11.4645 7.29481 11.4665 7.29382C11.4665 7.29679 11.4655 7.29777 11.4645 7.29975C11.4645 7.30172 11.4645 7.3037 11.4625 7.30568C11.4625 7.30666 11.4605 7.30765 11.4596 7.30864C11.4576 7.30963 11.4546 7.31061 11.4526 7.3116C11.4526 7.30963 11.4526 7.30864 11.4526 7.30666Z" fill="#215CB5"/>
<path d="M18.4644 1.71162C18.4831 1.70371 18.495 1.71162 18.5058 1.72643C18.489 1.73038 18.4713 1.73433 18.4644 1.7126V1.71162Z" fill="#FEC35E"/>
<path d="M18.4634 1.71167H18.4644L18.4634 1.71266V1.71167Z" fill="#FDBF41"/>
<path d="M13.7837 4.81976C13.7896 4.81482 13.7946 4.80988 13.8005 4.80396C13.8005 4.80494 13.8005 4.80692 13.8005 4.80791C13.8005 4.81186 13.7985 4.81383 13.7965 4.81679H13.7955C13.7955 4.81679 13.7896 4.81976 13.7837 4.81976Z" fill="#404A5A"/>
<path d="M13.8991 4.70318C13.904 4.70022 13.9099 4.69824 13.9168 4.69824C13.9168 4.70713 13.9149 4.71207 13.9109 4.71404C13.905 4.718 13.8941 4.71503 13.8862 4.71602C13.8902 4.71009 13.8941 4.70614 13.8991 4.70318Z" fill="#404A5A"/>
<path d="M13.9733 4.65385C13.9733 4.65385 13.9713 4.66175 13.9684 4.66472C13.9684 4.66472 13.9664 4.6657 13.9654 4.66669C13.9634 4.66768 13.9605 4.66867 13.9575 4.66867C13.9625 4.66274 13.9684 4.65583 13.9733 4.6499C13.9733 4.65188 13.9733 4.65287 13.9733 4.65484V4.65385Z" fill="#404A5A"/>
<path d="M14.9523 3.87752C14.9523 3.87752 14.9504 3.88147 14.9494 3.88345C14.9464 3.88641 14.9424 3.8874 14.9365 3.8874C14.9415 3.88147 14.9474 3.87653 14.9533 3.87061C14.9533 3.87357 14.9533 3.87554 14.9533 3.87851L14.9523 3.87752Z" fill="#404A5A"/>
<path d="M14.9343 3.88843C14.9343 3.88843 14.9343 3.89139 14.9343 3.89238C14.9343 3.89633 14.9323 3.8983 14.9303 3.89929C14.9283 3.90028 14.9264 3.90028 14.9224 3.89929C14.9214 3.89929 14.9194 3.89929 14.9185 3.89732C14.9244 3.89435 14.9293 3.89139 14.9352 3.88843H14.9343Z" fill="#404A5A"/>
<path d="M20.0264 2.39113C19.5385 2.17384 19.0497 1.95755 18.5618 1.73928C18.542 1.73039 18.5222 1.7373 18.5045 1.72644C18.4877 1.73039 18.4699 1.73434 18.463 1.71261C18.4432 1.7215 18.4245 1.71261 18.4057 1.7057C17.9781 1.5773 17.5405 1.53779 17.0951 1.56051C16.5055 1.59113 15.9405 1.73532 15.3914 1.94767C15.2185 2.01384 15.0487 2.08693 14.8827 2.16495C14.8413 2.18471 14.7998 2.20446 14.7583 2.2252C14.7099 2.2489 14.6615 2.27261 14.6141 2.29829C14.5499 2.33088 14.4867 2.36446 14.4225 2.39903C14.0897 2.58076 13.7667 2.78323 13.4536 3.00051C13.3884 3.04594 13.3232 3.09137 13.259 3.13779L13.2205 3.16545C13.0664 3.27804 12.9153 3.39261 12.7672 3.51113C12.3958 3.80644 12.0393 4.12051 11.6946 4.4494C10.7376 5.36298 9.88719 6.37137 9.10893 7.44002C9.08918 7.46767 9.06943 7.49631 9.04968 7.52397C9.04968 7.52397 9.0477 7.53088 9.04572 7.53286C9.04375 7.53483 9.04079 7.53582 9.03684 7.53681C8.96671 7.63656 8.89758 7.73532 8.82745 7.83508C8.71091 8.001 8.59634 8.16693 8.48375 8.33582C8.37708 8.49582 8.2714 8.65779 8.1677 8.81977C8.08474 8.94816 8.00375 9.07755 7.92375 9.20792C7.85264 9.32446 7.78153 9.44002 7.7114 9.55656C7.61264 9.7215 7.51486 9.8874 7.41807 10.0553C7.36968 10.1393 7.32227 10.2222 7.27486 10.3072C7.26992 10.317 7.26301 10.3259 7.25708 10.3358C7.25708 10.3467 7.25313 10.3556 7.24918 10.3644C7.24523 10.3704 7.24128 10.3773 7.23832 10.3832C7.19387 10.4622 7.15042 10.5422 7.10696 10.6222C6.94301 10.9215 6.78301 11.2237 6.62893 11.5279C6.56375 11.6563 6.49955 11.7857 6.43634 11.9151C6.09461 12.6143 5.77758 13.3244 5.48622 14.0444C5.33116 14.4267 5.184 14.8118 5.04375 15.199C4.96968 15.4044 4.89659 15.6109 4.82647 15.8183C4.69708 16.2015 4.57856 16.5877 4.46301 16.9748C4.4156 17.1338 4.36918 17.2938 4.32474 17.4538C4.32375 17.4578 4.32276 17.4617 4.32177 17.4657C4.25165 17.7165 4.18647 17.9684 4.12523 18.2212C4.06893 18.4484 4.01461 18.6765 3.96424 18.9057C3.92079 19.1012 3.88128 19.2978 3.84177 19.4943C3.83288 19.5407 3.824 19.5872 3.81511 19.6346C3.81116 19.6533 3.80819 19.6721 3.80424 19.6909C3.80326 19.6978 3.80128 19.7047 3.80029 19.7126C3.79338 19.7501 3.78548 19.7867 3.77856 19.8242C3.72227 20.1314 3.6719 20.4395 3.62844 20.7496C3.58597 21.0489 3.54844 21.3472 3.51684 21.6474C3.50992 21.7146 3.504 21.7817 3.49708 21.8489C3.49708 21.8538 3.49609 21.8588 3.49609 21.8637C3.49116 21.9151 3.48819 21.9516 3.48424 21.9881C3.47042 22.1551 3.45856 22.323 3.44869 22.4899C3.43881 22.6578 3.43091 22.8257 3.42597 22.9936C3.42597 23.0153 3.42597 23.037 3.424 23.0588C3.41412 23.3817 3.41214 23.7037 3.42202 24.0257C3.4319 24.3299 3.44869 24.6331 3.47733 24.9363C3.50498 25.2385 3.5435 25.5398 3.59585 25.841C3.62153 25.9881 3.64918 26.1343 3.68079 26.2795C3.78548 26.7694 3.92671 27.2494 4.12029 27.7136C4.13412 27.7462 4.14696 27.7778 4.16177 27.8104C4.1756 27.842 4.19042 27.8746 4.20424 27.9062C4.23782 27.9812 4.27338 28.0553 4.30992 28.1284C4.37116 28.2509 4.43634 28.3704 4.50548 28.4869C4.69511 28.8069 4.91832 29.1042 5.18301 29.3728C5.25214 29.4439 5.32424 29.5111 5.39832 29.5753C5.53758 29.6968 5.68572 29.8084 5.84375 29.9081C5.87338 29.9269 5.90795 29.9378 5.92967 29.9664C5.93264 29.9704 5.9356 29.9753 5.93758 29.9802C5.95239 29.9773 5.96326 29.9802 5.96721 29.996C6.02844 30.0109 6.07782 30.0523 6.13412 30.077C6.43437 30.2104 6.73363 30.3437 7.03387 30.477C7.20474 30.5531 7.37659 30.6272 7.54844 30.7022L7.57017 30.6825C7.51486 30.6479 7.45758 30.6153 7.40424 30.5788C7.34795 30.5402 7.29461 30.4998 7.24128 30.4583C6.79387 30.1106 6.44326 29.677 6.15585 29.1862C5.98103 28.8879 5.83881 28.5748 5.71634 28.2528C5.71338 28.2449 5.71042 28.238 5.70745 28.2301C5.5435 27.7946 5.424 27.3462 5.33412 26.8899C5.28572 26.6459 5.24721 26.4 5.21363 26.1531C5.21165 26.1353 5.20869 26.1185 5.20671 26.1007C5.19091 25.9793 5.17708 25.8568 5.16424 25.7353C5.14548 25.5556 5.13165 25.3768 5.12177 25.196C5.1198 25.1516 5.11684 25.1072 5.11486 25.0627C5.11486 25.0518 5.11387 25.04 5.11288 25.0291C5.104 24.7802 5.09511 24.5314 5.09609 24.2825C5.09609 24.2686 5.09609 24.2548 5.09609 24.242C5.09609 24.1975 5.09609 24.1531 5.09807 24.1086C5.104 23.9131 5.10992 23.7185 5.11782 23.5239C5.12177 23.4262 5.12671 23.3294 5.13264 23.2316C5.13856 23.1338 5.14449 23.037 5.1514 22.9393C5.17708 22.5985 5.21165 22.2597 5.25313 21.921C5.26795 21.7975 5.28375 21.6751 5.30153 21.5516C5.32029 21.4143 5.34103 21.277 5.36276 21.1407C5.37955 21.0331 5.39733 20.9254 5.41609 20.8178C5.43684 20.6953 5.45955 20.5738 5.48227 20.4514C5.51091 20.2973 5.54153 20.1442 5.57313 19.9901C5.60967 19.8153 5.64721 19.6395 5.68671 19.4657C5.72227 19.3106 5.75881 19.1556 5.79733 19.0005C5.8398 18.8296 5.88326 18.6588 5.92869 18.4889C5.93955 18.4494 5.9514 18.4099 5.96326 18.3704C5.97511 18.3309 5.98696 18.2914 5.99684 18.2518C6.01758 18.1689 6.03437 18.0859 6.064 18.0049C6.07091 17.996 6.08177 17.9872 6.08276 17.9773C6.10646 17.7817 6.17659 17.599 6.23684 17.4153C6.2635 17.3333 6.28918 17.2504 6.31486 17.1674C6.35042 17.0518 6.38597 16.9363 6.42251 16.8207C6.45214 16.7259 6.48276 16.6311 6.51535 16.5373C6.52819 16.5007 6.54005 16.4632 6.55288 16.4257C6.56967 16.3783 6.58647 16.3309 6.60326 16.2835C6.67437 16.0859 6.7435 15.8874 6.8156 15.6899C6.84523 15.6089 6.87585 15.5269 6.90647 15.4459C7.01214 15.1684 7.12079 14.8928 7.23338 14.6193C7.26498 14.5412 7.29758 14.4642 7.33017 14.3872C7.35684 14.3249 7.38251 14.2637 7.40819 14.2015C7.4714 14.0553 7.5356 13.9091 7.5998 13.763C7.65017 13.6484 7.70153 13.5348 7.75387 13.4202C7.79338 13.3323 7.83387 13.2464 7.87437 13.1585C7.98301 12.9254 8.09363 12.6943 8.20918 12.4642C8.22893 12.4237 8.25264 12.3852 8.27535 12.3467C8.29807 12.3081 8.32079 12.2686 8.34054 12.2272C8.67634 11.5151 9.07042 10.8346 9.47634 10.161C9.51289 10.1007 9.54844 10.0405 9.58498 9.98024C9.66992 9.84002 9.75091 9.69779 9.84671 9.56644C9.90694 9.48446 9.96225 9.4015 10.0176 9.31656C10.0729 9.23261 10.1272 9.14767 10.1835 9.06471C10.2981 8.89878 10.4047 8.72693 10.5183 8.56002C10.5331 8.53829 10.5479 8.51656 10.5627 8.49483C10.6388 8.3852 10.7178 8.27755 10.7948 8.1689C10.7948 8.16792 10.7948 8.16693 10.7948 8.16594V8.16298C10.7948 8.16298 10.8008 8.15705 10.8037 8.15508C10.8057 8.15508 10.8077 8.1531 10.8097 8.1531C10.9213 8.00298 11.0329 7.85187 11.1445 7.70174C11.1494 7.69483 11.1553 7.6889 11.1603 7.68298C11.1632 7.68002 11.1652 7.67705 11.1672 7.67508C11.1741 7.66718 11.181 7.66026 11.1879 7.65236C11.1879 7.64841 11.1879 7.64545 11.1879 7.64249C11.1879 7.63952 11.1879 7.63656 11.1889 7.63458C11.1909 7.62866 11.1929 7.62471 11.1958 7.62076C11.1988 7.61681 11.2037 7.61384 11.2077 7.60989C11.2126 7.60693 11.2176 7.60397 11.2225 7.601C11.2255 7.59804 11.2274 7.59508 11.2294 7.59211C11.2729 7.53779 11.3173 7.48347 11.3608 7.42915C11.3657 7.42323 11.3706 7.41631 11.3756 7.41039C11.3756 7.40644 11.3776 7.40347 11.3795 7.39952C11.3805 7.39656 11.3825 7.39261 11.3845 7.38965C11.3884 7.38372 11.3934 7.37779 11.3983 7.37286C11.3983 7.37187 11.4003 7.37088 11.4013 7.36989C11.42 7.35211 11.4437 7.3373 11.4487 7.31063C11.4487 7.30866 11.4487 7.30767 11.4487 7.30569C11.4487 7.30076 11.4526 7.29681 11.4566 7.29483C11.4585 7.29483 11.4605 7.29384 11.4625 7.29286C11.4753 7.28298 11.4872 7.2731 11.4971 7.26125C11.5 7.25829 11.502 7.25532 11.504 7.25335C11.5119 7.24446 11.5188 7.23458 11.5257 7.22471C11.5346 7.21187 11.5435 7.19804 11.5524 7.18421C11.5593 7.17434 11.5662 7.16347 11.5731 7.1536C11.5781 7.14668 11.583 7.13977 11.5879 7.13384C11.6215 7.09236 11.6561 7.05088 11.6897 7.01039C11.9267 6.721 12.1706 6.43853 12.4215 6.16199C12.618 5.94471 12.8215 5.73434 13.0269 5.52594C13.0625 5.4894 13.099 5.45286 13.1346 5.4173C13.2018 5.35014 13.2719 5.28792 13.341 5.22372C13.3687 5.19804 13.3963 5.17335 13.423 5.14668C13.4289 5.14174 13.4339 5.13582 13.4398 5.13088C13.5257 5.04792 13.6136 4.96495 13.7005 4.88298C13.7025 4.881 13.7045 4.88002 13.7064 4.87804C13.7292 4.8573 13.7548 4.83853 13.7785 4.81977C13.7845 4.81483 13.7894 4.80989 13.7953 4.80397C13.7973 4.80199 13.7983 4.801 13.8003 4.79903C13.8269 4.77137 13.8546 4.74471 13.8813 4.71705C13.8852 4.71113 13.8892 4.70718 13.8941 4.70421C13.899 4.70125 13.905 4.69928 13.9119 4.69928C13.9198 4.69829 13.9267 4.69434 13.9326 4.69039C13.9366 4.68742 13.9405 4.68347 13.9445 4.67952C13.9474 4.67656 13.9494 4.67261 13.9524 4.66866C13.9573 4.66273 13.9632 4.65582 13.9682 4.64989C14.0383 4.58767 14.1084 4.52644 14.1805 4.46619C14.1914 4.4573 14.2022 4.44841 14.2131 4.43853C14.2822 4.38026 14.3524 4.32298 14.4235 4.2657C14.5825 4.13829 14.7464 4.01483 14.9134 3.89829C14.9193 3.89532 14.9242 3.89236 14.9301 3.8894H14.9311C14.9361 3.88249 14.942 3.87656 14.9479 3.87162C14.9855 3.84397 15.024 3.81532 15.0615 3.78866C15.1376 3.73335 15.2156 3.68002 15.2926 3.62767C15.3311 3.60199 15.3706 3.57532 15.4101 3.55063C15.4497 3.52495 15.4892 3.49928 15.5287 3.47458C15.6482 3.39952 15.7687 3.32644 15.8911 3.25631C16.0245 3.17928 16.1608 3.1052 16.2971 3.03409C16.7079 2.82273 17.1326 2.64397 17.5771 2.51162C17.6106 2.50174 17.6452 2.49187 17.6788 2.48199C17.9158 2.41582 18.1539 2.36545 18.3958 2.33286C18.5331 2.31409 18.6724 2.30125 18.8116 2.29532C18.9163 2.29039 19.021 2.2894 19.1267 2.29236C19.1622 2.29335 19.1968 2.29434 19.2324 2.29631C19.338 2.30224 19.4427 2.3131 19.5474 2.32792C19.6926 2.34767 19.8358 2.37532 19.979 2.41187C19.983 2.41088 19.986 2.40989 19.9899 2.41187C19.9939 2.41187 19.9968 2.41483 19.9988 2.41779C20.0018 2.41878 20.0057 2.41977 20.0087 2.42076C20.0156 2.42273 20.0215 2.42471 20.0284 2.42767C20.0284 2.41779 20.0294 2.40792 20.0304 2.39804C20.0284 2.39607 20.0264 2.39409 20.0235 2.3931L20.0264 2.39113Z" fill="#F1ECE2"/>
<path d="M18.4643 1.71155C18.4574 1.68094 18.4278 1.67797 18.4061 1.6681C17.9853 1.48143 17.5646 1.29377 17.1419 1.10908C17.0293 1.0597 16.9206 1.00242 16.8041 0.962907C16.7912 0.970808 16.7774 0.969819 16.7636 0.964881C16.4742 0.870066 16.174 0.82266 15.8717 0.803894C15.5942 0.787104 15.3157 0.803894 15.0401 0.840437C14.813 0.871055 14.5898 0.918462 14.3685 0.977721C13.9389 1.09328 13.5261 1.25032 13.128 1.44686C12.9749 1.52291 12.8268 1.60884 12.6757 1.68884C12.6253 1.7155 12.573 1.73921 12.5246 1.76785C12.092 2.02563 11.6722 2.30316 11.2742 2.61229C11.1745 2.68933 11.0727 2.76439 10.9799 2.84834C10.9196 2.90266 10.8614 2.95797 10.7962 3.00538C10.7843 3.01427 10.7715 3.02316 10.7567 3.03205C10.7458 3.04192 10.7349 3.05081 10.7241 3.0597V3.06168C10.7191 3.07452 10.7142 3.08637 10.7063 3.09328C10.7014 3.09723 10.6964 3.09921 10.6905 3.10019C10.6875 3.10019 10.6836 3.10019 10.6806 3.10019H10.6786C10.6786 3.10019 10.6727 3.09822 10.6688 3.09723C10.6658 3.09921 10.6628 3.10118 10.6609 3.10316C10.6263 3.12785 10.6075 3.17032 10.5759 3.19501C10.571 3.19896 10.5661 3.20192 10.5611 3.20489C10.4782 3.24834 10.4278 3.32637 10.3537 3.3797C10.2826 3.43106 10.2233 3.49921 10.1582 3.55945C9.83517 3.85674 9.52999 4.1718 9.22776 4.48982C9.13492 4.5876 9.05196 4.69228 8.96307 4.79401C8.91172 4.85228 8.85443 4.90365 8.80406 4.96094C8.66678 5.11797 8.53344 5.27896 8.39813 5.43698C8.29739 5.55452 8.20258 5.676 8.1127 5.80143C8.04159 5.90118 7.95665 5.99007 7.8806 6.08587C7.65048 6.38118 7.43221 6.68537 7.21394 6.98858C6.99863 7.28784 6.8011 7.59896 6.59665 7.90612C6.41295 8.18168 6.24406 8.46711 6.06925 8.74958C6.00505 8.85427 5.94776 8.96291 5.88258 9.0676C5.77097 9.24736 5.66727 9.43204 5.56949 9.61969C5.50826 9.69278 5.47171 9.78168 5.42529 9.86365C5.3285 10.0355 5.23567 10.2093 5.15171 10.3881C5.12505 10.4454 5.08653 10.4938 5.05887 10.5511C4.98085 10.7101 4.90184 10.8691 4.81986 11.0271C4.61542 11.4242 4.43566 11.8321 4.249 12.238C4.04653 12.6765 3.86678 13.1259 3.689 13.5753C3.5685 13.8805 3.44702 14.1856 3.35122 14.4997C3.33542 14.5511 3.30579 14.5975 3.28801 14.6479C3.19517 14.9185 3.10233 15.1881 3.01443 15.4597C2.93246 15.7096 2.85542 15.9614 2.78134 16.2133C2.71023 16.4563 2.64208 16.6992 2.5769 16.9432C2.44949 17.4163 2.33295 17.8923 2.2332 18.3713C2.20752 18.4987 2.18184 18.6261 2.15715 18.7535C2.07221 19.1871 1.99715 19.6237 1.93591 20.0622C1.87863 20.479 1.83122 20.8967 1.79369 21.3155C1.79073 21.354 1.78776 21.3926 1.7848 21.4311C1.7848 21.4666 1.7848 21.5022 1.7848 21.5377C1.7848 21.5022 1.7848 21.4666 1.7848 21.4311C1.76702 21.6602 1.7532 21.8903 1.74431 22.1214C1.73344 22.3851 1.73147 22.6488 1.72949 22.9126C1.72949 23.038 1.74233 23.1644 1.74134 23.2908C1.73937 23.4834 1.75616 23.675 1.76702 23.8666C1.77097 23.9367 1.77394 24.0079 1.78085 24.079C1.78184 24.0908 1.78381 24.1037 1.7848 24.1155C1.80752 24.3002 1.82233 24.4859 1.84801 24.6696C1.8727 24.8484 1.89739 25.0271 1.92999 25.2039C1.97739 25.4508 2.02184 25.6977 2.09789 25.9377C2.12159 26.0128 2.13443 26.0918 2.15616 26.1688C2.20159 26.3367 2.25591 26.5027 2.31517 26.6656C2.4011 26.8997 2.49986 27.1288 2.60653 27.354C2.77147 27.6997 2.97591 28.0217 3.21591 28.32C3.44307 28.6034 3.70283 28.8533 4.00011 29.0627C4.01196 29.0716 4.0248 29.0795 4.03764 29.0874C4.05937 29.1012 4.0811 29.115 4.10283 29.1288C4.11468 29.1367 4.12752 29.1447 4.14036 29.1526C4.18184 29.1782 4.22233 29.2049 4.26184 29.2335C4.26184 29.2335 4.26283 29.2335 4.26381 29.2345C4.27567 29.2434 4.28752 29.2523 4.29937 29.2622C4.29937 29.2642 4.30134 29.2661 4.30233 29.2681C4.30925 29.278 4.32307 29.279 4.33394 29.2839C4.84752 29.5111 5.36011 29.7382 5.87369 29.9654C5.89443 29.9743 5.91418 29.9881 5.93887 29.9822C5.93591 29.9772 5.93394 29.9733 5.93097 29.9684C5.90925 29.9397 5.87468 29.9288 5.84505 29.9101C5.68801 29.8103 5.53887 29.6987 5.39962 29.5772C5.32554 29.513 5.25344 29.4449 5.18431 29.3748C4.91962 29.1061 4.69641 28.8079 4.50678 28.4888C4.43764 28.3723 4.37246 28.2528 4.31122 28.1303C4.27468 28.0572 4.23912 27.9832 4.20554 27.9081C4.19073 27.8755 4.1769 27.8439 4.16307 27.8113C4.14925 27.7787 4.13542 27.7471 4.12159 27.7145C3.92801 27.2503 3.78776 26.7703 3.68208 26.2805C3.65048 26.1353 3.62283 25.9891 3.59715 25.8419C3.54579 25.5417 3.50727 25.2405 3.47863 24.9372C3.44999 24.635 3.4332 24.3308 3.42332 24.0266C3.41344 23.7046 3.41542 23.3817 3.42529 23.0597C3.42628 23.038 3.42628 23.0163 3.42727 22.9945C3.4332 22.8266 3.4411 22.6587 3.44999 22.4908C3.45986 22.3239 3.47171 22.156 3.48554 21.9891C3.4885 21.9526 3.49246 21.916 3.49739 21.8646C3.49739 21.8597 3.49838 21.8548 3.49838 21.8498C3.50431 21.7827 3.51023 21.7155 3.51813 21.6484C3.54875 21.3481 3.58727 21.0488 3.62974 20.7506C3.67418 20.4405 3.72455 20.1323 3.77986 19.8251C3.78678 19.7876 3.79468 19.7511 3.80159 19.7135C3.80258 19.7066 3.80455 19.6997 3.80554 19.6918C3.80949 19.673 3.81246 19.6543 3.81641 19.6355C3.82529 19.5881 3.83418 19.5417 3.84307 19.4953C3.88159 19.2987 3.92208 19.1022 3.96554 18.9066C4.01591 18.6775 4.07023 18.4493 4.12653 18.2222C4.18875 17.9693 4.25394 17.7175 4.32307 17.4666C4.32307 17.4627 4.32505 17.4587 4.32604 17.4548C4.37048 17.2948 4.4169 17.1348 4.46431 16.9758C4.57986 16.5886 4.69937 16.2024 4.82776 15.8192C4.89789 15.6118 4.97097 15.4054 5.04505 15.2C5.18529 14.8118 5.33246 14.4266 5.48752 14.0454C5.77887 13.3254 6.09492 12.6153 6.43764 11.916C6.50085 11.7866 6.56505 11.6572 6.63023 11.5288C6.78431 11.2246 6.94431 10.9224 7.10826 10.6232C7.15171 10.5432 7.19616 10.4632 7.23962 10.3842C7.24357 10.3782 7.24752 10.3713 7.25048 10.3654C7.25542 10.3565 7.25937 10.3476 7.25838 10.3367C7.26431 10.3269 7.27122 10.317 7.27616 10.3081C7.32357 10.2242 7.37097 10.1402 7.41937 10.0563C7.51616 9.88934 7.61295 9.7234 7.7127 9.55748C7.78283 9.44094 7.85394 9.32439 7.92505 9.20884C8.00505 9.07847 8.08604 8.94908 8.169 8.82069C8.2727 8.65871 8.37838 8.49674 8.48505 8.33674C8.59764 8.16785 8.71221 8.00192 8.82875 7.836C8.89789 7.73624 8.96801 7.63748 9.03813 7.53773C9.03813 7.53575 9.03813 7.53377 9.03813 7.53179C9.03813 7.5308 9.03912 7.52884 9.04011 7.52785C9.04209 7.52489 9.04603 7.52389 9.04999 7.52389C9.06974 7.49623 9.0885 7.4676 9.10925 7.43995C9.88754 6.37131 10.7379 5.3639 11.6949 4.44933C12.0396 4.12044 12.3952 3.80637 12.7675 3.51106C12.9157 3.39254 13.0668 3.27797 13.2209 3.16538L13.2594 3.13773C13.3236 3.09131 13.3888 3.04587 13.454 3.00044C13.768 2.78316 14.09 2.58069 14.4228 2.39896C14.4861 2.36439 14.5503 2.33081 14.6145 2.29822C14.6628 2.27353 14.7103 2.24884 14.7586 2.22513C14.8001 2.20439 14.8416 2.18464 14.8831 2.16489C15.05 2.08686 15.2189 2.01377 15.3917 1.9476C15.9409 1.73624 16.5058 1.59205 17.0954 1.56044C17.5399 1.53674 17.9774 1.57624 18.4061 1.70563C18.4248 1.71155 18.4436 1.72044 18.4633 1.71254C18.4633 1.71254 18.4633 1.71155 18.4633 1.71254L18.4643 1.71155ZM1.77789 23.5377C1.77789 23.5466 1.77789 23.5565 1.77789 23.5654C1.77789 23.5565 1.77789 23.5466 1.77789 23.5377Z" fill="#FDBF41"/>
<path d="M9.04007 7.5269C9.04007 7.5269 9.046 7.52295 9.04995 7.52295C9.04995 7.5269 9.04797 7.52986 9.046 7.53184C9.04402 7.53381 9.04106 7.5348 9.03711 7.53579C9.03711 7.53381 9.03711 7.53184 9.03711 7.52986C9.03711 7.52888 9.0381 7.5269 9.03908 7.52591L9.04007 7.5269Z" fill="#C18B00"/>
<path d="M10.6774 3.06959C10.6833 3.06268 10.6902 3.05873 10.7001 3.05774C10.706 3.05774 10.7139 3.05774 10.7218 3.05971V3.06169C10.7169 3.07453 10.7119 3.08638 10.704 3.09329C10.6991 3.09725 10.6942 3.09922 10.6882 3.10021C10.6853 3.10021 10.6813 3.10021 10.6784 3.10021H10.6764C10.6764 3.10021 10.6705 3.09823 10.6665 3.09725C10.6685 3.08539 10.6724 3.07552 10.6784 3.06959H10.6774Z" fill="#C18B00"/>
<path d="M16.711 0.922547C16.3288 0.751682 15.9456 0.585758 15.5653 0.412918C15.1298 0.2144 14.6774 0.0919299 14.1984 0.0692139C14.0779 0.0692139 13.9564 0.0692141 13.8359 0.0702017C13.7885 0.0702017 13.7411 0.0702017 13.6947 0.0702017C13.4537 0.0830412 13.2157 0.118597 12.9796 0.168967C12.2833 0.317116 11.6354 0.589708 11.0142 0.931437C10.389 1.27514 9.80829 1.686 9.25619 2.13637C9.18607 2.19366 9.11002 2.246 9.04878 2.31514C9.04384 2.31712 9.03891 2.32107 9.03594 2.326V2.33193C9.03594 2.33193 9.03397 2.33193 9.03298 2.33193C9.031 2.33193 9.03002 2.33193 9.03002 2.33193C9.01421 2.34477 8.99841 2.35662 8.98261 2.36946C8.37125 2.89292 7.80335 3.46082 7.26607 4.06033C6.62804 4.77341 6.0394 5.526 5.48928 6.30823C4.66952 7.47366 3.9436 8.69638 3.29668 9.96549C2.86014 10.8208 2.4631 11.6949 2.10557 12.5867C1.73323 13.5171 1.3915 14.4593 1.11693 15.4243C1.08631 15.5309 1.04878 15.6366 1.01816 15.7433C0.792979 16.5383 0.598411 17.3403 0.445324 18.1522C0.314954 18.8406 0.21125 19.5319 0.143102 20.2292C0.0927313 20.7349 0.0581638 21.2415 0.0601391 21.7502C0.0601391 21.9813 0.0611264 22.2124 0.0621141 22.4435C0.0650771 22.4751 0.066065 22.5067 0.0670527 22.5383C0.0680403 22.5877 0.067053 22.6361 0.0650777 22.6855C0.067053 22.967 0.0907566 23.2465 0.117423 23.527C0.161867 23.9843 0.231003 24.4366 0.332732 24.884C0.459151 25.445 0.631991 25.9892 0.877917 26.5097C1.14162 27.0667 1.47644 27.5734 1.92878 27.9971C2.19249 28.244 2.48286 28.4524 2.80977 28.6055C3.10014 28.7418 3.39446 28.8692 3.68878 28.9986C3.89026 29.0875 4.08977 29.1833 4.2952 29.2623C4.28335 29.2534 4.2715 29.2435 4.25965 29.2346C4.25965 29.2346 4.25866 29.2346 4.25767 29.2336C4.21816 29.205 4.17767 29.1783 4.13619 29.1527C4.12335 29.1448 4.1115 29.1368 4.09866 29.1289C4.07693 29.1151 4.0552 29.1023 4.03347 29.0875C4.02063 29.0796 4.00878 29.0707 3.99594 29.0628C3.69866 28.8524 3.43989 28.6035 3.21174 28.3201C2.97174 28.0218 2.7673 27.6998 2.60236 27.3541C2.49471 27.1289 2.39594 26.8998 2.311 26.6657C2.28829 26.645 2.26656 26.6233 2.24483 26.6015C2.26656 26.6233 2.28829 26.645 2.311 26.6657C2.25175 26.5028 2.19742 26.3368 2.15199 26.1689C2.13125 26.0929 2.11742 26.0139 2.09372 25.9378C2.01767 25.6978 1.97224 25.4509 1.92582 25.204C1.89224 25.0272 1.86854 24.8485 1.84384 24.6697C1.81816 24.486 1.80236 24.3003 1.78063 24.1156C1.77965 24.1038 1.77767 24.0909 1.77668 24.0791C1.77668 24.3151 1.77668 24.5512 1.77668 24.7872C1.77668 24.5512 1.77668 24.3151 1.77668 24.0791C1.76977 24.0089 1.76681 23.9378 1.76286 23.8667C1.75298 23.6751 1.73619 23.4835 1.73718 23.2909C1.73718 23.1655 1.72434 23.0391 1.72533 22.9127C1.7273 22.6489 1.73026 22.3852 1.74014 22.1215C1.74903 21.8914 1.76286 21.6613 1.78063 21.4312C1.7836 21.3927 1.78656 21.3541 1.78952 21.3156C1.82705 20.8968 1.87446 20.4791 1.93175 20.0623C1.99298 19.6238 2.06804 19.1872 2.15298 18.7536C2.17767 18.6262 2.20335 18.4988 2.22903 18.3714C2.32779 17.8914 2.44533 17.4164 2.57273 16.9433C2.63792 16.6993 2.70607 16.4554 2.77718 16.2134C2.85125 15.9606 2.92829 15.7097 3.01026 15.4598C3.09915 15.1882 3.19199 14.9176 3.28384 14.648C3.30063 14.5966 3.33125 14.5502 3.34705 14.4998C3.44384 14.1857 3.56434 13.8806 3.68483 13.5754C3.86261 13.126 4.04236 12.6776 4.24483 12.2381C4.4315 11.8331 4.61125 11.4243 4.8157 11.0272C4.89668 10.8692 4.97668 10.7102 5.05471 10.5512C5.08236 10.4949 5.12187 10.4455 5.14755 10.3882C5.2315 10.2094 5.32434 10.0356 5.42113 9.86378C5.46755 9.78181 5.50409 9.69292 5.56533 9.61983C5.6631 9.43218 5.76681 9.24749 5.87841 9.06773C5.9436 8.96403 6.00088 8.8544 6.06508 8.74971C6.23891 8.46724 6.40779 8.18279 6.59249 7.90625C6.79693 7.59909 6.99446 7.28798 7.20977 6.98872C7.42804 6.68551 7.64631 6.38131 7.87644 6.086C7.9515 5.98921 8.03644 5.90131 8.10853 5.80156C8.19841 5.67613 8.29323 5.55465 8.39397 5.43712C8.52928 5.2781 8.66261 5.11712 8.79989 4.96107C8.85026 4.90378 8.90755 4.85242 8.95891 4.79415C9.04779 4.69341 9.13076 4.58773 9.2236 4.48996C9.52582 4.17193 9.831 3.85687 10.1539 3.55958C10.2191 3.49934 10.2784 3.43119 10.3495 3.37983C10.4236 3.3265 10.473 3.24847 10.5569 3.20502C10.5618 3.20205 10.5678 3.19909 10.5717 3.19514C10.6033 3.17045 10.6221 3.12798 10.6567 3.10329C10.6596 3.10131 10.6626 3.09934 10.6646 3.09736C10.6665 3.08551 10.6705 3.07563 10.6764 3.06971C10.6823 3.06279 10.6893 3.05884 10.6991 3.05786C10.7051 3.05786 10.713 3.05786 10.7209 3.05983C10.7317 3.05094 10.7426 3.04107 10.7535 3.03218C10.7683 3.0223 10.7801 3.0144 10.793 3.00551C10.8581 2.9581 10.9164 2.90378 10.9767 2.84847C11.0695 2.76354 11.1722 2.68946 11.271 2.61242C11.669 2.30329 12.0888 2.02576 12.5214 1.76798C12.5707 1.73934 12.6221 1.71563 12.6725 1.68897C12.8236 1.60798 12.9717 1.52205 13.1248 1.44699C13.5228 1.25045 13.9367 1.09341 14.3653 0.977856C14.5865 0.918597 14.8098 0.872177 15.0369 0.840572C15.3125 0.803041 15.591 0.787239 15.8685 0.804029C16.1717 0.822795 16.471 0.870202 16.7604 0.965017C16.7752 0.969955 16.788 0.970943 16.8009 0.963042C16.7762 0.936375 16.7386 0.936374 16.708 0.922547H16.711Z" fill="#FF1100"/>
<path d="M10.6886 2.95904C10.6886 2.95904 10.6836 2.95509 10.6816 2.9541C10.6846 2.95608 10.6866 2.95706 10.6886 2.95904Z" fill="#FF1100"/>
<path d="M10.6372 2.92737C10.6481 2.93231 10.6579 2.93823 10.6678 2.94416C10.6579 2.93823 10.6481 2.93231 10.6372 2.92737Z" fill="#FF1100"/>
<path d="M14.1986 0.0680707H13.8361C13.7887 0.0700461 13.7413 0.0700458 13.6949 0.0700458C13.6929 0.0641198 13.69 0.0581938 13.688 0.0522679C13.8598 0.0522679 14.0327 0.0522683 14.2045 0.050293C14.2026 0.0562189 14.2006 0.0621448 14.1986 0.0680707Z" fill="#FEC35E"/>
<path d="M9.03324 2.33283H9.03027V2.3269H9.03719V2.33382C9.03719 2.33382 9.03521 2.33382 9.03422 2.33382L9.03324 2.33283Z" fill="#C18B00"/>
<path opacity="0.48" d="M29.9883 24.7012C30.0376 24.6627 30.0376 24.6587 29.9883 24.6202C29.8737 24.5284 29.7512 24.4484 29.6258 24.3723C29.207 24.1185 28.7596 23.9249 28.3014 23.757C28.1967 23.7185 28.0949 23.6721 27.9833 23.6523C27.9527 23.6177 27.9073 23.6148 27.8678 23.6019C27.4401 23.4597 27.0046 23.3432 26.568 23.2316C26.5315 23.2286 26.4959 23.2207 26.4643 23.2029C26.2599 23.1585 26.0554 23.113 25.852 23.0686C25.4737 22.9866 25.0935 22.9155 24.7122 22.8513C24.4297 22.8039 24.1463 22.7595 23.8628 22.717C23.6416 22.6844 23.4204 22.6508 23.1972 22.635C23.1606 22.6291 23.1241 22.6222 23.0865 22.6172C22.3053 22.5214 21.5231 22.4493 20.7379 22.395C20.2253 22.3605 19.7127 22.3328 19.1991 22.313C18.5285 22.2874 17.8569 22.2755 17.1853 22.2755C16.3527 22.2755 15.5211 22.2963 14.6905 22.3367C13.7305 22.3832 12.7725 22.4563 11.8174 22.5629C11.6614 22.5807 11.5033 22.5906 11.3493 22.6242C11.3176 22.6153 11.287 22.6242 11.2554 22.6271C10.5749 22.7111 9.8974 22.8148 9.22384 22.9422C8.82582 23.0172 8.42977 23.1002 8.03668 23.194L8.02878 23.2069C8.02878 23.2069 7.92705 24.6706 8.15224 26.0997C8.54038 26.1916 8.93051 26.2735 9.32162 26.3466C9.67125 26.4118 10.0218 26.474 10.3744 26.5244C10.8683 26.5955 11.3631 26.6676 11.8599 26.719C12.3428 26.7693 12.8248 26.8217 13.3088 26.8572C13.5952 26.878 13.8806 26.9027 14.167 26.9195C14.5907 26.9442 15.0154 26.9649 15.4391 26.9797C15.8263 26.9935 16.2135 27.0044 16.6006 27.0093C17.2199 27.0172 17.8401 27.0143 18.4594 27.0014C19.0559 26.9886 19.6525 26.9659 20.248 26.9323C20.9581 26.8928 21.6673 26.8365 22.3754 26.7634C23.4549 26.6518 24.5285 26.5017 25.5922 26.2893C26.5216 26.1037 27.4401 25.8765 28.331 25.5486C28.7191 25.4064 29.0994 25.2434 29.4609 25.0419C29.6446 24.9402 29.8223 24.8296 29.9883 24.7002V24.7012Z" fill="url(#paint0_linear_311_2)"/>
</g>
<defs>
<linearGradient id="paint0_linear_311_2" x1="19.0641" y1="22.8196" x2="18.9269" y2="26.3625" gradientUnits="userSpaceOnUse">
<stop offset="0.16" stop-color="#191919"/>
<stop offset="0.97" stop-color="#191919" stop-opacity="0"/>
</linearGradient>
<clipPath id="clip0_311_2">
<rect width="32.7901" height="32" fill="white"/>
</clipPath>
</defs>
</svg>
