<svg width="45" height="44" viewBox="0 0 45 44" fill="none" xmlns="http://www.w3.org/2000/svg">
<g clip-path="url(#clip0_311_2)">
<path d="M41.1315 33.9194C41.103 33.9411 41.0745 33.9642 41.0447 33.9845C41.0163 34.0062 40.9864 34.0265 40.9566 34.0482C40.901 34.0875 40.8441 34.1254 40.7858 34.162C40.7791 34.1661 40.7723 34.1702 40.7655 34.1756C40.7181 34.2054 40.6706 34.2352 40.6218 34.2637C40.55 34.3071 40.4795 34.3477 40.4063 34.3884C39.9102 34.6649 39.3884 34.8872 38.8557 35.0837C38.3528 35.2681 37.8432 35.4294 37.3295 35.573C36.5935 35.7791 35.848 35.9498 35.0958 36.0989C34.3652 36.2453 33.6319 36.3687 32.8959 36.4757C32.1599 36.5828 31.4212 36.6723 30.6812 36.7495C30.4385 36.7753 30.1959 36.7983 29.9533 36.8214C29.4667 36.8661 28.9801 36.9041 28.4935 36.9366C28.2495 36.9529 28.0056 36.9678 27.7629 36.9813C27.2167 37.0125 26.6705 37.0355 26.1242 37.0532C26.0253 37.0559 25.9263 37.0599 25.826 37.0626C25.7352 37.0654 25.6444 37.0681 25.5522 37.0708C25.7759 36.7943 25.9995 36.5191 26.2042 36.2277C26.234 36.1911 26.2638 36.1545 26.2923 36.1166C26.7545 35.4958 27.1964 34.8614 27.6193 34.2149C27.6626 34.2122 27.706 34.2108 27.748 34.2081C28.0164 34.1932 28.2848 34.1756 28.5531 34.158C28.7565 34.1444 28.9598 34.1295 29.1631 34.1133C30.5849 34.0035 32.0013 33.8462 33.411 33.6253C33.8217 33.5616 34.2297 33.4911 34.6363 33.4166C35.5878 33.2404 36.5312 33.0289 37.461 32.7633C37.6656 32.705 37.869 32.644 38.0723 32.5803C38.1739 32.5477 38.2756 32.5152 38.3772 32.4813C38.5304 32.5084 38.67 32.5721 38.8137 32.625C38.9397 32.6711 39.0658 32.7199 39.1919 32.77C39.5483 32.911 39.898 33.0669 40.2369 33.2471C40.3711 33.3176 40.5025 33.3922 40.6327 33.4708C40.8048 33.5751 40.9729 33.6849 41.1301 33.811C41.1762 33.8476 41.1897 33.8625 41.1721 33.8842C41.164 33.895 41.1504 33.9059 41.1288 33.9221L41.1315 33.9194Z" fill="#F1ECE2"/>
<path d="M27.9542 40.4675C27.9257 40.4851 27.8946 40.4851 27.8647 40.4743C27.8729 40.4688 27.8797 40.4661 27.8864 40.4634C27.8986 40.4594 27.9095 40.4594 27.9217 40.4594C27.9325 40.4594 27.9447 40.4621 27.9556 40.4675H27.9542Z" fill="#5E93FF"/>
<path d="M27.8337 40.4742C27.7971 40.4905 27.7605 40.4918 27.7212 40.481C27.7578 40.4593 27.7957 40.462 27.8337 40.4742Z" fill="#5E93FF"/>
<path d="M27.6901 40.4811C27.6535 40.4973 27.6169 40.4987 27.5776 40.4879C27.6142 40.4648 27.6508 40.4675 27.6901 40.4811Z" fill="#5E93FF"/>
<path d="M27.5462 40.4879C27.5096 40.5055 27.473 40.5055 27.4351 40.4933C27.4351 40.4933 27.4378 40.4933 27.4391 40.4919C27.4744 40.4743 27.511 40.4743 27.5462 40.4879Z" fill="#5E93FF"/>
<path d="M27.3266 40.4864C27.351 40.481 27.3768 40.4837 27.4025 40.4932C27.3659 40.5108 27.328 40.5108 27.29 40.5C27.3022 40.4932 27.3144 40.4891 27.3266 40.4864Z" fill="#5E93FF"/>
<path d="M27.2008 40.4891C27.2198 40.4891 27.2388 40.4932 27.2591 40.4986C27.2225 40.5149 27.1859 40.5163 27.1479 40.5041C27.1656 40.4932 27.1832 40.4891 27.2008 40.4878V40.4891Z" fill="#5E93FF"/>
<path d="M27.0883 40.4986C27.0978 40.5 27.1059 40.5027 27.1141 40.5054C27.0788 40.5217 27.0409 40.523 27.0029 40.5122C27.0287 40.4959 27.0558 40.4932 27.0829 40.4986C27.0829 40.4986 27.0843 40.4986 27.0856 40.4986H27.087H27.0883Z" fill="#5E93FF"/>
<path d="M26.9702 40.5122C26.9269 40.5312 26.8821 40.5299 26.8374 40.5177C26.8808 40.4973 26.9255 40.4987 26.9702 40.5122Z" fill="#5E93FF"/>
<path d="M26.805 40.5177C26.7684 40.5366 26.7318 40.5339 26.6938 40.5231C26.7291 40.5028 26.767 40.5028 26.805 40.5177Z" fill="#5E93FF"/>
<path d="M36.3145 31.866C36.3321 31.8687 36.3524 31.8687 36.3714 31.8714C36.3958 31.8741 36.4202 31.8809 36.4392 31.9012C36.389 31.8972 36.3402 31.8863 36.2969 31.8619C36.2996 31.8619 36.3036 31.8619 36.3064 31.8633C36.3091 31.8633 36.3118 31.8633 36.3158 31.8646L36.3145 31.866Z" fill="#5E93FF"/>
<path d="M15.6713 43.8208C15.6753 43.8289 15.6794 43.8371 15.6821 43.8438L14.9258 43.8466C14.9298 43.8384 14.9339 43.8303 14.938 43.8222C14.999 43.8222 15.06 43.8222 15.121 43.8222C15.3039 43.8222 15.4869 43.8222 15.6699 43.8222L15.6713 43.8208Z" fill="#3180F4"/>
<path d="M38.3815 32.48C38.2799 32.5139 38.1796 32.5464 38.0765 32.5789C37.8732 32.6426 37.6699 32.7036 37.4653 32.7619C36.5341 33.0276 35.5921 33.239 34.6406 33.4152C34.2339 33.4911 33.8246 33.5602 33.4153 33.624C32.0056 33.8449 30.5892 34.0021 29.1674 34.1119C28.964 34.1282 28.7607 34.1431 28.5574 34.1566C28.289 34.1743 28.0207 34.1919 27.7523 34.2068C27.7089 34.2095 27.6669 34.2108 27.6235 34.2136C27.915 33.7676 28.1982 33.3163 28.472 32.8581C28.8678 32.1967 29.246 31.5258 29.6052 30.8453C30.291 30.905 30.9755 30.9741 31.66 31.0581C31.7101 31.0636 31.7603 31.0744 31.8118 31.0825C32.1181 31.1042 32.4217 31.1503 32.724 31.195C33.113 31.252 33.502 31.3143 33.8896 31.3794C34.4128 31.4675 34.936 31.5651 35.4552 31.6776C35.7357 31.7386 36.015 31.8009 36.2955 31.8619C36.3403 31.8863 36.3877 31.8958 36.4378 31.9012C37.0369 32.0544 37.6347 32.2157 38.2216 32.4095C38.2758 32.4271 38.3381 32.4325 38.3802 32.4786L38.3815 32.48Z" fill="#FDBF41"/>
<path d="M18.4512 36.8932C18.6924 36.9122 18.9351 36.9311 19.1763 36.9474C18.9337 36.9311 18.6924 36.9122 18.4512 36.8932Z" fill="#F1ECE2"/>
<path d="M10.7135 42.2946C10.6945 42.2946 10.6782 42.2892 10.666 42.2743C10.666 42.2743 10.6687 42.2743 10.6701 42.2743C10.6728 42.2743 10.6755 42.2743 10.6782 42.2743C10.6809 42.2743 10.6823 42.2756 10.685 42.2756C10.6863 42.2756 10.6891 42.2756 10.6904 42.277C10.6931 42.277 10.6958 42.2797 10.6985 42.2811C10.6985 42.2811 10.7013 42.2811 10.7026 42.2824C10.7053 42.2851 10.708 42.2878 10.7107 42.2906C10.7107 42.2906 10.7107 42.2906 10.7121 42.2906L10.7135 42.2946Z" fill="#404A5A"/>
<path d="M10.6656 42.2743C10.6466 42.2743 10.629 42.2702 10.6182 42.2526C10.6182 42.2526 10.6277 42.2526 10.6317 42.2526H10.6331C10.6453 42.2553 10.6561 42.2607 10.6642 42.2729C10.6642 42.2729 10.6642 42.2729 10.6642 42.2743H10.6656Z" fill="#404A5A"/>
<path d="M10.6182 42.2526C10.5979 42.2526 10.5789 42.2512 10.5708 42.2295C10.5708 42.2295 10.5708 42.2295 10.5708 42.2281H10.5722C10.5911 42.2281 10.6088 42.2322 10.6182 42.2512V42.2526Z" fill="#404A5A"/>
<path d="M10.571 42.2268V42.2295C10.552 42.2295 10.5317 42.2322 10.5249 42.2065V42.2037C10.5452 42.201 10.5629 42.2051 10.5723 42.2268H10.571Z" fill="#404A5A"/>
<path d="M10.3853 42.1089C10.3988 42.1184 10.4151 42.1251 10.43 42.1319C10.4409 42.1373 10.4517 42.1414 10.4625 42.1468C10.4815 42.1563 10.4991 42.1685 10.5113 42.1861C10.5154 42.1916 10.5195 42.1997 10.5235 42.2078C10.4598 42.2024 10.4043 42.1767 10.3555 42.136L10.3853 42.1089Z" fill="#404A5A"/>
<path d="M14.7322 40.0663C14.6793 40.0744 14.6265 40.0825 14.5749 40.0907C14.3716 40.1178 14.1683 40.134 13.9637 40.1395C13.8959 40.1408 13.8268 40.1422 13.759 40.1408C13.6899 40.1408 13.6221 40.1381 13.5529 40.1354C13.5231 40.134 13.4947 40.13 13.4648 40.1272C13.4364 40.1245 13.4065 40.1205 13.3767 40.1178C13.3388 40.1151 13.3103 40.0988 13.2819 40.0744C13.2005 40.0012 13.1233 39.9253 13.0474 39.8467C13.6085 39.928 14.1697 40.0012 14.7322 40.0676V40.0663Z" fill="#F1ECE2"/>
<path d="M23.5613 30.5906C23.1573 30.5906 22.7534 30.596 22.3495 30.6028C21.6772 31.6451 20.9521 32.6508 20.1605 33.6064C19.9938 33.807 19.8257 34.0049 19.6536 34.2001C19.2198 34.6948 18.7671 35.1719 18.2927 35.6273C17.8766 36.0258 17.4469 36.4067 16.9983 36.7645C16.6486 37.0451 16.2867 37.3121 15.9112 37.5602C15.22 38.0183 14.4948 38.4127 13.7141 38.7001C13.3184 38.8451 12.9144 38.963 12.497 39.0321C12.4739 39.0362 12.4522 39.0457 12.4292 39.0525C12.4306 39.0592 12.4333 39.0674 12.4346 39.0742C12.436 39.0782 12.4373 39.0823 12.44 39.0864C12.4699 39.1324 12.4997 39.1772 12.5309 39.2205C12.5932 39.31 12.6583 39.3968 12.7247 39.4808C12.825 39.6068 12.9321 39.7288 13.0446 39.8454C13.6057 39.9267 14.1668 39.9999 14.7293 40.0663C14.8798 40.0433 15.0289 40.0135 15.1766 39.9782C15.5195 39.8969 15.853 39.7898 16.1796 39.6638C16.3423 39.6001 16.5036 39.5323 16.6622 39.4591C16.8207 39.3859 16.978 39.3086 17.1338 39.226C17.2016 39.1907 17.268 39.1541 17.3358 39.1175C17.8021 38.8614 18.2494 38.574 18.6777 38.265C19.1073 37.9546 19.5194 37.6211 19.9192 37.2715C19.9762 37.2213 20.0331 37.1711 20.09 37.1196C20.132 37.0817 20.1727 37.0437 20.2161 37.0044C20.4722 36.7699 20.7244 36.5287 20.9697 36.282C21.0646 36.1858 21.1581 36.0895 21.2516 35.9906C21.5593 35.668 21.8588 35.3386 22.1503 35.0011C22.3251 34.7992 22.4959 34.5931 22.664 34.3858C22.6843 34.3614 22.7046 34.3356 22.725 34.3099C22.8402 34.1662 22.954 34.0211 23.0679 33.8748C23.4244 33.4139 23.7673 32.9436 24.098 32.4638C24.2769 32.2035 24.4518 31.9419 24.6239 31.6776C24.7201 31.5285 24.815 31.3794 24.9085 31.2303C25.0373 31.0257 25.1634 30.8183 25.2881 30.6109C24.712 30.5974 24.1373 30.5906 23.5613 30.5906Z" fill="#F1ECE2"/>
<path d="M8.18519 41.1669C8.16622 41.171 8.15131 41.1655 8.14453 41.1452C8.16486 41.1411 8.17977 41.1452 8.18519 41.1669Z" fill="#C18B00"/>
<path d="M20.1374 30.6746C19.8487 30.6882 19.56 30.7044 19.2726 30.722C18.9568 31.1693 18.6301 31.6099 18.2886 32.0395C17.9538 32.4624 17.6109 32.8772 17.2503 33.2797C17.0456 33.5074 16.8396 33.7338 16.6282 33.9561C16.4791 34.1133 16.3273 34.2692 16.1714 34.421C15.552 35.0269 14.9027 35.5989 14.2047 36.1153C14.0881 36.2007 13.9716 36.2847 13.8523 36.3674C13.4606 36.6398 13.0553 36.8919 12.6338 37.1183C12.3288 37.2836 12.0143 37.43 11.6958 37.5642C11.6985 37.5791 11.6958 37.5954 11.7026 37.6103C11.7473 37.7336 11.7947 37.8543 11.8463 37.9749C11.8964 38.0955 11.9506 38.2135 12.0075 38.33C12.1214 38.5632 12.2488 38.7909 12.3871 39.0132L12.3898 39.0159C12.3993 39.0294 12.4155 39.0416 12.4277 39.0538C12.4508 39.047 12.4725 39.0376 12.4955 39.0335C12.9116 38.9644 13.3155 38.8464 13.7127 38.7014C14.4934 38.4154 15.2185 38.0196 15.9098 37.5615C16.2853 37.3135 16.6472 37.0464 16.9969 36.7659C17.4455 36.4067 17.8752 36.0258 18.2913 35.6287C18.767 35.1733 19.2184 34.6961 19.6521 34.2014C19.8243 34.0062 19.9923 33.8083 20.1591 33.6077C20.9506 32.6522 21.6758 31.6464 22.3481 30.6041C21.6107 30.6177 20.872 30.6394 20.136 30.676L20.1374 30.6746Z" fill="#FDBF41"/>
<path d="M34.7152 19.5479C34.7152 19.5479 34.7057 19.5465 34.7017 19.5465C34.7057 19.5465 34.7098 19.5465 34.7152 19.5479Z" fill="#E7AA24"/>
<path d="M34.6351 19.5791C34.6581 19.5791 34.6839 19.5791 34.6689 19.5425C34.6798 19.5425 34.6906 19.5452 34.7028 19.5465C34.6961 19.5465 34.6906 19.5479 34.6866 19.5506C34.6771 19.5574 34.6771 19.5723 34.6798 19.5899C34.6649 19.5899 34.65 19.5886 34.6351 19.5872C34.6269 19.5872 34.6174 19.5859 34.6093 19.5845C34.5917 19.5831 34.5727 19.5804 34.5551 19.5791C34.5144 19.5737 34.4724 19.5655 34.4331 19.556C34.5022 19.552 34.5686 19.5764 34.6364 19.5804L34.6351 19.5791Z" fill="#E7AA24"/>
<path d="M13.6058 33.5508C13.6357 33.5562 13.6641 33.5603 13.6926 33.5657C13.1274 34.112 12.5337 34.6243 11.9007 35.0933C11.6703 35.2641 11.4399 35.4348 11.1905 35.5799C11.1444 35.3806 11.124 35.1773 11.101 34.974C11.0224 34.3261 10.9926 33.6755 10.9912 33.0249C11.1484 33.0629 11.3057 33.0995 11.4643 33.136C11.9265 33.2418 12.39 33.3353 12.8549 33.4207C13.1057 33.4668 13.3564 33.5101 13.6072 33.5522L13.6058 33.5508Z" fill="#F1ECE2"/>
<path d="M16.1933 30.985C16.1269 30.9931 16.0591 30.9985 15.9913 31.0053C15.3245 31.8538 14.6129 32.663 13.8403 33.4207C13.7915 33.4695 13.7413 33.5169 13.6925 33.5643C13.7156 33.5684 13.7386 33.5725 13.7603 33.5765C13.7373 33.5725 13.7156 33.5684 13.6925 33.5657C13.1273 34.1119 12.5337 34.6243 11.9007 35.0933C11.6702 35.264 11.4398 35.4348 11.1904 35.5799C11.1931 35.607 11.1945 35.6354 11.1972 35.6625C11.1972 35.6707 11.1972 35.6774 11.1999 35.6856C11.2053 35.7168 11.2121 35.7479 11.2175 35.7791C11.2216 35.8049 11.2257 35.8293 11.2311 35.855C11.2433 35.9174 11.2555 35.9811 11.2677 36.0448C11.3395 36.4026 11.4249 36.7564 11.532 37.1047C11.5808 37.2606 11.6201 37.4205 11.6987 37.5669C12.0172 37.4327 12.3317 37.2863 12.6367 37.121C13.0582 36.8933 13.4635 36.6411 13.8552 36.3701C13.9745 36.2887 14.091 36.2047 14.2076 36.118C14.9056 35.6029 15.5549 35.0296 16.1743 34.4237C16.3302 34.2719 16.4806 34.116 16.6311 33.9588C16.8425 33.7365 17.0485 33.5101 17.2532 33.2824C17.6124 32.8799 17.9567 32.4651 18.2915 32.0422C18.6317 31.6112 18.9597 31.172 19.2755 30.7247C18.2481 30.7871 17.222 30.8738 16.1973 30.9877L16.1933 30.985Z" fill="#FF1100"/>
<path d="M13.7602 33.5765C13.7371 33.5725 13.7154 33.5684 13.6924 33.5657C13.7154 33.5697 13.7385 33.5738 13.7602 33.5765Z" fill="#F1ECE2"/>
<path d="M13.6927 33.5643C13.6642 33.5603 13.6344 33.5549 13.606 33.5494L13.6927 33.563V33.5643Z" fill="#FF1100"/>
<path d="M12.8535 33.4193C13.1043 33.4654 13.355 33.5088 13.6058 33.5508C13.355 33.5088 13.1029 33.4654 12.8535 33.4193Z" fill="#FF1100"/>
<path d="M15.5507 31.0689C15.6958 31.0378 15.8435 31.0215 15.9912 31.0066C15.3244 31.8551 14.6128 32.6643 13.8402 33.422C13.7914 33.4707 13.7412 33.5182 13.6924 33.5656L13.6057 33.5521C13.355 33.5101 13.1042 33.4667 12.8535 33.4206C12.3885 33.3352 11.9236 33.2417 11.4628 33.136C11.3056 33.0994 11.147 33.0628 10.9897 33.0248C10.9897 32.7795 10.9925 32.5328 10.9992 32.2861C11.0033 32.1397 11.0101 31.9947 11.0182 31.8497C11.5536 31.7223 12.0931 31.6098 12.6339 31.5067C13.5583 31.3319 14.4881 31.1896 15.4206 31.0744C15.4355 31.073 15.4504 31.0703 15.4653 31.0689C15.483 31.0662 15.5006 31.0649 15.5182 31.0662C15.529 31.0662 15.5399 31.0689 15.5507 31.0717V31.0689Z" fill="#FDBF41"/>
<path d="M32.0396 19.2225C32.579 19.2889 33.1198 19.354 33.6593 19.4204C33.6566 19.4258 33.6525 19.4313 33.6471 19.4367C33.3123 19.396 32.9761 19.3567 32.6414 19.3133C32.5438 19.3011 32.4462 19.293 32.3486 19.2822C32.251 19.2713 32.1534 19.2605 32.0572 19.2415C32.0517 19.2347 32.0463 19.2293 32.0396 19.2239V19.2225Z" fill="#007FFF"/>
<path d="M29.3965 20.8992C29.4168 20.8233 29.4358 20.7447 29.4561 20.6688C29.4371 20.7461 29.4168 20.8233 29.3965 20.8992Z" fill="#F1ECE2"/>
<path d="M44.9022 31.7413C44.9022 30.9985 44.9022 30.2571 44.9022 29.5143C44.8548 29.3069 44.7897 29.105 44.6745 28.9234C44.4888 28.6306 44.2679 28.369 43.9914 28.1548C43.7027 27.9312 43.4072 27.7211 43.0887 27.5422C42.6509 27.2969 42.1955 27.0895 41.7387 26.8848C41.6574 26.8482 41.5733 26.8306 41.492 26.7981C40.4592 26.3941 39.3965 26.0905 38.3203 25.8289C37.6318 25.6609 36.9378 25.5172 36.2411 25.3871C35.459 25.2407 34.6729 25.1146 33.8854 25.0062C33.3418 24.9316 32.7983 24.8639 32.2534 24.8029C32.0108 24.7758 31.7682 24.75 31.5256 24.7256C30.8397 24.6592 30.1525 24.5969 29.4653 24.5481C29.0601 24.5182 28.6534 24.4925 28.2482 24.4694C27.9039 24.4505 27.5583 24.4329 27.2126 24.4166C26.6691 24.3922 26.1269 24.3732 25.5834 24.361C25.5441 24.361 25.5048 24.3583 25.4655 24.3583C24.6075 24.3393 23.7482 24.3339 22.8902 24.342C22.8766 24.342 22.8631 24.342 22.8482 24.342C21.9644 24.3502 21.0807 24.3705 20.1983 24.4071C20.1455 24.4085 20.0926 24.4125 20.0397 24.4139C18.9947 24.4586 17.9524 24.5237 16.9101 24.6118C15.3798 24.7405 13.8549 24.9154 12.3383 25.1539C12.3017 25.1594 12.2664 25.1661 12.2298 25.1716C12.1715 25.3776 12.1187 25.5863 12.0455 25.7883C11.994 25.9943 11.9425 26.2003 11.8896 26.405C11.75 26.9512 11.6239 27.5002 11.5142 28.0532C11.5914 28.0396 11.6687 28.0274 11.7459 28.0139C11.8476 27.9963 11.9493 27.98 12.0496 27.9624C12.2 27.938 12.3505 27.9136 12.5009 27.8892C13.0444 27.8051 13.5906 27.7292 14.1355 27.6601C14.6818 27.591 15.228 27.53 15.7756 27.4758C16.1402 27.4392 16.5062 27.4053 16.8721 27.3741C17.4251 27.328 17.9795 27.2887 18.5339 27.2535C19.0557 27.221 19.5775 27.1952 20.0994 27.1735C20.2336 27.1681 20.3677 27.1613 20.5019 27.1559C20.7012 27.1478 20.9018 27.1423 21.101 27.1356C21.2298 27.1315 21.3586 27.1288 21.4887 27.1261C21.959 27.1139 22.4293 27.1071 22.8997 27.103C23.0772 27.103 23.2534 27.1003 23.431 27.1003C23.7346 27.1003 24.0382 27.1003 24.3405 27.103C24.4503 27.103 24.5601 27.1044 24.6699 27.1071C24.7878 27.1085 24.9057 27.1098 25.0236 27.1112C25.3449 27.1166 25.6647 27.1247 25.986 27.1342C26.3072 27.1437 26.6271 27.1559 26.9483 27.1681C27.0012 27.1694 27.054 27.1735 27.1069 27.1749C27.4512 27.1898 27.7955 27.2074 28.1384 27.225C28.4027 27.2399 28.667 27.2562 28.9313 27.2725C29.3271 27.2982 29.7242 27.3267 30.12 27.3592C30.4846 27.389 30.8492 27.4229 31.2152 27.4595C31.2274 27.4595 31.2409 27.4622 31.2531 27.4636C31.5147 27.4893 31.7763 27.5151 32.0379 27.5422C32.4568 27.5842 32.8756 27.6344 33.2944 27.6899C33.7119 27.7455 34.1293 27.8051 34.5468 27.8675C34.7203 27.8932 34.8938 27.9204 35.0659 27.9475C35.5851 28.0315 36.1028 28.1237 36.6179 28.2253C36.9215 28.285 37.2238 28.3473 37.526 28.4124C37.8283 28.4774 38.1292 28.5479 38.4301 28.6211C38.8869 28.7336 39.3409 28.8542 39.7896 28.9857C40.3887 29.1619 40.9824 29.3598 41.5638 29.5916C41.7102 29.6485 41.8539 29.7095 41.9989 29.7705C42.2185 29.8654 42.434 29.9697 42.6482 30.0755C42.701 30.1012 42.7539 30.127 42.8068 30.1541C42.8474 30.1744 42.8894 30.1947 42.9301 30.2151C42.9843 30.2422 43.0385 30.2693 43.0914 30.2991C43.1592 30.3357 43.2256 30.375 43.2879 30.4184C43.5292 30.5851 43.7772 30.7423 44.0009 30.9321C44.0524 30.9768 44.1025 31.0216 44.1513 31.069C44.2096 31.1178 44.2652 31.1707 44.318 31.2235C44.4061 31.3116 44.4875 31.4065 44.5593 31.5054C44.5946 31.5542 44.6271 31.6044 44.6583 31.6559C44.6854 31.7006 44.7098 31.7454 44.7328 31.7914C44.7558 31.8375 44.7775 31.885 44.7965 31.9351C44.8168 31.9839 44.8345 32.0341 44.8507 32.0842C44.8616 32.1194 44.8738 32.156 44.8846 32.1913C44.8846 32.1913 44.8846 32.194 44.886 32.1954V32.1913C44.9144 32.0408 44.8968 31.889 44.8982 31.7372L44.9022 31.7413Z" fill="#F1ECE2"/>
<path d="M44.9117 29.2202C44.913 28.6577 44.913 28.0966 44.9117 27.5341C44.9117 27.2752 44.909 27.015 44.9076 26.7561C44.8629 26.6097 44.8317 26.4592 44.7653 26.3196C44.5959 25.9686 44.3424 25.6867 44.0496 25.4345C43.7298 25.158 43.376 24.929 43.0046 24.727C42.4665 24.4315 41.9081 24.1794 41.332 23.9666C40.6652 23.7199 39.9888 23.5017 39.303 23.3147C38.7784 23.1723 38.2511 23.0409 37.7225 22.9202C37.1194 22.7833 36.5135 22.6627 35.9049 22.5556C35.2733 22.4458 34.6389 22.3401 34.0033 22.252C33.7024 22.21 33.4001 22.1707 33.0978 22.1327C32.4228 22.046 31.7465 21.9701 31.0688 21.9105C30.9427 21.8983 30.818 21.8806 30.692 21.8711C30.1796 21.8318 29.6673 21.7939 29.1563 21.7573C29.0831 21.7519 29.0099 21.7464 28.9367 21.741C28.5951 21.7166 28.2536 21.6922 27.912 21.6746C27.4674 21.6529 27.0228 21.6367 26.5783 21.6204C26.5742 21.6204 26.5701 21.6204 26.5661 21.6204C26.1011 21.6041 25.6376 21.5865 25.1727 21.5784C24.7633 21.5716 24.354 21.5675 23.9433 21.5662C23.763 21.5662 23.5828 21.5648 23.4011 21.5648C22.6828 21.5648 21.9658 21.5757 21.2487 21.596C21.2379 21.596 21.2284 21.596 21.2176 21.596C20.3758 21.6204 19.5328 21.6543 18.6924 21.7085C18.0459 21.7492 17.3993 21.7858 16.7542 21.84C16.4926 21.8617 16.2323 21.8942 15.9721 21.9199C15.0626 22.0108 14.1558 22.1165 13.2517 22.2439C13.2409 22.2452 13.2314 22.2466 13.2206 22.248C12.8587 23.1845 12.5334 24.1333 12.2474 25.097C12.2406 25.1214 12.2338 25.1445 12.2271 25.1689C12.2623 25.1635 12.2989 25.1567 12.3355 25.1513C13.8522 24.9127 15.3771 24.7365 16.9073 24.6091C17.9496 24.5223 18.992 24.4559 20.037 24.4112C20.0899 24.4085 20.1427 24.4058 20.1956 24.4044C21.078 24.3678 21.9617 24.3475 22.8454 24.3394C22.859 24.3394 22.8739 24.3394 22.8874 24.3394C23.7468 24.3326 24.6048 24.338 25.4627 24.3556C25.5021 24.3556 25.5414 24.3583 25.5807 24.3583C26.1242 24.3705 26.6664 24.3895 27.2099 24.4139C27.5555 24.4302 27.8998 24.4478 28.2454 24.4668C28.6507 24.4898 29.0573 24.5156 29.4626 24.5454C30.1498 24.5955 30.837 24.6565 31.5228 24.723C31.7655 24.7473 32.0081 24.7731 32.2507 24.8002C32.7956 24.8612 33.3391 24.929 33.8826 25.0035C34.6701 25.112 35.4563 25.238 36.2383 25.3844C36.935 25.5145 37.629 25.6582 38.3176 25.8263C39.3938 26.0879 40.4564 26.3915 41.4893 26.7954C41.5706 26.8279 41.6546 26.8455 41.7359 26.8821C42.1927 27.0882 42.6481 27.2942 43.0859 27.5395C43.4045 27.7184 43.6999 27.9285 43.9886 28.1522C44.2652 28.3663 44.4861 28.6279 44.6718 28.9207C44.787 29.1023 44.8507 29.3043 44.8995 29.5117C44.9185 29.4141 44.9076 29.3151 44.9076 29.2175L44.9117 29.2202Z" fill="#FDBF41"/>
<path d="M28.9763 7.97127C29.3504 8.55546 29.6215 9.18708 29.8262 9.84853C29.8899 10.0532 29.9468 10.2592 29.9983 10.4666C30.0837 10.8122 30.1501 11.1633 30.203 11.5157C30.2179 11.6187 30.2328 11.7217 30.2463 11.8261C30.2721 12.0335 30.2951 12.2408 30.3141 12.4482C30.3222 12.5526 30.3304 12.6556 30.3385 12.76C30.3765 13.3265 30.3927 13.8931 30.3778 14.461C30.3615 15.0547 30.3263 15.6484 30.2667 16.2407C30.207 16.8289 30.1257 17.4145 30.0281 17.9959C29.9698 18.3456 29.9048 18.694 29.8343 19.0396C29.2731 18.9949 28.712 18.9569 28.1495 18.9298C27.8798 18.9176 27.6087 18.9027 27.3376 18.8892C27.5206 18.103 27.6751 17.3115 27.7957 16.5118C27.9286 15.6267 28.0234 14.7389 28.0587 13.8456C28.0871 13.0866 28.0831 12.3262 28.0221 11.5672C27.9706 10.9342 27.8852 10.308 27.7496 9.68723C27.5965 8.98919 27.381 8.31148 27.0719 7.66494C26.9499 7.40877 26.8063 7.16344 26.6626 6.91946C26.7805 6.88151 26.9039 6.87744 27.0245 6.86525C27.0882 6.85847 27.1519 6.85305 27.2143 6.84898C27.2685 6.84627 27.3227 6.84356 27.3769 6.8422C27.465 6.84085 27.5531 6.84085 27.6412 6.8422C27.7022 6.84356 27.7646 6.84627 27.8255 6.84898C27.873 6.85169 27.9204 6.8544 27.9679 6.85847C27.976 6.85847 27.9841 6.85982 27.9909 6.86118C28.0058 6.86389 28.0194 6.86796 28.0329 6.87338C28.0465 6.8788 28.0587 6.88558 28.0709 6.89371C28.0885 6.90455 28.1061 6.91946 28.1224 6.93437C28.1644 6.97232 28.2051 7.01163 28.2444 7.05094C28.3243 7.12955 28.4016 7.21223 28.4748 7.29627C28.6605 7.50636 28.8272 7.73 28.9804 7.96856L28.9763 7.97127Z" fill="#F1ECE2"/>
<path d="M27.7452 9.68723C27.8808 10.3067 27.9662 10.9342 28.0177 11.5672C28.08 12.3262 28.0841 13.0866 28.0543 13.8457C28.0204 14.7389 27.9255 15.6267 27.7913 16.5118C27.6707 17.3115 27.5162 18.1044 27.3332 18.8892C27.1285 18.8797 26.9225 18.8689 26.7178 18.8608C26.2489 18.8431 25.7812 18.8323 25.3123 18.8228C25.1374 18.8187 24.9626 18.816 24.7891 18.8133C24.9598 18.1695 25.1103 17.5202 25.2391 16.8669C25.3367 16.3776 25.4207 15.8856 25.4952 15.3922C25.544 15.0615 25.5874 14.7308 25.6254 14.3987C25.6647 14.0517 25.6958 13.7034 25.7175 13.3536C25.7406 12.9809 25.7555 12.6068 25.7636 12.2341C25.7731 11.7339 25.7568 11.2351 25.7202 10.7363C25.6958 10.407 25.6647 10.0789 25.6226 9.75093C25.5657 9.30229 25.4844 8.85907 25.3773 8.41991C25.2919 8.06886 25.1943 7.71916 25.0642 7.3803C25.1537 7.32337 25.2567 7.29491 25.3556 7.25831C25.5562 7.18377 25.7582 7.11871 25.9642 7.06178C26.1702 7.00621 26.3776 6.95877 26.5891 6.92353C26.604 6.92081 26.6175 6.91675 26.6324 6.91675C26.6419 6.91675 26.6501 6.91675 26.6582 6.91946C26.8019 7.16343 26.9455 7.40741 27.0675 7.66494C27.3766 8.31148 27.5921 8.98919 27.7452 9.68723Z" fill="#FDBF41"/>
<path d="M33.6373 8.53783C33.6373 8.53783 33.6318 8.53377 33.6318 8.53106C33.6318 8.5297 33.6318 8.52835 33.6318 8.52563L33.6386 8.5297L33.6359 8.53648L33.6373 8.53783Z" fill="#3180F4"/>
<path d="M44.8995 34.8669C44.9008 34.8316 44.9035 34.7964 44.9035 34.7612C44.9035 34.181 44.9049 33.5996 44.9049 33.0194C44.9049 32.7687 44.9008 32.5179 44.8995 32.2672C44.8995 32.2523 44.9062 32.236 44.9049 32.2211C44.9008 32.2116 44.8954 32.2048 44.8913 32.1967C44.8913 32.1967 44.8913 32.1981 44.8913 32.1994C44.8913 32.1981 44.8913 32.1967 44.89 32.1954C44.8791 32.1588 44.8669 32.1235 44.8561 32.0869C44.8398 32.0354 44.8209 31.9853 44.8019 31.9378C44.7829 31.889 44.7612 31.8416 44.7382 31.7941C44.7151 31.7481 44.6894 31.702 44.6636 31.6586C44.6324 31.6071 44.5999 31.5569 44.5647 31.5082C44.4928 31.4079 44.4129 31.3143 44.3234 31.2262C44.2706 31.1734 44.215 31.1219 44.1567 31.0717C44.1079 31.0229 44.0578 30.9782 44.0062 30.9348C43.7826 30.7451 43.5346 30.5878 43.2933 30.4211C43.2296 30.3777 43.1632 30.3384 43.0968 30.3018C43.0439 30.2734 42.9897 30.2449 42.9355 30.2178C42.8948 30.1975 42.8528 30.1771 42.8121 30.1568C42.7593 30.1297 42.7064 30.1039 42.6535 30.0782C42.4394 29.9725 42.2239 29.8681 42.0043 29.7732C41.8593 29.7122 41.7156 29.6512 41.5692 29.5943C40.9864 29.3639 40.394 29.1646 39.7949 28.9884C39.3449 28.8556 38.8909 28.735 38.4355 28.6238C38.1346 28.5506 37.8336 28.4801 37.5314 28.4151C37.2291 28.35 36.9269 28.2877 36.6233 28.228C36.1068 28.1264 35.5891 28.0329 35.0713 27.9502C34.8978 27.9231 34.7257 27.896 34.5522 27.8702C34.1347 27.8079 33.7186 27.7482 33.2998 27.6926C32.8823 27.6371 32.4635 27.5869 32.0433 27.5449C31.7817 27.5191 31.5201 27.492 31.2585 27.4663C31.2463 27.4663 31.2327 27.4636 31.2205 27.4622C30.8559 27.4256 30.4913 27.3917 30.1254 27.3619C29.7296 27.3294 29.3324 27.3023 28.9367 27.2752C28.6724 27.2575 28.408 27.2413 28.1437 27.2277C27.7995 27.2088 27.4552 27.1911 27.1123 27.1776C27.0594 27.1749 27.0065 27.1722 26.9537 27.1708C26.6324 27.1573 26.3126 27.1464 25.9913 27.1369C25.6701 27.1274 25.3502 27.1193 25.029 27.1139C24.9111 27.1125 24.7931 27.1112 24.6752 27.1098C24.5654 27.1085 24.4556 27.1071 24.3458 27.1057C24.0422 27.103 23.7386 27.1017 23.4364 27.103C23.2588 27.103 23.0812 27.1044 22.905 27.1057C22.4347 27.1098 21.9644 27.1166 21.494 27.1288C21.3653 27.1315 21.2365 27.1356 21.1064 27.1383C20.9071 27.1437 20.7065 27.1505 20.5073 27.1586C20.3731 27.164 20.2389 27.1708 20.1047 27.1762C19.5829 27.1979 19.0611 27.225 18.5392 27.2562C17.9849 27.2914 17.4305 27.3294 16.8775 27.3768C16.5115 27.408 16.1455 27.4419 15.7809 27.4785C15.2333 27.5327 14.6871 27.5937 14.1409 27.6628C13.5946 27.7319 13.0498 27.8079 12.5063 27.8919C12.3558 27.9149 12.2054 27.9393 12.0549 27.9651C11.9532 27.9813 11.8529 27.999 11.7513 28.0166C11.674 28.0301 11.5968 28.0423 11.5195 28.0559C11.6293 27.5029 11.7554 26.9539 11.895 26.4077C11.9478 26.2017 11.9993 25.997 12.0508 25.791C12.124 25.589 12.1769 25.3803 12.2352 25.1743C12.2419 25.1499 12.2487 25.1268 12.2555 25.1024C12.5415 24.1387 12.8668 23.1886 13.2287 22.2533C13.4578 21.6597 13.7017 21.0714 13.9606 20.4886C14.1341 20.0982 14.3144 19.7092 14.5001 19.3256C15.1141 18.0556 15.7958 16.8208 16.5522 15.6267C17.2583 14.5071 18.0269 13.4336 18.8686 12.4116C18.8862 12.3913 18.8998 12.3669 18.916 12.3452C19.1695 12.0551 19.4189 11.7624 19.6778 11.4764C20.5208 10.5425 21.429 9.67773 22.4347 8.92005C22.6827 8.733 22.9389 8.5568 23.1924 8.37652C23.2154 8.36026 23.2439 8.35755 23.271 8.35619C23.2832 8.3196 23.3171 8.30333 23.3455 8.28571C23.8647 7.95363 24.4041 7.65815 24.9721 7.4196C24.9924 7.41146 25.0114 7.40062 25.033 7.39384C25.0385 7.39249 25.0452 7.39113 25.052 7.38978C25.0588 7.38978 25.0656 7.38707 25.0724 7.38707C25.1618 7.33014 25.2648 7.30167 25.3638 7.26508C25.5644 7.19053 25.7663 7.12547 25.9724 7.06854C26.1784 7.01297 26.3858 6.96553 26.5972 6.93029C26.6121 6.92758 26.6257 6.92351 26.6406 6.92351C26.6501 6.92351 26.6582 6.92351 26.6663 6.92622C26.7843 6.88827 26.9076 6.8842 27.0282 6.87201C27.0919 6.86523 27.1556 6.85981 27.218 6.85574C27.2722 6.85303 27.3264 6.85032 27.3806 6.84896C27.4687 6.84761 27.5568 6.84761 27.6449 6.84896C27.7059 6.85032 27.7683 6.85303 27.8293 6.85574C27.8767 6.85845 27.9242 6.86116 27.9716 6.86523C27.9797 6.86523 27.9879 6.86658 27.9946 6.86794C28.0096 6.87065 28.0231 6.87472 28.0367 6.88014C28.0502 6.88556 28.0624 6.89234 28.0746 6.90047C28.0922 6.91131 28.1099 6.92622 28.1261 6.94113C28.1681 6.97908 28.2088 7.01839 28.2481 7.0577C28.3281 7.13631 28.4053 7.21899 28.4785 7.30303C28.6642 7.51312 28.8309 7.73677 28.9841 7.97532C29.3582 8.55951 29.6293 9.19113 29.834 9.85258C29.8977 10.0572 29.9546 10.2633 30.0061 10.4707C30.0915 10.8163 30.1579 11.1673 30.2108 11.5197C30.2257 11.6228 30.2406 11.7258 30.2541 11.8301C30.2799 12.0375 30.3029 12.2449 30.3219 12.4523C30.33 12.5566 30.3382 12.6597 30.3463 12.764C30.3843 13.3306 30.4005 13.8972 30.3856 14.4651C30.3693 15.0588 30.3341 15.6524 30.2745 16.2447C30.2148 16.833 30.1335 17.4185 30.0359 18C29.9776 18.3497 29.9126 18.6981 29.8421 19.0437C29.9329 19.0505 30.0237 19.0572 30.1145 19.0654C30.7665 19.1196 31.4171 19.1847 32.0677 19.2443C32.0623 19.2375 32.0568 19.2321 32.0501 19.2267C32.5895 19.2931 33.1303 19.3582 33.6698 19.4246C33.6671 19.43 33.663 19.4354 33.6576 19.4408C33.6901 19.4449 33.7227 19.4503 33.7552 19.4544C33.8636 18.9204 33.9612 18.3863 34.0439 17.8482C34.1171 17.3657 34.1821 16.8818 34.2323 16.3966C34.2797 15.9425 34.3218 15.4884 34.3434 15.0316C34.3543 14.8121 34.3665 14.5911 34.38 14.3716C34.3814 14.3431 34.3665 14.3051 34.4112 14.2929C34.4112 13.8836 34.4085 13.4729 34.4071 13.0636C34.3855 13.0541 34.3841 13.0351 34.3814 13.0148C34.376 12.9321 34.3665 12.8508 34.3638 12.7681C34.3475 12.1731 34.2933 11.5821 34.2133 10.9938C34.1252 10.3419 33.9951 9.69942 33.8148 9.06643C33.7701 8.90785 33.7321 8.74791 33.6617 8.59746L33.6468 8.54324C33.6468 8.54324 33.6413 8.53917 33.6413 8.53646C33.6413 8.53511 33.6413 8.53375 33.6413 8.53104C33.6373 8.51207 33.6346 8.49309 33.6278 8.47411C33.3662 7.71914 33.0246 7.00348 32.5543 6.35288C32.1016 5.72532 31.5553 5.20077 30.8817 4.81041C30.6296 4.66402 30.3558 4.56101 30.0969 4.42954C30.0739 4.41734 30.044 4.42005 30.0169 4.41463C29.9939 4.38481 29.9573 4.37667 29.9261 4.36176C29.3148 4.09068 28.7049 3.8196 28.0922 3.55122C28.0136 3.51598 27.9418 3.46448 27.8537 3.45363C27.8388 3.44821 27.8239 3.44414 27.809 3.43872C27.7046 3.40484 27.5975 3.38044 27.4972 3.333C27.4877 3.33029 27.4796 3.32758 27.4701 3.32351C27.466 3.32216 27.4606 3.3208 27.4565 3.31945C27.4565 3.31945 27.4552 3.31945 27.4538 3.31945C27.443 3.32622 27.4362 3.3208 27.4294 3.31131C27.2329 3.26116 27.0364 3.22321 26.8371 3.1961C26.6934 3.17577 26.5498 3.16086 26.4047 3.15273C26.3559 3.15002 26.3085 3.14866 26.2597 3.14731C26.1147 3.14324 25.971 3.1446 25.8273 3.15137C25.6362 3.15951 25.4465 3.17713 25.2567 3.20288C24.926 3.24896 24.598 3.31809 24.2727 3.40755C24.2266 3.4211 24.1791 3.4333 24.133 3.44821C23.5218 3.62984 22.9389 3.87517 22.3764 4.16523C22.1894 4.26146 22.0037 4.36312 21.8193 4.4702C21.6513 4.56643 21.4859 4.66538 21.3219 4.76975C21.2677 4.80363 21.2135 4.83887 21.1593 4.87411C21.105 4.90936 21.0508 4.9446 20.998 4.98119C20.8909 5.05303 20.7852 5.12622 20.6808 5.20213C20.6293 5.24008 20.5764 5.27803 20.5249 5.31598C20.5249 5.32005 20.5249 5.32276 20.5249 5.32683C20.5249 5.32954 20.5222 5.33225 20.5208 5.33496C20.5168 5.33902 20.5114 5.34038 20.5032 5.34038H20.5019C20.5019 5.34038 20.5019 5.3458 20.5019 5.34716C20.5019 5.35258 20.4992 5.35529 20.4965 5.35664C20.4937 5.358 20.491 5.358 20.4856 5.35664C20.4843 5.35664 20.4815 5.35664 20.4802 5.35393C20.2498 5.51523 20.0261 5.6833 19.8079 5.85815C19.7103 5.93541 19.6141 6.01538 19.5192 6.09535C19.5043 6.10755 19.4894 6.1211 19.4745 6.1333C19.3769 6.21598 19.2793 6.30002 19.183 6.38541C19.183 6.38812 19.183 6.38948 19.183 6.39219C19.183 6.39896 19.1803 6.40303 19.1763 6.4071C19.1763 6.4071 19.1736 6.40845 19.1722 6.40981C19.1695 6.41116 19.1654 6.41252 19.1614 6.41252C19.1586 6.41794 19.1546 6.42336 19.1505 6.42743C19.1451 6.43285 19.141 6.43827 19.1343 6.44234C19.1261 6.44776 19.1166 6.45318 19.1058 6.45454C19.1058 6.46673 19.1031 6.47351 19.0977 6.47622C19.0895 6.48164 19.0746 6.47758 19.0638 6.47893C19.0272 6.51689 18.9892 6.55484 18.9526 6.59143C18.9499 6.59414 18.9486 6.59686 18.9458 6.59821C18.9458 6.59957 18.9458 6.60228 18.9458 6.60363C18.9458 6.60905 18.9431 6.61177 18.9404 6.61583H18.9391C18.9391 6.61583 18.9309 6.6199 18.9228 6.6199C18.8903 6.64701 18.855 6.6714 18.8239 6.69987C18.8212 6.70258 18.8184 6.70393 18.8157 6.70664C18.6965 6.81914 18.5758 6.93164 18.4579 7.04686C18.4498 7.05499 18.4416 7.06177 18.4349 7.06854C18.3983 7.10514 18.3603 7.13902 18.3224 7.17427C18.2275 7.26237 18.1299 7.34776 18.0391 7.43993C17.9903 7.49008 17.9401 7.54023 17.8913 7.58902C17.6094 7.87502 17.3302 8.16372 17.0605 8.46192C16.7162 8.84279 16.3814 9.23044 16.0561 9.62622C16.01 9.68315 15.9626 9.73872 15.9165 9.79565C15.9097 9.80378 15.9016 9.81327 15.8962 9.82276C15.8867 9.83631 15.8772 9.84987 15.8677 9.86478C15.8555 9.88375 15.8433 9.90273 15.8311 9.92035C15.8216 9.9339 15.8121 9.9461 15.8013 9.95966C15.7972 9.96372 15.7945 9.96779 15.7918 9.9705C15.7769 9.98677 15.762 10.0017 15.7443 10.0139C15.7443 10.0179 15.743 10.0193 15.7416 10.022C15.7416 10.0247 15.7416 10.0274 15.7389 10.0301C15.7389 10.0315 15.7362 10.0328 15.7349 10.0342C15.7321 10.0356 15.7281 10.0369 15.7254 10.0383C15.7172 10.0762 15.6861 10.0952 15.6603 10.1196C15.659 10.1196 15.6576 10.1223 15.6562 10.1237C15.6481 10.1304 15.6427 10.1386 15.6373 10.1467C15.6346 10.1508 15.6318 10.1548 15.6305 10.1603C15.6291 10.1657 15.6264 10.1697 15.6251 10.1752C15.6251 10.1779 15.6251 10.1792 15.6251 10.1819C15.6251 10.1887 15.6224 10.1928 15.6169 10.1969C15.6169 10.1969 15.6142 10.1969 15.6142 10.1982C15.6129 10.1982 15.6102 10.1982 15.6088 10.1982C15.6074 10.1982 15.6061 10.1982 15.6034 10.1982C15.5437 10.2728 15.4827 10.3473 15.4231 10.4219C15.4204 10.4259 15.4163 10.43 15.4136 10.4341C15.415 10.4435 15.415 10.4517 15.4136 10.4598C15.4136 10.4666 15.4096 10.4707 15.4068 10.4761C15.4068 10.4774 15.4041 10.4801 15.4041 10.4815C15.4001 10.4856 15.3946 10.491 15.3892 10.4937C15.3824 10.4978 15.3743 10.5005 15.3662 10.5032C15.3567 10.514 15.3472 10.5235 15.3377 10.5344C15.3337 10.5384 15.3309 10.5425 15.3282 10.5452C15.3201 10.5533 15.3133 10.5628 15.3065 10.571C15.1534 10.777 15.0002 10.9844 14.8471 11.1904C14.8471 11.1972 14.8443 11.2012 14.8403 11.2053C14.8403 11.2053 14.8389 11.2066 14.8376 11.208C14.8349 11.2107 14.8308 11.2121 14.8267 11.2121C14.721 11.3612 14.6126 11.5089 14.5082 11.6594C14.4879 11.6892 14.4675 11.719 14.4472 11.7488C14.2913 11.9779 14.1449 12.2137 13.9877 12.4414C13.9091 12.5553 13.8346 12.6719 13.76 12.7871C13.6841 12.9023 13.6082 13.0175 13.5255 13.13C13.3941 13.3103 13.2816 13.5068 13.1663 13.6979C13.1162 13.7806 13.066 13.8633 13.0172 13.946C12.4602 14.8704 11.9194 15.8042 11.4585 16.7815C11.4314 16.8384 11.4002 16.8913 11.3691 16.9455C11.3379 16.9984 11.3054 17.0526 11.2783 17.1068C11.121 17.4226 10.9679 17.7398 10.8188 18.0597C10.7632 18.1789 10.709 18.2982 10.6534 18.4188C10.5816 18.5747 10.5111 18.7319 10.4419 18.8892C10.3538 19.0884 10.2658 19.289 10.179 19.491C10.1424 19.575 10.1072 19.6604 10.0719 19.7458C10.0272 19.8515 9.98246 19.9572 9.93909 20.0643C9.78457 20.4398 9.63547 20.8193 9.49044 21.1988C9.44842 21.31 9.40642 21.4211 9.36576 21.5336C9.26681 21.8047 9.17056 22.0758 9.07433 22.3482C9.05129 22.4133 9.02824 22.4783 9.0052 22.5434C8.98758 22.5935 8.96996 22.645 8.95369 22.6966C8.90896 22.8253 8.86695 22.9554 8.82628 23.0856C8.77613 23.2441 8.72734 23.4027 8.67854 23.5613C8.6433 23.6752 8.60808 23.7877 8.57148 23.9015C8.4888 24.155 8.39255 24.4057 8.36002 24.6728C8.35866 24.6863 8.34241 24.6985 8.33428 24.7107C8.29362 24.8219 8.26921 24.9357 8.2421 25.0496C8.22854 25.1038 8.21228 25.158 8.19601 25.2122C8.17975 25.2664 8.16348 25.3207 8.14857 25.3749C8.08622 25.608 8.02523 25.8425 7.9683 26.077C7.91544 26.2884 7.86529 26.5026 7.8165 26.7154C7.76228 26.9553 7.71077 27.1952 7.66062 27.4351C7.61725 27.6452 7.57524 27.8566 7.53594 28.0681C7.50476 28.2362 7.47357 28.4029 7.44511 28.571C7.41936 28.7187 7.39631 28.8664 7.37192 29.0142C7.3421 29.2026 7.31363 29.3896 7.28788 29.578C7.26484 29.7475 7.24315 29.9155 7.22147 30.085C7.16454 30.5499 7.11845 31.0148 7.08186 31.4824C7.07237 31.6166 7.06288 31.7494 7.0561 31.8836C7.04797 32.0178 7.04119 32.1506 7.03577 32.2848C7.02493 32.5518 7.01681 32.8202 7.00868 33.0872C7.00732 33.1482 7.00731 33.2092 7.00595 33.2702C7.00595 33.2892 7.00595 33.3068 7.00595 33.3258C7.0046 33.6687 7.01815 34.0103 7.029 34.3505C7.029 34.3654 7.03172 34.3816 7.03172 34.3966C7.03443 34.4576 7.03713 34.5185 7.04119 34.5795C7.05339 34.8262 7.07374 35.0729 7.09949 35.3196C7.11711 35.4863 7.13607 35.6544 7.15776 35.8211C7.16047 35.8455 7.16455 35.8685 7.16726 35.8929C7.21335 36.2318 7.26621 36.5693 7.33262 36.9041C7.45597 37.5303 7.61997 38.1457 7.84497 38.7434C7.84904 38.7529 7.85309 38.7637 7.85716 38.7746C8.02523 39.2164 8.22041 39.6461 8.46032 40.0554C8.85475 40.7291 9.33592 41.3255 9.94993 41.8012C10.0231 41.8582 10.0977 41.9124 10.1736 41.9666C10.2468 42.0167 10.3254 42.0628 10.4013 42.1089C10.4149 42.1184 10.4311 42.1252 10.446 42.1319C10.4569 42.1374 10.4677 42.1414 10.4785 42.1469C10.4975 42.1563 10.5151 42.1685 10.5273 42.1862C10.5314 42.1916 10.5355 42.1997 10.5395 42.2079V42.2051C10.5599 42.2024 10.5775 42.2065 10.587 42.2282H10.5883C10.6073 42.2282 10.6249 42.2336 10.6344 42.2512C10.6399 42.2512 10.6439 42.2512 10.648 42.2526H10.6493C10.6615 42.2553 10.6724 42.2607 10.6805 42.2729C10.6805 42.2729 10.6805 42.2729 10.6805 42.2743C10.6805 42.2743 10.6832 42.2743 10.6846 42.2743C10.6873 42.2743 10.69 42.2743 10.6927 42.2743C10.6954 42.2743 10.6968 42.2756 10.7008 42.2756C10.7022 42.2756 10.7049 42.2756 10.7063 42.277C10.709 42.277 10.7117 42.2797 10.7144 42.281C10.7144 42.281 10.7171 42.281 10.7185 42.2824C10.7212 42.2851 10.7239 42.2878 10.7266 42.2905C10.7266 42.2905 10.7266 42.2905 10.7279 42.2905C10.7537 42.3176 10.7889 42.3244 10.8215 42.3393C11.4978 42.6389 12.1755 42.9384 12.8519 43.238C13.1867 43.3857 13.5188 43.5416 13.8725 43.6392C14.2263 43.7368 14.5855 43.8032 14.9528 43.8181C15.0138 43.8181 15.0748 43.8181 15.1358 43.8181C15.3187 43.8181 15.5017 43.8181 15.6847 43.8181C15.8623 43.8127 16.0385 43.7896 16.2133 43.7625C16.9249 43.6554 17.608 43.4454 18.2681 43.1621C19.4772 42.6429 20.5683 41.9341 21.5916 41.114C21.8166 40.9338 22.0362 40.7481 22.2544 40.5597C23.0148 40.5732 23.7739 40.5773 24.5343 40.5691C25.258 40.561 25.9832 40.5488 26.707 40.5204C26.7422 40.5 26.7802 40.5 26.8181 40.5149C26.829 40.5149 26.8398 40.5149 26.8507 40.5149C26.894 40.4946 26.9388 40.496 26.9835 40.5095H27.016C27.0418 40.4932 27.0689 40.4905 27.096 40.496C27.096 40.496 27.0974 40.496 27.0987 40.496H27.1001C27.1096 40.4987 27.1177 40.5014 27.1258 40.5041H27.1583C27.176 40.4932 27.1936 40.4892 27.2112 40.4878C27.2302 40.4878 27.2492 40.4919 27.2695 40.4973C27.2803 40.4973 27.2912 40.4973 27.302 40.4973C27.3142 40.4905 27.3264 40.4865 27.3386 40.4838C27.363 40.4783 27.3888 40.481 27.4145 40.4905C27.4254 40.4905 27.4349 40.4905 27.4457 40.4905C27.4457 40.4905 27.4484 40.4905 27.4498 40.4892C27.485 40.4716 27.5216 40.4716 27.5568 40.4851C27.5677 40.4851 27.5785 40.4851 27.588 40.4851C27.6246 40.4621 27.6612 40.4648 27.7005 40.4783C27.7114 40.4783 27.7222 40.4783 27.7317 40.4783C27.7683 40.4567 27.8062 40.4594 27.8442 40.4716C27.855 40.4716 27.8659 40.4716 27.8754 40.4716C27.8835 40.4661 27.8903 40.4634 27.8971 40.4607C27.9093 40.4566 27.9201 40.4566 27.9323 40.4566C27.9431 40.4566 27.9553 40.4594 27.9662 40.4648C28.1315 40.4566 28.2955 40.4512 28.4609 40.4417C29.7269 40.3672 30.9888 40.2669 32.2493 40.1273C34.1632 39.9145 36.0648 39.6285 37.9434 39.2002C39.223 38.9088 40.4849 38.5591 41.7047 38.067C42.3594 37.8027 42.9951 37.5005 43.5833 37.1047C43.9371 36.8661 44.2651 36.5978 44.5281 36.2548C44.6934 36.0366 44.8276 35.8021 44.8791 35.5283C44.8995 35.5066 44.9076 35.4809 44.909 35.4538C44.9212 35.2573 44.9279 35.0621 44.9103 34.8655L44.8995 34.8669ZM27.9093 30.7207C27.5568 30.699 27.2058 30.68 26.8534 30.6651C27.2058 30.6813 27.5568 30.7003 27.9093 30.7207ZM20.0925 37.1196C20.0356 37.1697 19.9787 37.2213 19.9218 37.2714C19.5219 37.6225 19.1099 37.9545 18.6802 38.2649C18.2505 38.574 17.8046 38.8613 17.3383 39.1175C17.2719 39.1541 17.2041 39.1907 17.1364 39.2259C16.9805 39.3072 16.8233 39.3845 16.6647 39.4591C16.5061 39.5323 16.3448 39.6 16.1821 39.6637C15.8568 39.7911 15.5234 39.8969 15.1791 39.9782C15.03 40.0134 14.8809 40.0432 14.7318 40.0663C14.679 40.0744 14.6261 40.0826 14.5746 40.0907C14.3713 40.1178 14.168 40.1341 13.9633 40.1395C13.8955 40.1408 13.8264 40.1422 13.7587 40.1408C13.6895 40.1408 13.6218 40.1381 13.5527 40.1354C13.5228 40.1341 13.4944 40.13 13.4645 40.1273C13.4361 40.1246 13.4063 40.1205 13.3764 40.1178C13.3385 40.1151 13.31 40.0988 13.2816 40.0744C13.2002 40.0012 13.123 39.9253 13.0471 39.8467C12.9346 39.7301 12.8275 39.6082 12.7272 39.4821C12.6608 39.3981 12.5957 39.3113 12.5334 39.2219C12.5022 39.1771 12.4724 39.1324 12.4425 39.0877C12.4398 39.0836 12.4385 39.0795 12.4371 39.0755C12.4358 39.0687 12.4331 39.0606 12.4317 39.0538C12.4195 39.0416 12.4032 39.0294 12.3938 39.0158L12.391 39.0131C12.2514 38.7922 12.1254 38.5645 12.0115 38.33C11.9546 38.2121 11.9004 38.0955 11.8502 37.9749C11.7987 37.8556 11.7513 37.7336 11.7066 37.6103C11.7011 37.5954 11.7025 37.5804 11.6998 37.5642C11.6212 37.4178 11.5819 37.2579 11.5331 37.102C11.4246 36.7536 11.3392 36.3999 11.2688 36.042C11.2566 35.9783 11.2444 35.916 11.2322 35.8523C11.2267 35.8265 11.224 35.8021 11.2186 35.7764C11.2132 35.7452 11.2064 35.714 11.201 35.6829C11.201 35.6747 11.201 35.6679 11.1983 35.6598C11.1956 35.6327 11.1942 35.6042 11.1915 35.5771C11.1454 35.3779 11.1251 35.1746 11.102 34.9713C11.0234 34.3234 10.9936 33.6728 10.9923 33.0222C10.9923 32.7768 10.995 32.5301 11.0017 32.2835C11.0058 32.1371 11.0126 31.992 11.0207 31.847C11.5561 31.7196 12.0956 31.6071 12.6364 31.5041C13.5608 31.3292 14.4906 31.1869 15.4231 31.0717C15.438 31.0704 15.4529 31.0676 15.4678 31.0663C15.4855 31.0636 15.5031 31.0622 15.5207 31.0636C15.5315 31.0636 15.5424 31.0663 15.5532 31.069C15.6983 31.0378 15.846 31.0216 15.9937 31.0066C16.0615 30.9999 16.1293 30.9931 16.1957 30.9863C17.2204 30.8725 18.2465 30.7857 19.2739 30.7234C19.5626 30.7057 19.8513 30.6895 20.1386 30.6759C20.876 30.6407 21.6133 30.6176 22.3507 30.6041C22.7546 30.596 23.1585 30.5919 23.5624 30.5919C24.1385 30.5919 24.7145 30.5987 25.2892 30.6122C25.1645 30.8196 25.0385 31.027 24.9097 31.2316C24.8162 31.3821 24.7213 31.5312 24.6251 31.6789C24.4529 31.9432 24.2781 32.2048 24.0992 32.4651C23.7684 32.9449 23.4255 33.4152 23.069 33.8761C22.9565 34.0225 22.8427 34.1675 22.7261 34.3112C22.7058 34.3369 22.6855 34.3627 22.6651 34.3871C22.4971 34.5958 22.3263 34.8005 22.1514 35.0024C21.86 35.3399 21.5605 35.6693 21.2528 35.9919C21.1593 36.0895 21.0657 36.1871 20.9708 36.2833C20.7269 36.53 20.4748 36.7713 20.2172 37.0057C20.2958 37.0098 20.3745 37.0125 20.4531 37.0166C20.3745 37.0125 20.2958 37.0098 20.2172 37.0057C20.1752 37.0437 20.1332 37.083 20.0912 37.121L20.0925 37.1196ZM21.4642 37.0545C21.7624 37.064 22.062 37.0722 22.3602 37.0776C22.0606 37.0722 21.7624 37.064 21.4642 37.0545ZM41.1748 33.8801C41.1666 33.891 41.1531 33.9018 41.1314 33.9181C41.1029 33.9398 41.0745 33.9628 41.0446 33.9832C41.0162 34.0048 40.9864 34.0252 40.9565 34.0469C40.901 34.0862 40.844 34.1241 40.7858 34.1607C40.779 34.1648 40.7722 34.1688 40.7654 34.1743C40.718 34.2041 40.6705 34.2339 40.6218 34.2624C40.5499 34.3057 40.4794 34.3464 40.4062 34.3871C39.9102 34.6636 39.3883 34.8859 38.8556 35.0824C38.3528 35.2667 37.8431 35.428 37.3294 35.5717C36.5934 35.7777 35.848 35.9485 35.0957 36.0976C34.3651 36.244 33.6318 36.3673 32.8958 36.4744C32.1599 36.5815 31.4212 36.671 30.6811 36.7482C30.4385 36.774 30.1959 36.797 29.9532 36.8201C29.4666 36.8648 28.98 36.9027 28.4934 36.9353C28.2495 36.9515 28.0055 36.9664 27.7629 36.98C27.2166 37.0112 26.6704 37.0342 26.1242 37.0518C26.0252 37.0545 25.9263 37.0586 25.826 37.0613C25.7352 37.064 25.6443 37.0667 25.5522 37.0694C25.7758 36.7929 25.9995 36.5178 26.2041 36.2264C26.234 36.1898 26.2638 36.1532 26.2922 36.1152C26.73 35.5256 27.1502 34.9252 27.5541 34.3139C27.5758 34.28 27.6883 34.1092 27.7222 34.0563C27.9784 33.6619 28.2264 33.2634 28.469 32.8595C28.8648 32.1981 29.243 31.5271 29.6022 30.8467C30.288 30.9063 30.9725 30.9755 31.657 31.0595C31.7071 31.0649 31.7573 31.0758 31.8088 31.0839C32.1151 31.1056 32.4187 31.1517 32.721 31.1964C33.11 31.2533 33.499 31.3157 33.8867 31.3807C34.4099 31.4688 34.933 31.5664 35.4522 31.6789C35.7327 31.7399 36.012 31.8023 36.2925 31.8633C36.2952 31.8633 36.2993 31.8633 36.302 31.8646C36.3047 31.8646 36.3074 31.8646 36.3115 31.866C36.3291 31.8687 36.3495 31.8687 36.3684 31.8714C36.3928 31.8741 36.4172 31.8809 36.4362 31.9012C37.0353 32.0544 37.633 32.2157 38.2199 32.4095C38.2742 32.4271 38.3365 32.4326 38.3785 32.4786C38.5317 32.5057 38.6713 32.5694 38.815 32.6223C38.941 32.6684 39.0671 32.7172 39.1918 32.7673C39.5483 32.9083 39.898 33.0642 40.2368 33.2444C40.371 33.3149 40.5025 33.3895 40.6326 33.4681C40.8047 33.5725 40.9728 33.6822 41.13 33.8083C41.1761 33.8449 41.1897 33.8598 41.1721 33.8815L41.1748 33.8801Z" fill="#007FFF"/>
<path d="M44.9118 24.1116C44.8955 23.7877 44.7721 23.5017 44.5837 23.2415C44.3181 22.8714 43.9752 22.5827 43.6038 22.3279C42.9708 21.8942 42.2782 21.5757 41.5693 21.291C41.1749 21.1324 40.775 20.9915 40.3711 20.8613C39.7557 20.6635 39.1309 20.494 38.5033 20.3395C37.7185 20.147 36.9297 19.9803 36.1354 19.8353C35.6515 19.7472 35.1663 19.6618 34.6797 19.5913C34.6648 19.5913 34.6499 19.59 34.6349 19.5886C34.6268 19.5886 34.6173 19.5872 34.6092 19.5859C34.5916 19.5845 34.5726 19.5818 34.555 19.5805C34.5143 19.575 34.4723 19.5669 34.433 19.5574C34.288 19.5344 34.1443 19.5113 33.9993 19.4869C33.9152 19.4747 33.8312 19.4625 33.7471 19.4517C33.7146 19.4463 33.6821 19.4422 33.6496 19.4382C33.3148 19.3975 32.9786 19.3582 32.6438 19.3148C32.5462 19.3026 32.4486 19.2945 32.3511 19.2836C32.2535 19.2741 32.1559 19.2619 32.0596 19.243C31.409 19.182 30.7584 19.1169 30.1065 19.0641C30.0157 19.0573 29.9249 19.0491 29.834 19.0424C29.2729 18.9976 28.7118 18.9597 28.1493 18.9326C27.8795 18.9204 27.6084 18.9055 27.3374 18.8919C27.1327 18.8824 26.9267 18.8716 26.722 18.8635C26.253 18.8458 25.7854 18.835 25.3164 18.8255C25.1416 18.8214 24.9667 18.8187 24.7932 18.816C24.4991 18.8106 24.7932 18.816 24.7932 18.816C24.7932 18.816 25.1145 17.5229 25.2432 16.8696C25.3408 16.3803 25.4249 15.8883 25.4994 15.3949C25.5482 15.0642 25.5916 14.7335 25.6295 14.4014C25.6688 14.0544 25.7 13.7061 25.7217 13.3564C25.7447 12.9837 25.7596 12.6096 25.7678 12.2368C25.7773 11.7367 25.761 11.2379 25.7244 10.7391C25.7 10.4097 25.6688 10.0817 25.6268 9.75369C25.5699 9.30504 25.4886 8.86182 25.3815 8.42267C25.2961 8.07161 25.1985 7.72191 25.0684 7.38306C25.0616 7.38306 25.0548 7.38306 25.048 7.38577C25.0413 7.38577 25.0345 7.38848 25.0291 7.38983C25.0074 7.39661 24.9884 7.40745 24.9681 7.41559C24.3988 7.65414 23.8607 7.95098 23.3416 8.2817C23.3118 8.30068 23.2792 8.31559 23.267 8.35218C23.3917 9.13968 23.45 9.93125 23.4568 10.7282C23.4676 11.8681 23.3836 13.0013 23.2277 14.1303C23.1098 14.9802 22.9539 15.8232 22.7642 16.6609C22.6002 17.3874 22.4104 18.1071 22.199 18.8201C21.688 18.8255 21.1756 18.8418 20.6646 18.858C19.9842 18.8811 19.3038 18.9122 18.6247 18.9556C18.0256 18.9936 17.4252 19.0329 16.8261 19.0844C16.048 19.1522 15.2714 19.2281 14.4974 19.3229C14.3118 19.7079 14.1315 20.0955 13.958 20.4859C13.6991 21.0687 13.4551 21.657 13.2261 22.2507C13.2369 22.2493 13.2464 22.2479 13.2572 22.2466C14.1613 22.1192 15.0694 22.0135 15.9776 21.9226C16.2378 21.8969 16.498 21.8657 16.7596 21.8427C17.4048 21.7885 18.0514 21.7519 18.6979 21.7112C19.5383 21.657 20.38 21.6231 21.223 21.5987C21.2339 21.5987 21.2434 21.5987 21.2542 21.5987C21.9712 21.5784 22.6883 21.5689 23.4066 21.5675C23.5869 21.5675 23.7672 21.5675 23.9488 21.5689C24.3581 21.5702 24.7688 21.5743 25.1782 21.5811C25.6431 21.5892 26.1066 21.6068 26.5715 21.6231C26.5756 21.6231 26.5797 21.6231 26.5837 21.6231C27.0283 21.6394 27.4729 21.6556 27.9175 21.6773C28.259 21.6936 28.6006 21.718 28.9422 21.7437C29.0154 21.7491 29.0886 21.7546 29.1618 21.76C29.6741 21.7966 30.1851 21.8345 30.6974 21.8738C30.8235 21.8833 30.9482 21.901 31.0743 21.9131C31.752 21.9728 32.4283 22.0487 33.1033 22.1354C33.4056 22.1734 33.7065 22.2141 34.0087 22.2547C34.6444 22.3428 35.2788 22.4485 35.9104 22.5583C36.519 22.6654 37.1262 22.786 37.728 22.9229C38.258 23.0436 38.7852 23.175 39.3084 23.3174C39.9956 23.5044 40.6706 23.7226 41.3375 23.9693C41.9136 24.1835 42.4706 24.4356 43.0101 24.7297C43.3815 24.933 43.7339 25.1607 44.0551 25.4372C44.3465 25.688 44.6014 25.9699 44.7708 26.3223C44.8386 26.4619 44.8697 26.6124 44.9131 26.7588C44.9145 26.4674 44.9172 26.176 44.9185 25.8845C44.9185 25.4522 44.9185 25.0184 44.9185 24.586C44.9185 24.4288 44.924 24.2702 44.9158 24.1144L44.9118 24.1116Z" fill="#FF1100"/>
<path d="M27.8025 3.43459C27.6981 3.40071 27.591 3.37631 27.4907 3.32887C27.4907 3.31532 27.4921 3.30176 27.4934 3.28821C27.6181 3.32616 27.7361 3.37902 27.8458 3.4495C27.8309 3.44408 27.816 3.44002 27.8011 3.43459H27.8025Z" fill="#404A5A"/>
<path d="M27.4378 3.30723C27.4378 3.30723 27.4472 3.3113 27.45 3.31536C27.45 3.31536 27.4486 3.31536 27.4472 3.31536C27.4364 3.32214 27.4296 3.31672 27.4229 3.30723C27.4283 3.30587 27.4323 3.30452 27.4378 3.30723Z" fill="#404A5A"/>
<path d="M14.8362 11.1918C14.8362 11.1918 14.8335 11.2026 14.8295 11.2067C14.8295 11.2067 14.8281 11.208 14.8268 11.2094C14.8241 11.2121 14.82 11.2135 14.8159 11.2135C14.8159 11.2121 14.8159 11.2107 14.8159 11.2094V11.2053C14.8159 11.2053 14.8241 11.1972 14.8281 11.1945C14.8308 11.1945 14.8335 11.1918 14.8362 11.1918Z" fill="#404A5A"/>
<path d="M15.3949 10.4801C15.3949 10.4801 15.3854 10.4896 15.38 10.4923C15.3732 10.4963 15.3664 10.499 15.3569 10.5017C15.3569 10.4963 15.3569 10.4923 15.3569 10.4882C15.3569 10.4841 15.3569 10.4801 15.3583 10.4774C15.361 10.4706 15.3637 10.4638 15.3678 10.4584C15.3718 10.453 15.3786 10.4489 15.384 10.4435C15.3908 10.4394 15.3976 10.4353 15.4044 10.4313C15.4057 10.4408 15.4057 10.4489 15.4044 10.457C15.4044 10.4638 15.4003 10.4679 15.3976 10.4733C15.3976 10.4746 15.3949 10.4774 15.3949 10.4787V10.4801Z" fill="#404A5A"/>
<path d="M15.6078 10.1941C15.6078 10.1941 15.6051 10.1941 15.6051 10.1954C15.6037 10.1954 15.601 10.1954 15.5997 10.1954C15.5983 10.1954 15.5969 10.1954 15.5942 10.1954C15.601 10.1873 15.6078 10.1778 15.6146 10.1697C15.6146 10.1724 15.6146 10.1737 15.6146 10.1765C15.6146 10.1832 15.6119 10.1873 15.6064 10.1914L15.6078 10.1941Z" fill="#215CB5"/>
<path d="M15.7173 10.0274C15.7173 10.0206 15.7227 10.0152 15.7281 10.0125C15.7308 10.0125 15.7336 10.0111 15.7363 10.0098C15.7363 10.0138 15.7349 10.0152 15.7336 10.0179C15.7336 10.0206 15.7336 10.0233 15.7308 10.026C15.7308 10.0274 15.7281 10.0287 15.7268 10.0301C15.7241 10.0315 15.72 10.0328 15.7173 10.0342C15.7173 10.0315 15.7173 10.0301 15.7173 10.0274Z" fill="#215CB5"/>
<path d="M25.3398 2.34888C25.3656 2.33804 25.3819 2.34888 25.3968 2.36922C25.3737 2.37464 25.3493 2.38006 25.3398 2.35024V2.34888Z" fill="#FEC35E"/>
<path d="M25.3384 2.349H25.3394L25.3384 2.34999V2.349Z" fill="#FDBF41"/>
<path d="M18.9165 6.61446C18.9246 6.60768 18.9314 6.60091 18.9395 6.59277C18.9395 6.59413 18.9395 6.59684 18.9395 6.5982C18.9395 6.60362 18.9368 6.60633 18.9341 6.61039H18.9328C18.9328 6.61039 18.9246 6.61446 18.9165 6.61446Z" fill="#404A5A"/>
<path d="M19.0747 6.45453C19.0815 6.45046 19.0897 6.44775 19.0991 6.44775C19.0991 6.45995 19.0964 6.46673 19.091 6.46944C19.0829 6.47486 19.068 6.4708 19.0571 6.47215C19.0626 6.46402 19.068 6.4586 19.0747 6.45453Z" fill="#404A5A"/>
<path d="M19.1765 6.38677C19.1765 6.38677 19.1738 6.39761 19.1697 6.40168C19.1697 6.40168 19.167 6.40303 19.1656 6.40439C19.1629 6.40575 19.1589 6.4071 19.1548 6.4071C19.1616 6.39897 19.1697 6.38948 19.1765 6.38135C19.1765 6.38406 19.1765 6.38541 19.1765 6.38812V6.38677Z" fill="#404A5A"/>
<path d="M20.5197 5.32138C20.5197 5.32138 20.517 5.3268 20.5157 5.32951C20.5116 5.33358 20.5062 5.33493 20.498 5.33493C20.5048 5.3268 20.513 5.32002 20.5211 5.31189C20.5211 5.31596 20.5211 5.31867 20.5211 5.32273L20.5197 5.32138Z" fill="#404A5A"/>
<path d="M20.4953 5.3363C20.4953 5.3363 20.4953 5.34037 20.4953 5.34173C20.4953 5.34715 20.4926 5.34986 20.4899 5.35121C20.4872 5.35257 20.4845 5.35257 20.4791 5.35121C20.4777 5.35121 20.475 5.35121 20.4736 5.3485C20.4818 5.34444 20.4885 5.34037 20.4967 5.3363H20.4953Z" fill="#404A5A"/>
<path d="M27.4837 3.28154C26.8142 2.98334 26.1432 2.68651 25.4736 2.38696C25.4465 2.37476 25.4194 2.38425 25.395 2.36934C25.372 2.37476 25.3476 2.38018 25.3381 2.35036C25.311 2.36256 25.2852 2.35036 25.2595 2.34087C24.6726 2.16467 24.0721 2.11045 23.4608 2.14163C22.6517 2.18364 21.8764 2.38154 21.1227 2.67295C20.8855 2.76376 20.6524 2.86407 20.4247 2.97114C20.3678 2.99825 20.3108 3.02536 20.2539 3.05382C20.1875 3.08635 20.1211 3.11889 20.056 3.15413C19.9679 3.19886 19.8812 3.24494 19.7931 3.29238C19.3363 3.54178 18.8931 3.81964 18.4634 4.11783C18.3739 4.18018 18.2845 4.24253 18.1964 4.30623L18.1435 4.34419C17.9321 4.4987 17.7247 4.65593 17.5214 4.81858C17.0117 5.22386 16.5224 5.65488 16.0494 6.10623C14.736 7.36 13.569 8.74389 12.5009 10.2105C12.4738 10.2484 12.4467 10.2877 12.4196 10.3257C12.4196 10.3257 12.4169 10.3352 12.4142 10.3379C12.4115 10.3406 12.4074 10.3419 12.402 10.3433C12.3057 10.4802 12.2109 10.6157 12.1146 10.7526C11.9547 10.9803 11.7975 11.208 11.6429 11.4398C11.4966 11.6594 11.3515 11.8817 11.2092 12.104C11.0954 12.2802 10.9842 12.4577 10.8744 12.6367C10.7768 12.7966 10.6792 12.9552 10.583 13.1151C10.4475 13.3415 10.3133 13.5692 10.1804 13.7996C10.114 13.9148 10.049 14.0286 9.98391 14.1452C9.97713 14.1588 9.96765 14.171 9.95951 14.1845C9.95951 14.1994 9.95409 14.2116 9.94867 14.2238C9.94325 14.232 9.93783 14.2414 9.93376 14.2496C9.87277 14.358 9.81313 14.4678 9.75349 14.5776C9.52849 14.9883 9.30891 15.403 9.09747 15.8205C9.00801 15.9967 8.9199 16.1743 8.83316 16.3518C8.36418 17.3115 7.92909 18.286 7.52924 19.2741C7.31644 19.7987 7.11448 20.3273 6.92201 20.8586C6.82036 21.1405 6.72006 21.4238 6.62382 21.7085C6.44626 22.2344 6.28361 22.7643 6.12503 23.2957C6.05997 23.5139 5.99626 23.7335 5.93527 23.953C5.93391 23.9585 5.93256 23.9639 5.9312 23.9693C5.83497 24.3136 5.74551 24.6592 5.66147 25.0062C5.58421 25.318 5.50966 25.6311 5.44054 25.9455C5.3809 26.2139 5.32668 26.4836 5.27247 26.7533C5.26027 26.8171 5.24807 26.8808 5.23587 26.9458C5.23045 26.9716 5.22638 26.9973 5.22096 27.0231C5.2196 27.0326 5.21689 27.0421 5.21554 27.0529C5.20605 27.1044 5.19521 27.1546 5.18572 27.2061C5.10846 27.6276 5.03933 28.0505 4.97969 28.4761C4.92141 28.8868 4.86991 29.2961 4.82653 29.7082C4.81704 29.8003 4.80891 29.8925 4.79942 29.9847C4.79942 29.9914 4.79807 29.9982 4.79807 30.005C4.79129 30.0755 4.78722 30.1256 4.7818 30.1758C4.76283 30.4049 4.74656 30.6353 4.73301 30.8643C4.71945 31.0948 4.70861 31.3252 4.70183 31.5556C4.70183 31.5854 4.70183 31.6152 4.69912 31.6451C4.68557 32.0883 4.68286 32.5302 4.69641 32.972C4.70997 33.3895 4.73301 33.8056 4.77232 34.2217C4.81027 34.6365 4.86313 35.0499 4.93497 35.4633C4.97021 35.6652 5.00816 35.8658 5.05153 36.0651C5.19521 36.7374 5.38903 37.3961 5.65469 38.0332C5.67367 38.0779 5.69129 38.1213 5.71162 38.166C5.7306 38.2094 5.75093 38.2541 5.76991 38.2975C5.81599 38.4005 5.86478 38.5021 5.91494 38.6024C5.99897 38.7705 6.08843 38.9345 6.18331 39.0945C6.44355 39.5336 6.74988 39.9416 7.11313 40.3103C7.20801 40.4079 7.30695 40.5 7.40861 40.5881C7.59972 40.7549 7.80304 40.908 8.01991 41.0449C8.06057 41.0707 8.10801 41.0856 8.13783 41.1249C8.14189 41.1303 8.14596 41.1371 8.14867 41.1439C8.169 41.1398 8.18391 41.1439 8.18933 41.1655C8.27337 41.1859 8.34114 41.2428 8.4184 41.2767C8.83045 41.4597 9.24114 41.6427 9.65319 41.8256C9.88768 41.93 10.1235 42.0317 10.3594 42.1347L10.3892 42.1076C10.3133 42.0601 10.2347 42.0154 10.1615 41.9652C10.0842 41.9124 10.011 41.8568 9.93783 41.7999C9.32382 41.3228 8.84265 40.7277 8.44822 40.0541C8.20831 39.6448 8.01313 39.2151 7.84506 38.7732C7.84099 38.7624 7.83692 38.7529 7.83286 38.7421C7.60786 38.1443 7.44385 37.529 7.32051 36.9027C7.25409 36.568 7.20123 36.2305 7.15515 35.8916C7.15244 35.8672 7.14837 35.8442 7.14566 35.8198C7.12397 35.653 7.105 35.485 7.08737 35.3183C7.06162 35.0716 7.04265 34.8262 7.02909 34.5782C7.02638 34.5172 7.02231 34.4562 7.0196 34.3952C7.0196 34.3803 7.01825 34.364 7.01689 34.3491C7.00469 34.0076 6.9925 33.666 6.99385 33.3244C6.99385 33.3055 6.99385 33.2865 6.99385 33.2689C6.99385 33.2079 6.99385 33.1469 6.99656 33.0859C7.00469 32.8175 7.01283 32.5505 7.02367 32.2835C7.02909 32.1493 7.03587 32.0164 7.044 31.8823C7.05213 31.7481 7.06027 31.6152 7.06975 31.4811C7.105 31.0134 7.15244 30.5485 7.20936 30.0836C7.22969 29.9142 7.25138 29.7461 7.27578 29.5767C7.30153 29.3883 7.33 29.1999 7.35981 29.0128C7.38286 28.8651 7.40725 28.7174 7.43301 28.5696C7.46147 28.4015 7.49265 28.2348 7.52382 28.0668C7.56313 27.8553 7.60515 27.6452 7.64852 27.4338C7.69867 27.1939 7.75018 26.9526 7.80439 26.714C7.85319 26.5012 7.90334 26.2884 7.9562 26.0756C8.01448 25.8411 8.07412 25.6067 8.13647 25.3735C8.15138 25.3193 8.16765 25.2651 8.18391 25.2109C8.20018 25.1567 8.21644 25.1024 8.23 25.0482C8.25846 24.9344 8.2815 24.8205 8.32216 24.7094C8.33165 24.6972 8.34656 24.685 8.34792 24.6714C8.38045 24.403 8.47668 24.1523 8.55936 23.9002C8.59596 23.7877 8.6312 23.6738 8.66644 23.56C8.71524 23.4014 8.76403 23.2428 8.81418 23.0842C8.85484 22.9541 8.89686 22.824 8.94159 22.6952C8.95921 22.6451 8.97548 22.5936 8.9931 22.5421C9.01614 22.477 9.03918 22.4119 9.06222 22.3469C9.15981 22.0758 9.25469 21.8033 9.35364 21.5323C9.3943 21.4211 9.43632 21.3086 9.47834 21.1975C9.62337 20.8166 9.77247 20.4384 9.92698 20.063C9.97036 19.9559 10.0151 19.8502 10.0598 19.7445C10.0964 19.6591 10.1317 19.575 10.1669 19.4896C10.2536 19.289 10.3417 19.0884 10.4298 18.8878C10.499 18.7306 10.5695 18.5747 10.6413 18.4175C10.6955 18.2969 10.7511 18.1789 10.8067 18.0583C10.9557 17.7384 11.1076 17.4213 11.2661 17.1055C11.2932 17.0499 11.3258 16.997 11.357 16.9442C11.3881 16.8913 11.4193 16.8371 11.4464 16.7802C11.9073 15.8029 12.4481 14.869 13.0051 13.9446C13.0553 13.8619 13.1041 13.7793 13.1542 13.6966C13.2708 13.5041 13.382 13.3089 13.5134 13.1287C13.5961 13.0162 13.672 12.9023 13.7479 12.7858C13.8238 12.6705 13.8983 12.554 13.9756 12.4401C14.1328 12.2124 14.2792 11.9766 14.4351 11.7475C14.4554 11.7177 14.4758 11.6879 14.4961 11.658C14.6004 11.5076 14.7089 11.3598 14.8146 11.2108C14.8146 11.2094 14.8146 11.208 14.8146 11.2067V11.2026C14.8146 11.2026 14.8227 11.1945 14.8268 11.1918C14.8295 11.1918 14.8322 11.1891 14.8349 11.1891C14.9881 10.983 15.1413 10.7757 15.2944 10.5696C15.3012 10.5602 15.3093 10.552 15.3161 10.5439C15.3202 10.5398 15.3229 10.5358 15.3256 10.533C15.3351 10.5222 15.3446 10.5127 15.3541 10.5019C15.3541 10.4964 15.3541 10.4924 15.3541 10.4883C15.3541 10.4842 15.3541 10.4802 15.3554 10.4775C15.3581 10.4693 15.3608 10.4639 15.3649 10.4585C15.369 10.4531 15.3758 10.449 15.3812 10.4436C15.388 10.4395 15.3947 10.4355 15.4015 10.4314C15.4056 10.4273 15.4083 10.4233 15.411 10.4192C15.4706 10.3446 15.5316 10.2701 15.5913 10.1955C15.598 10.1874 15.6048 10.1779 15.6116 10.1698C15.6116 10.1644 15.6143 10.1603 15.617 10.1549C15.6184 10.1508 15.6211 10.1454 15.6238 10.1413C15.6292 10.1332 15.636 10.1251 15.6428 10.1183C15.6428 10.1169 15.6455 10.1156 15.6468 10.1142C15.6726 10.0898 15.7051 10.0695 15.7119 10.0329C15.7119 10.0302 15.7119 10.0288 15.7119 10.0261C15.7119 10.0193 15.7173 10.0139 15.7227 10.0112C15.7255 10.0112 15.7282 10.0098 15.7309 10.0085C15.7485 9.99494 15.7648 9.98139 15.7783 9.96512C15.7824 9.96105 15.7851 9.95699 15.7878 9.95428C15.7986 9.94208 15.8081 9.92852 15.8176 9.91497C15.8298 9.89735 15.842 9.87837 15.8542 9.8594C15.8637 9.84584 15.8732 9.83093 15.8827 9.81738C15.8895 9.80789 15.8962 9.7984 15.903 9.79027C15.9491 9.73334 15.9965 9.67642 16.0426 9.62084C16.3679 9.2237 16.7027 8.83605 17.047 8.45654C17.3167 8.15834 17.5959 7.86964 17.8779 7.58364C17.9267 7.53349 17.9768 7.48334 18.0256 7.43455C18.1178 7.34238 18.214 7.25699 18.3089 7.16889C18.3468 7.13364 18.3848 7.09976 18.4214 7.06316C18.4295 7.05639 18.4363 7.04825 18.4444 7.04148C18.5623 6.92762 18.683 6.81376 18.8023 6.70126C18.805 6.69855 18.8077 6.6972 18.8104 6.69449C18.8416 6.66602 18.8768 6.64027 18.9093 6.61452C18.9175 6.60774 18.9242 6.60096 18.9324 6.59283C18.9351 6.59012 18.9364 6.58876 18.9392 6.58605C18.9758 6.5481 19.0137 6.51151 19.0503 6.47355C19.0557 6.46542 19.0611 6.46 19.0679 6.45593C19.0747 6.45187 19.0828 6.44916 19.0923 6.44916C19.1032 6.4478 19.1126 6.44238 19.1208 6.43696C19.1262 6.43289 19.1316 6.42747 19.137 6.42205C19.1411 6.41798 19.1438 6.41256 19.1479 6.40714C19.1547 6.39901 19.1628 6.38952 19.1696 6.38139C19.2658 6.29599 19.362 6.21196 19.461 6.12928C19.4759 6.11708 19.4908 6.10488 19.5057 6.09133C19.6006 6.01136 19.6968 5.93274 19.7944 5.85413C20.0126 5.67928 20.2376 5.50985 20.4667 5.34991C20.4748 5.34584 20.4816 5.34178 20.4898 5.33771H20.4911C20.4979 5.32822 20.506 5.32009 20.5142 5.31331C20.5657 5.27536 20.6185 5.23605 20.67 5.19946C20.7744 5.12355 20.8815 5.05036 20.9872 4.97852C21.0401 4.94328 21.0943 4.90669 21.1485 4.8728C21.2027 4.83756 21.2569 4.80232 21.3111 4.76843C21.4751 4.66542 21.6405 4.56512 21.8086 4.46889C21.9916 4.36316 22.1786 4.26151 22.3657 4.16392C22.9295 3.87386 23.5123 3.62852 24.1223 3.4469C24.1684 3.43334 24.2158 3.41979 24.2619 3.40623C24.5872 3.31542 24.9139 3.24629 25.2459 3.20157C25.4343 3.17581 25.6255 3.15819 25.8166 3.15006C25.9602 3.14328 26.1039 3.14193 26.2489 3.14599C26.2977 3.14735 26.3452 3.1487 26.394 3.15142C26.539 3.15955 26.6827 3.17446 26.8264 3.19479C27.0256 3.2219 27.2221 3.25985 27.4187 3.31C27.4241 3.30864 27.4282 3.30729 27.4336 3.31C27.439 3.31 27.4431 3.31407 27.4458 3.31813C27.4498 3.31949 27.4553 3.32084 27.4593 3.3222C27.4688 3.32491 27.477 3.32762 27.4864 3.33169C27.4864 3.31813 27.4878 3.30458 27.4892 3.29102C27.4864 3.28831 27.4837 3.2856 27.4797 3.28425L27.4837 3.28154Z" fill="#F1ECE2"/>
<path d="M25.3398 2.34896C25.3303 2.30694 25.2897 2.30288 25.2599 2.28932C24.6824 2.03315 24.105 1.77562 23.5249 1.52215C23.3704 1.45438 23.2213 1.37577 23.0614 1.32155C23.0437 1.33239 23.0248 1.33103 23.0058 1.32426C22.6087 1.19414 22.1966 1.12908 21.7818 1.10332C21.401 1.08028 21.0187 1.10332 20.6406 1.15347C20.3288 1.19549 20.0225 1.26055 19.7189 1.34188C19.1293 1.50047 18.5627 1.71598 18.0165 1.98571C17.8064 2.09008 17.6031 2.208 17.3957 2.31779C17.3266 2.35438 17.2547 2.38691 17.1883 2.42622C16.5946 2.77999 16.0186 3.16086 15.4724 3.58511C15.3355 3.69083 15.1959 3.79384 15.0684 3.90905C14.9858 3.9836 14.9058 4.0595 14.8163 4.12456C14.8001 4.13676 14.7824 4.14896 14.7621 4.16116C14.7472 4.17471 14.7323 4.18691 14.7174 4.19911V4.20182C14.7106 4.21944 14.7038 4.23571 14.693 4.2452C14.6862 4.25062 14.6794 4.25333 14.6713 4.25468C14.6672 4.25468 14.6618 4.25468 14.6577 4.25468H14.655C14.655 4.25468 14.6469 4.25197 14.6415 4.25062C14.6374 4.25333 14.6334 4.25604 14.6306 4.25875C14.5832 4.29264 14.5574 4.35092 14.5141 4.3848C14.5073 4.39023 14.5005 4.39429 14.4937 4.39836C14.3799 4.458 14.3108 4.56508 14.2091 4.63827C14.1115 4.70875 14.0302 4.80227 13.9407 4.88496C13.4975 5.29294 13.0787 5.72532 12.6639 6.16176C12.5365 6.29595 12.4226 6.43961 12.3006 6.57922C12.2302 6.65919 12.1515 6.72968 12.0824 6.8083C11.894 7.02381 11.711 7.24474 11.5253 7.46161C11.3871 7.62291 11.257 7.78962 11.1336 7.96176C11.036 8.09866 10.9195 8.22065 10.8151 8.35212C10.4993 8.75739 10.1997 9.17485 9.90019 9.59097C9.60471 10.0017 9.33363 10.4286 9.05305 10.8502C8.80095 11.2283 8.56917 11.62 8.32926 12.0077C8.24116 12.1514 8.16254 12.3005 8.07308 12.4441C7.91992 12.6908 7.7776 12.9443 7.64341 13.2018C7.55938 13.3021 7.50923 13.4241 7.44552 13.5366C7.31269 13.7725 7.18528 14.011 7.07007 14.2564C7.03348 14.335 6.98061 14.4014 6.94266 14.48C6.83558 14.6982 6.72715 14.9164 6.61465 15.1333C6.33408 15.6782 6.08739 16.238 5.83122 16.7951C5.55335 17.3969 5.30667 18.0136 5.06269 18.6303C4.89733 19.0491 4.73061 19.468 4.59914 19.899C4.57745 19.9695 4.53679 20.0332 4.51239 20.1023C4.38498 20.4737 4.25757 20.8437 4.13694 21.2164C4.02444 21.5594 3.91872 21.905 3.81706 22.2506C3.71947 22.5841 3.62594 22.9175 3.53649 23.2523C3.36164 23.9015 3.2017 24.5548 3.0648 25.2122C3.02956 25.3871 2.99432 25.5619 2.96043 25.7368C2.84387 26.3318 2.74085 26.9309 2.65682 27.5327C2.5782 28.1047 2.51314 28.678 2.46164 29.2527C2.45757 29.3056 2.4535 29.3585 2.44944 29.4113C2.44944 29.4601 2.44944 29.5089 2.44944 29.5577C2.44944 29.5089 2.44944 29.4601 2.44944 29.4113C2.42504 29.7258 2.40607 30.0416 2.39387 30.3588C2.37896 30.7207 2.37625 31.0826 2.37354 31.4445C2.37354 31.6166 2.39116 31.7901 2.3898 31.9636C2.38709 32.2279 2.41013 32.4908 2.42504 32.7538C2.43046 32.85 2.43453 32.9476 2.44402 33.0452C2.44537 33.0615 2.44808 33.0791 2.44944 33.0954C2.48061 33.3488 2.50094 33.6036 2.53619 33.8558C2.57007 34.1011 2.60396 34.3464 2.64869 34.589C2.71375 34.9279 2.77474 35.2667 2.87911 35.5961C2.91164 35.6991 2.92926 35.8076 2.95908 35.9133C3.02143 36.1437 3.09597 36.3714 3.1773 36.5951C3.29522 36.9163 3.43076 37.2308 3.57715 37.5398C3.8035 38.0142 4.08408 38.4561 4.41344 38.8654C4.72519 39.2544 5.08167 39.5973 5.48965 39.8847C5.50591 39.8969 5.52354 39.9077 5.54116 39.9186C5.57097 39.9375 5.60079 39.9565 5.63061 39.9755C5.64688 39.9863 5.6645 39.9972 5.68212 40.008C5.73905 40.0433 5.79462 40.0798 5.84884 40.1192C5.84884 40.1192 5.85019 40.1192 5.85155 40.1205C5.86781 40.1327 5.88408 40.1449 5.90034 40.1585C5.90034 40.1612 5.90305 40.1639 5.90441 40.1666C5.9139 40.1801 5.93287 40.1815 5.94778 40.1883C6.6526 40.5 7.35607 40.8118 8.06088 41.1235C8.08935 41.1357 8.11646 41.1547 8.15034 41.1466C8.14628 41.1398 8.14357 41.1344 8.1395 41.1276C8.10968 41.0883 8.06224 41.0734 8.02158 41.0476C7.80607 40.9107 7.6014 40.7576 7.41028 40.5908C7.30863 40.5027 7.20968 40.4092 7.1148 40.313C6.75155 39.9443 6.44522 39.535 6.18498 39.0972C6.0901 38.9372 6.00064 38.7732 5.91661 38.6052C5.86646 38.5048 5.81766 38.4032 5.77158 38.3002C5.75125 38.2555 5.73227 38.2121 5.71329 38.1673C5.69432 38.1226 5.67534 38.0792 5.65637 38.0345C5.3907 37.3975 5.19823 36.7387 5.0532 36.0664C5.00983 35.8672 4.97188 35.6666 4.93664 35.4646C4.86616 35.0526 4.81329 34.6392 4.77399 34.2231C4.73468 33.8083 4.71164 33.3908 4.69808 32.9734C4.68453 32.5315 4.68724 32.0883 4.70079 31.6464C4.70215 31.6166 4.70215 31.5868 4.7035 31.557C4.71164 31.3265 4.72248 31.0961 4.73468 30.8657C4.74823 30.6366 4.7645 30.4062 4.78347 30.1771C4.78754 30.127 4.79296 30.0768 4.79974 30.0064C4.79974 29.9996 4.8011 29.9928 4.8011 29.986C4.80923 29.8939 4.81736 29.8017 4.8282 29.7095C4.87022 29.2975 4.92308 28.8868 4.98137 28.4774C5.04236 28.0518 5.11149 27.6289 5.18739 27.2074C5.19688 27.1559 5.20772 27.1058 5.21721 27.0542C5.21857 27.0448 5.22128 27.0353 5.22263 27.0244C5.22805 26.9987 5.23212 26.9729 5.23754 26.9472C5.24974 26.8821 5.26194 26.8184 5.27414 26.7547C5.327 26.485 5.38257 26.2152 5.44221 25.9469C5.51134 25.6324 5.58588 25.3193 5.66314 25.0076C5.74854 24.6606 5.83799 24.3149 5.93287 23.9707C5.93287 23.9652 5.93558 23.9598 5.93694 23.9544C5.99793 23.7348 6.06164 23.5152 6.1267 23.297C6.28528 22.7657 6.44929 22.2357 6.62549 21.7098C6.72173 21.4252 6.82203 21.1419 6.92369 20.86C7.11616 20.3273 7.31811 19.7987 7.53091 19.2755C7.93076 18.2874 8.3645 17.3128 8.83483 16.3532C8.92158 16.1756 9.00968 15.9981 9.09914 15.8219C9.31058 15.4044 9.53016 14.9896 9.75516 14.5789C9.8148 14.4692 9.87579 14.3594 9.93543 14.2509C9.94085 14.2428 9.94628 14.2333 9.95034 14.2252C9.95712 14.213 9.96254 14.2008 9.96119 14.1859C9.96932 14.1723 9.97881 14.1588 9.98558 14.1466C10.0506 14.0314 10.1157 13.9161 10.1821 13.8009C10.315 13.5719 10.4478 13.3441 10.5847 13.1164C10.6809 12.9565 10.7785 12.7966 10.8761 12.638C10.9859 12.4591 11.097 12.2815 11.2109 12.1053C11.3532 11.883 11.4982 11.6607 11.6446 11.4411C11.7991 11.2094 11.9564 10.9816 12.1163 10.7539C12.2112 10.617 12.3074 10.4815 12.4037 10.3446C12.4037 10.3419 12.4037 10.3392 12.4037 10.3364C12.4037 10.3351 12.405 10.3324 12.4064 10.331C12.4091 10.327 12.4145 10.3256 12.4199 10.3256C12.447 10.2877 12.4728 10.2484 12.5012 10.2104C13.5693 8.74384 14.7364 7.36131 16.0498 6.10619C16.5228 5.65483 17.0108 5.22381 17.5218 4.81854C17.7251 4.65589 17.9324 4.49866 18.1439 4.34414L18.1968 4.30619C18.2849 4.24249 18.3743 4.18014 18.4638 4.11779C18.8948 3.81959 19.3367 3.54173 19.7934 3.29233C19.8802 3.24489 19.9683 3.19881 20.0564 3.15408C20.1228 3.1202 20.1879 3.08631 20.2543 3.05378C20.3112 3.02532 20.3681 2.99821 20.4251 2.9711C20.6541 2.86402 20.8859 2.76372 21.1231 2.67291C21.8767 2.38285 22.652 2.18496 23.4612 2.14158C24.0712 2.10905 24.6716 2.16327 25.2599 2.34083C25.2856 2.34896 25.3114 2.36116 25.3385 2.35032C25.3385 2.35032 25.3385 2.34896 25.3385 2.35032L25.3398 2.34896ZM2.43995 32.3024C2.43995 32.3146 2.43995 32.3282 2.43995 32.3404C2.43995 32.3282 2.43995 32.3146 2.43995 32.3024Z" fill="#FDBF41"/>
<path d="M12.4064 10.3296C12.4064 10.3296 12.4145 10.3242 12.42 10.3242C12.42 10.3296 12.4173 10.3337 12.4145 10.3364C12.4118 10.3391 12.4078 10.3405 12.4023 10.3418C12.4023 10.3391 12.4023 10.3364 12.4023 10.3337C12.4023 10.3324 12.4037 10.3296 12.4051 10.3283L12.4064 10.3296Z" fill="#C18B00"/>
<path d="M14.6536 4.21268C14.6617 4.20319 14.6712 4.19777 14.6848 4.19641C14.6929 4.19641 14.7037 4.19641 14.7146 4.19912V4.20183C14.7078 4.21945 14.701 4.23572 14.6902 4.24521C14.6834 4.25063 14.6766 4.25334 14.6685 4.25469C14.6644 4.25469 14.659 4.25469 14.6549 4.25469H14.6522C14.6522 4.25469 14.6441 4.25198 14.6387 4.25063C14.6414 4.23436 14.6468 4.22081 14.6549 4.21268H14.6536Z" fill="#C18B00"/>
<path d="M22.9337 1.26593C22.4091 1.03144 21.8832 0.803735 21.3614 0.566536C20.7636 0.294096 20.1428 0.126023 19.4855 0.0948486C19.3201 0.0948486 19.1534 0.0948489 18.988 0.0962043C18.923 0.0962043 18.8579 0.0962043 18.7942 0.0962043C18.4635 0.113825 18.1368 0.16262 17.8129 0.231747C16.8573 0.43506 15.9681 0.809157 15.1156 1.27813C14.2576 1.74982 13.4606 2.31367 12.703 2.93175C12.6067 3.01036 12.5024 3.0822 12.4183 3.17708C12.4115 3.17979 12.4048 3.18521 12.4007 3.19199V3.20012C12.4007 3.20012 12.398 3.20012 12.3966 3.20012C12.3939 3.20012 12.3926 3.20012 12.3926 3.20012C12.3709 3.21774 12.3492 3.23401 12.3275 3.25163C11.4885 3.97 10.7091 4.74937 9.97179 5.57211C9.09619 6.55072 8.28835 7.58356 7.53338 8.65705C6.40838 10.2564 5.41215 11.9345 4.52435 13.6761C3.92525 14.8499 3.38037 16.0495 2.88971 17.2734C2.37872 18.5502 1.90974 19.8433 1.53293 21.1676C1.49091 21.314 1.43941 21.459 1.39739 21.6054C1.08835 22.6965 0.821335 23.7971 0.611244 24.9112C0.432329 25.856 0.29001 26.8048 0.196485 27.7617C0.127358 28.4557 0.0799192 29.151 0.08263 29.849C0.08263 30.1662 0.083985 30.4834 0.0853404 30.8005C0.0894067 30.8439 0.0907625 30.8873 0.092118 30.9307C0.0934734 30.9984 0.0921184 31.0649 0.0894075 31.1326C0.0921184 31.5189 0.124648 31.9025 0.161244 32.2874C0.222238 32.915 0.317118 33.5358 0.456726 34.1498C0.63022 34.9197 0.867419 35.6665 1.20492 36.3808C1.56682 37.1453 2.02631 37.8406 2.64709 38.4221C3.00899 38.7609 3.40748 39.0469 3.85613 39.257C4.25462 39.4441 4.65854 39.6189 5.06245 39.7965C5.33896 39.9185 5.61275 40.0499 5.89468 40.1584C5.87841 40.1462 5.86215 40.1326 5.84588 40.1204C5.84588 40.1204 5.84453 40.1204 5.84317 40.1191C5.78896 40.0798 5.73338 40.0432 5.67646 40.0079C5.65884 39.9971 5.64257 39.9862 5.62495 39.9754C5.59513 39.9564 5.56531 39.9388 5.53549 39.9185C5.51787 39.9076 5.50161 39.8954 5.48399 39.8846C5.07601 39.5959 4.72088 39.2543 4.40778 38.8653C4.07841 38.456 3.79784 38.0141 3.57149 37.5397C3.42375 37.2307 3.2882 36.9162 3.17164 36.595C3.14046 36.5665 3.11064 36.5367 3.08082 36.5069C3.11064 36.5367 3.14046 36.5665 3.17164 36.595C3.09031 36.3713 3.01576 36.1436 2.95341 35.9132C2.92495 35.8088 2.90597 35.7004 2.87344 35.596C2.76908 35.2667 2.70673 34.9278 2.64302 34.589C2.59694 34.3463 2.56441 34.101 2.53052 33.8557C2.49528 33.6036 2.4736 33.3487 2.44378 33.0953C2.44242 33.079 2.43971 33.0614 2.43835 33.0451C2.43835 33.3691 2.43835 33.693 2.43835 34.017C2.43835 33.693 2.43835 33.3691 2.43835 33.0451C2.42887 32.9489 2.4248 32.8513 2.41938 32.7537C2.40582 32.4908 2.38278 32.2278 2.38414 31.9635C2.38414 31.7914 2.36652 31.6179 2.36787 31.4444C2.37058 31.0825 2.37465 30.7206 2.3882 30.3587C2.4004 30.0429 2.41938 29.7271 2.44378 29.4112C2.44784 29.3584 2.45191 29.3055 2.45597 29.2527C2.50748 28.678 2.57254 28.1046 2.65116 27.5326C2.73519 26.9308 2.8382 26.3317 2.95477 25.7367C2.98866 25.5618 3.0239 25.387 3.05914 25.2121C3.19468 24.5534 3.35597 23.9015 3.53082 23.2522C3.62028 22.9174 3.71381 22.5826 3.8114 22.2505C3.91305 21.9036 4.01878 21.5593 4.13128 21.2164C4.25326 20.8436 4.38067 20.4722 4.50673 20.1022C4.52977 20.0317 4.57179 19.968 4.59347 19.8989C4.72631 19.4679 4.89167 19.049 5.05703 18.6302C5.301 18.0135 5.54769 17.3981 5.82555 16.795C6.08173 16.2393 6.32841 15.6781 6.60899 15.1332C6.72013 14.9164 6.82992 14.6981 6.937 14.4799C6.97495 14.4027 7.02917 14.3349 7.06441 14.2563C7.17962 14.0109 7.30703 13.7724 7.43986 13.5366C7.50357 13.4241 7.55372 13.3021 7.63775 13.2018C7.77194 12.9442 7.91426 12.6908 8.06742 12.4441C8.15688 12.3018 8.23549 12.1513 8.32359 12.0077C8.56215 11.62 8.79393 11.2296 9.04739 10.8501C9.32796 10.4286 9.59905 10.0016 9.89453 9.59093C10.1941 9.17482 10.4936 8.75735 10.8094 8.35208C10.9125 8.21925 11.029 8.09862 11.128 7.96172C11.2513 7.78958 11.3814 7.62286 11.5197 7.46157C11.7054 7.24334 11.8884 7.02241 12.0768 6.80825C12.1459 6.72964 12.2245 6.65916 12.295 6.57919C12.417 6.44093 12.5308 6.2959 12.6582 6.16172C13.073 5.72527 13.4918 5.29289 13.935 4.88491C14.0245 4.80223 14.1058 4.70871 14.2034 4.63822C14.305 4.56503 14.3728 4.45795 14.488 4.39831C14.4948 4.39425 14.5029 4.39018 14.5084 4.38476C14.5517 4.35087 14.5775 4.29259 14.6249 4.25871C14.629 4.25599 14.6331 4.25328 14.6358 4.25057C14.6385 4.23431 14.6439 4.22075 14.652 4.21262C14.6602 4.20313 14.6697 4.19771 14.6832 4.19636C14.6913 4.19636 14.7022 4.19636 14.713 4.19907C14.7279 4.18687 14.7428 4.17331 14.7578 4.16111C14.7781 4.14756 14.7944 4.13672 14.812 4.12452C14.9014 4.05946 14.9814 3.98491 15.0641 3.90901C15.1915 3.79244 15.3325 3.69078 15.468 3.58506C16.0142 3.16081 16.5903 2.77994 17.184 2.42617C17.2517 2.38687 17.3222 2.35434 17.3913 2.31774C17.5987 2.2066 17.802 2.08867 18.0121 1.98566C18.5584 1.71593 19.1263 1.50042 19.7145 1.34184C20.0181 1.26051 20.3245 1.19681 20.6362 1.15343C21.0144 1.10193 21.3966 1.08024 21.7775 1.10328C22.1936 1.12904 22.6043 1.1941 23.0014 1.32422C23.0218 1.33099 23.0394 1.33235 23.057 1.32151C23.0231 1.28491 22.9716 1.28491 22.9296 1.26593H22.9337Z" fill="#FF1100"/>
<path d="M14.6682 4.06085C14.6682 4.06085 14.6614 4.05543 14.6587 4.05408C14.6628 4.05679 14.6655 4.05814 14.6682 4.06085Z" fill="#FF1100"/>
<path d="M14.5977 4.01746C14.6126 4.02423 14.6261 4.03237 14.6397 4.0405C14.6261 4.03237 14.6126 4.02423 14.5977 4.01746Z" fill="#FF1100"/>
<path d="M19.4854 0.0934894H18.988C18.9229 0.0962002 18.8579 0.0961998 18.7942 0.0961998C18.7914 0.0880673 18.7874 0.0799346 18.7847 0.0718021C19.0205 0.0718021 19.2577 0.0718026 19.4936 0.0690918C19.4908 0.0772243 19.4881 0.0853569 19.4854 0.0934894Z" fill="#FEC35E"/>
<path d="M12.3966 3.20149H12.3926V3.19336H12.4021V3.20285C12.4021 3.20285 12.3994 3.20285 12.398 3.20285L12.3966 3.20149Z" fill="#C18B00"/>
<path opacity="0.48" d="M41.1547 33.8991C41.2225 33.8462 41.2225 33.8408 41.1547 33.788C40.9975 33.6619 40.8294 33.5521 40.6572 33.4478C40.0825 33.0994 39.4685 32.8337 38.8396 32.6033C38.696 32.5505 38.5563 32.4868 38.4032 32.4596C38.3612 32.4122 38.2988 32.4081 38.2446 32.3905C37.6577 32.1953 37.06 32.0354 36.4609 31.8822C36.4107 31.8782 36.3619 31.8673 36.3185 31.8429C36.038 31.7819 35.7574 31.7196 35.4782 31.6586C34.9591 31.5461 34.4372 31.4485 33.914 31.3604C33.5264 31.2953 33.1374 31.2343 32.7484 31.1761C32.4447 31.1313 32.1411 31.0853 31.8348 31.0636C31.7847 31.0554 31.7345 31.0459 31.683 31.0392C30.6109 30.9077 29.5374 30.8087 28.4598 30.7342C27.7563 30.6868 27.0529 30.6488 26.3481 30.6217C25.4277 30.5865 24.506 30.5702 23.5844 30.5702C22.4417 30.5702 21.3005 30.5987 20.1606 30.6542C18.8431 30.7179 17.5283 30.8182 16.2176 30.9646C16.0035 30.989 15.7866 31.0026 15.5752 31.0487C15.5318 31.0365 15.4898 31.0487 15.4464 31.0527C14.5125 31.1679 13.5827 31.3103 12.6583 31.4851C12.1121 31.5881 11.5686 31.702 11.0291 31.8307L11.0183 31.8484C11.0183 31.8484 10.8787 33.8571 11.1877 35.8184C11.7204 35.9444 12.2558 36.0569 12.7925 36.1572C13.2723 36.2467 13.7535 36.3321 14.2374 36.4012C14.9151 36.4988 15.5941 36.5978 16.2759 36.6682C16.9387 36.7374 17.6002 36.8092 18.2643 36.858C18.6574 36.8865 19.0491 36.9203 19.4422 36.9434C20.0237 36.9773 20.6065 37.0057 21.188 37.0261C21.7193 37.045 22.2506 37.06 22.7819 37.0667C23.6318 37.0776 24.483 37.0735 25.3329 37.0559C26.1515 37.0383 26.9702 37.0071 27.7875 36.961C28.7621 36.9068 29.7353 36.8295 30.7071 36.7292C32.1886 36.5761 33.6619 36.37 35.1217 36.0786C36.3972 35.8238 37.6577 35.5121 38.8803 35.0621C39.413 34.8669 39.9348 34.6432 40.4309 34.3667C40.683 34.2271 40.927 34.0753 41.1547 33.8978V33.8991Z" fill="url(#paint0_linear_311_2)"/>
</g>
<defs>
<linearGradient id="paint0_linear_311_2" x1="26.1628" y1="31.3169" x2="25.9745" y2="36.1791" gradientUnits="userSpaceOnUse">
<stop offset="0.16" stop-color="#191919"/>
<stop offset="0.97" stop-color="#191919" stop-opacity="0"/>
</linearGradient>
<clipPath id="clip0_311_2">
<rect width="45" height="43.9157" fill="white"/>
</clipPath>
</defs>
</svg>
