<svg width="101" height="16" viewBox="0 0 101 16" fill="none" xmlns="http://www.w3.org/2000/svg">
<path d="M2.48765 5.24097L5.55187 13.067L8.59524 5.24097H10.4791L6.3596 15.6139H4.62035L0.47998 5.24097H2.48888H2.48765Z" fill="black"/>
<path d="M14.4332 13.6063C15.013 13.9789 15.7165 14.2068 16.4618 14.2068C18.5528 14.2068 20.1891 12.5301 20.1891 10.4182H21.97C21.97 13.4408 19.5272 15.8223 16.4213 15.8223C13.3154 15.8223 10.9756 13.4616 10.9756 10.4808C10.9756 7.49989 13.4184 5.03503 16.5243 5.03503C18.0564 5.03503 19.7956 5.61478 20.9343 7.12605L14.4332 13.6063ZM13.3154 12.4468L18.4915 7.24985C17.8909 6.8564 17.2082 6.64926 16.463 6.64926C14.3928 6.64926 12.7565 8.326 12.7565 10.417C12.7565 11.1622 12.9637 11.8658 13.3154 12.4455V12.4468Z" fill="black"/>
<path d="M23.958 0.5H25.9044V15.6139H23.958V0.5Z" fill="black"/>
<path d="M28.0981 10.417C28.0981 7.35281 30.4588 5.03381 33.5843 5.03381C36.7098 5.03381 39.0913 7.35281 39.0913 10.417C39.0913 13.4812 36.7306 15.8211 33.5843 15.8211C30.438 15.8211 28.0981 13.5021 28.0981 10.417ZM33.5843 14.0818C35.6545 14.0818 37.2074 12.508 37.2074 10.417C37.2074 8.326 35.6545 6.75222 33.5843 6.75222C31.5141 6.75222 29.982 8.34684 29.982 10.417C29.982 12.4872 31.535 14.0818 33.5843 14.0818Z" fill="black"/>
<path d="M46.2139 15.6139C42.8604 15.6139 40.6235 13.5437 40.6235 10.417C40.6235 7.2903 42.8592 5.24095 46.2139 5.24095H47.9531V0.5H49.8995V15.6139H46.2139ZM46.2139 13.8747H47.9531V6.95936H46.2139C44.0187 6.95936 42.5699 8.34684 42.5699 10.417C42.5699 12.4872 44.0187 13.8747 46.2139 13.8747Z" fill="black"/>
<path d="M52.7568 5.24095H54.7032V8.24266L57.9121 5.03381L59.1341 6.25582L54.7032 10.6658V15.6139H52.7568V5.24095Z" fill="black"/>
<path d="M59.2578 10.417C59.2578 7.35281 61.6185 5.03381 64.744 5.03381C67.8695 5.03381 70.251 7.35281 70.251 10.417C70.251 13.4812 67.8903 15.8211 64.744 15.8211C61.5976 15.8211 59.2578 13.5021 59.2578 10.417ZM64.744 14.0818C66.8142 14.0818 68.3671 12.508 68.3671 10.417C68.3671 8.326 66.8142 6.75222 64.744 6.75222C62.6738 6.75222 61.1417 8.34684 61.1417 10.417C61.1417 12.4872 62.6946 14.0818 64.744 14.0818Z" fill="black"/>
<path d="M72.4461 5.24095H74.3508V6.48257C76.0275 5.22012 76.7519 5.03381 77.7042 5.03381C78.9471 5.03381 80.0232 5.67607 80.5405 6.71055C82.4452 5.24095 83.2112 5.03381 84.2053 5.03381C85.9862 5.03381 87.3933 6.31711 87.3933 8.26349V15.6139H85.4469V8.47064C85.4469 7.51828 84.7642 6.81473 83.894 6.81473C83.2309 6.81473 82.7345 6.95936 80.8922 8.49147V15.6139H78.9459V8.47064C78.9459 7.51828 78.2632 6.81473 77.3929 6.81473C76.731 6.81473 76.2334 6.95936 74.3912 8.49147V15.6139H72.4448V5.24095H72.4461Z" fill="black"/>
<path d="M92.943 13.6063C93.5228 13.9789 94.2263 14.2068 94.9715 14.2068C97.0625 14.2068 98.6988 12.5301 98.6988 10.4182H100.48C100.48 13.4408 98.037 15.8223 94.9311 15.8223C91.8252 15.8223 89.4854 13.4616 89.4854 10.4808C89.4854 7.49989 91.9281 5.03503 95.034 5.03503C96.5661 5.03503 98.3054 5.61478 99.444 7.12605L92.943 13.6063ZM91.8252 12.4468L97.0012 7.24985C96.4007 6.8564 95.718 6.64926 94.9727 6.64926C92.9026 6.64926 91.2663 8.326 91.2663 10.417C91.2663 11.1622 91.4734 11.8658 91.8252 12.4455V12.4468Z" fill="black"/>
</svg>
